G04 *
G04 Hello! This Gerber file was generated using PCBmodE version unknown on 2014-07-31 20:32:26 GMT; *
G04 please visit http://boldport.blogspot.co.uk for latest information. *
G04 *
G04 Layers included in this file: silkscreen *
G04 *
G04 leading zeros omitted (L); absolute data (A); 2 integer digits and 3 fractional digits *
%FSLAX66Y66*%
G04 mode (MO): millimeters (MM) *
%MOMM*%
G04 Aperture definitions *
%ADD10R,0.001X0.001*%
%ADD22C,0.90X*%
%ADD24C,0.42X*%
%ADD26C,0.10X*%
%ADD32C,0.20X*%
%ADD23C,0.50X*%
%ADD20C,0.40X*%
%ADD29C,0.80X*%
%ADD28C,0.15X*%
%ADD27C,0.00X*%
%ADD25C,0.42X*%
%ADD30C,0.18X*%
%ADD31C,0.05X*%
%ADD21C,2.60X*%
%LPD*%
G36*
G01X57771742Y-17825623D02*
G01X57771742Y-17825623D01*
G01X57746979Y-17752546D01*
G01X57704375Y-17704491D01*
G01X57659772Y-17676857D01*
G01X57629016Y-17665043D01*
G01X57623742Y-17663623D01*
G01X57623742Y-17663623D01*
G01X57542867Y-17659680D01*
G01X57482599Y-17678838D01*
G01X57443227Y-17705474D01*
G01X57425046Y-17723966D01*
G01X57423742Y-17725623D01*
G01X57423742Y-17725623D01*
G01X57385690Y-17785359D01*
G01X57360867Y-17849202D01*
G01X57346477Y-17908263D01*
G01X57339719Y-17953652D01*
G01X57337795Y-17976480D01*
G01X57337742Y-17977623D01*
G01X57337742Y-17977623D01*
G01X57337103Y-18059242D01*
G01X57340407Y-18132915D01*
G01X57345763Y-18194581D01*
G01X57351283Y-18240182D01*
G01X57355076Y-18265659D01*
G01X57355742Y-18269623D01*
G01X57355742Y-18269623D01*
G01X57363252Y-18340775D01*
G01X57363187Y-18411580D01*
G01X57358378Y-18476142D01*
G01X57351655Y-18528567D01*
G01X57345848Y-18562958D01*
G01X57343742Y-18573623D01*
G01X57343742Y-18573623D01*
G01X57330364Y-18631088D01*
G01X57318485Y-18694212D01*
G01X57313742Y-18721623D01*
G01X57313742Y-18721623D01*
G01X57297869Y-18803085D01*
G01X57283126Y-18862872D01*
G01X57273462Y-18896241D01*
G01X57271742Y-18901623D01*
G01X57271742Y-18901623D01*
G01X57241936Y-18969628D01*
G01X57213894Y-19015583D01*
G01X57203742Y-19029623D01*
G01X57203742Y-19029623D01*
G01X57149670Y-19051871D01*
G01X57099486Y-19021847D01*
G01X57070038Y-18988799D01*
G01X57067742Y-18985623D01*
G01X57067742Y-18985623D01*
G01X57040817Y-18940830D01*
G01X57010455Y-18882848D01*
G01X56980996Y-18822596D01*
G01X56956777Y-18770991D01*
G01X56942138Y-18738951D01*
G01X56939742Y-18733623D01*
G01X56939742Y-18733623D01*
G01X56899766Y-18651288D01*
G01X56861854Y-18584436D01*
G01X56828072Y-18532576D01*
G01X56800482Y-18495215D01*
G01X56781150Y-18471863D01*
G01X56772140Y-18462027D01*
G01X56771742Y-18461623D01*
G01X56771742Y-18461623D01*
G01X56703842Y-18409217D01*
G01X56654186Y-18385734D01*
G01X56630638Y-18379733D01*
G01X56629742Y-18379623D01*
G01X56629742Y-18379623D01*
G01X56568897Y-18392061D01*
G01X56514314Y-18422663D01*
G01X56484940Y-18444616D01*
G01X56483742Y-18445623D01*
G01X56483742Y-18445623D01*
G01X56447306Y-18486893D01*
G01X56410052Y-18539378D01*
G01X56374219Y-18596887D01*
G01X56342045Y-18653230D01*
G01X56315770Y-18702215D01*
G01X56297633Y-18737652D01*
G01X56289873Y-18753352D01*
G01X56289742Y-18753623D01*
G01X56289742Y-18753623D01*
G01X56243737Y-18840440D01*
G01X56199374Y-18910295D01*
G01X56158530Y-18964571D01*
G01X56123081Y-19004650D01*
G01X56094904Y-19031915D01*
G01X56075877Y-19047749D01*
G01X56067875Y-19053536D01*
G01X56067742Y-19053623D01*
G01X56067742Y-19053623D01*
G01X56019368Y-19043819D01*
G01X55976893Y-18995775D01*
G01X55956044Y-18962182D01*
G01X55955742Y-18961623D01*
G01X55955742Y-18961623D01*
G01X55922862Y-18897416D01*
G01X55897527Y-18831752D01*
G01X55878815Y-18768581D01*
G01X55865805Y-18711854D01*
G01X55857574Y-18665523D01*
G01X55853200Y-18633539D01*
G01X55851762Y-18619854D01*
G01X55851742Y-18619623D01*
G01X55851742Y-18619623D01*
G01X55846540Y-18536258D01*
G01X55844686Y-18461925D01*
G01X55845208Y-18398364D01*
G01X55847134Y-18347319D01*
G01X55849492Y-18310529D01*
G01X55851310Y-18289737D01*
G01X55851742Y-18285623D01*
G01X55851742Y-18285623D01*
G01X55854966Y-18216801D01*
G01X55851111Y-18148077D01*
G01X55842931Y-18084465D01*
G01X55833179Y-18030979D01*
G01X55824606Y-17992631D01*
G01X55819965Y-17974435D01*
G01X55819742Y-17973623D01*
G01X55819742Y-17973623D01*
G01X55779573Y-17918130D01*
G01X55730632Y-17892559D01*
G01X55713742Y-17887623D01*
G01X55713742Y-17887623D01*
G01X55642241Y-17886648D01*
G01X55584595Y-17903143D01*
G01X55551635Y-17919254D01*
G01X55547742Y-17921623D01*
G01X55547742Y-17921623D01*
G01X55496711Y-17972045D01*
G01X55468810Y-18026788D01*
G01X55457426Y-18067430D01*
G01X55455742Y-18077623D01*
G01X55455742Y-18077623D01*
G01X55447304Y-18165814D01*
G01X55441898Y-18250344D01*
G01X55439145Y-18330783D01*
G01X55438666Y-18406705D01*
G01X55440083Y-18477680D01*
G01X55443017Y-18543280D01*
G01X55447089Y-18603079D01*
G01X55451921Y-18656647D01*
G01X55457135Y-18703556D01*
G01X55462350Y-18743379D01*
G01X55467189Y-18775687D01*
G01X55471273Y-18800052D01*
G01X55474224Y-18816047D01*
G01X55475662Y-18823243D01*
G01X55475742Y-18823623D01*
G01X55475742Y-18823623D01*
G01X55498804Y-18906190D01*
G01X55529857Y-18982026D01*
G01X55566785Y-19050913D01*
G01X55607471Y-19112631D01*
G01X55649797Y-19166961D01*
G01X55691648Y-19213686D01*
G01X55730905Y-19252587D01*
G01X55765452Y-19283444D01*
G01X55793171Y-19306038D01*
G01X55811946Y-19320153D01*
G01X55819660Y-19325568D01*
G01X55819742Y-19325623D01*
G01X55819742Y-19325623D01*
G01X55894978Y-19366707D01*
G01X55968510Y-19393175D01*
G01X56038874Y-19407451D01*
G01X56104606Y-19411959D01*
G01X56164242Y-19409123D01*
G01X56216318Y-19401367D01*
G01X56259370Y-19391115D01*
G01X56291934Y-19380791D01*
G01X56312546Y-19372819D01*
G01X56319742Y-19369623D01*
G01X56319742Y-19369623D01*
G01X56319742Y-19369623D01*
G01X56367946Y-19337992D01*
G01X56414813Y-19292830D01*
G01X56456283Y-19243937D01*
G01X56488298Y-19201108D01*
G01X56506798Y-19174143D01*
G01X56509742Y-19169623D01*
G01X56509742Y-19169623D01*
G01X56572461Y-19076498D01*
G01X56610992Y-19027623D01*
G01X56630398Y-19008748D01*
G01X56635742Y-19005623D01*
G01X56635742Y-19005623D01*
G01X56635742Y-19005623D01*
G01X56677969Y-19038343D01*
G01X56708821Y-19082134D01*
G01X56709742Y-19083623D01*
G01X56709742Y-19083623D01*
G01X56746858Y-19142430D01*
G01X56784438Y-19199364D01*
G01X56815327Y-19244936D01*
G01X56832371Y-19269654D01*
G01X56833742Y-19271623D01*
G01X56833742Y-19271623D01*
G01X56887148Y-19338529D01*
G01X56932492Y-19382373D01*
G01X56963961Y-19406341D01*
G01X56975742Y-19413623D01*
G01X56975742Y-19413623D01*
G01X56975742Y-19413623D01*
G01X57043797Y-19446321D01*
G01X57110021Y-19468309D01*
G01X57169462Y-19481711D01*
G01X57217167Y-19488649D01*
G01X57248184Y-19491245D01*
G01X57257742Y-19491623D01*
G01X57257742Y-19491623D01*
G01X57336727Y-19483102D01*
G01X57401751Y-19460800D01*
G01X57451413Y-19433032D01*
G01X57484314Y-19408110D01*
G01X57499056Y-19394347D01*
G01X57499742Y-19393623D01*
G01X57499742Y-19393623D01*
G01X57545174Y-19328499D01*
G01X57585518Y-19261671D01*
G01X57620846Y-19195155D01*
G01X57651230Y-19130967D01*
G01X57676742Y-19071123D01*
G01X57697454Y-19017639D01*
G01X57713438Y-18972531D01*
G01X57724766Y-18937815D01*
G01X57731510Y-18915507D01*
G01X57733742Y-18907623D01*
G01X57733742Y-18907623D01*
G01X57733742Y-18907623D01*
G01X57753572Y-18826089D01*
G01X57769022Y-18746871D01*
G01X57780632Y-18671445D01*
G01X57788942Y-18601287D01*
G01X57794492Y-18537873D01*
G01X57797822Y-18482679D01*
G01X57799472Y-18437181D01*
G01X57799982Y-18402855D01*
G01X57799892Y-18381177D01*
G01X57799742Y-18373623D01*
G01X57799742Y-18373623D01*
G01X57799742Y-18373623D01*
G01X57797014Y-18295099D01*
G01X57793758Y-18216791D01*
G01X57790166Y-18140595D01*
G01X57786430Y-18068407D01*
G01X57782742Y-18002123D01*
G01X57779294Y-17943639D01*
G01X57776278Y-17894851D01*
G01X57773886Y-17857655D01*
G01X57772310Y-17833947D01*
G01X57771742Y-17825623D01*
G01X57771742Y-17825623D01*
G37*
G36*
G01X55335742Y-17825623D02*
G01X55335742Y-17825623D01*
G01X55310979Y-17752546D01*
G01X55268375Y-17704491D01*
G01X55223772Y-17676857D01*
G01X55193016Y-17665043D01*
G01X55187742Y-17663623D01*
G01X55187742Y-17663623D01*
G01X55106867Y-17659680D01*
G01X55046599Y-17678838D01*
G01X55007227Y-17705474D01*
G01X54989046Y-17723966D01*
G01X54987742Y-17725623D01*
G01X54987742Y-17725623D01*
G01X54949690Y-17785359D01*
G01X54924867Y-17849202D01*
G01X54910477Y-17908263D01*
G01X54903719Y-17953652D01*
G01X54901795Y-17976480D01*
G01X54901742Y-17977623D01*
G01X54901742Y-17977623D01*
G01X54901103Y-18059242D01*
G01X54904407Y-18132915D01*
G01X54909763Y-18194581D01*
G01X54915283Y-18240182D01*
G01X54919076Y-18265659D01*
G01X54919742Y-18269623D01*
G01X54919742Y-18269623D01*
G01X54927252Y-18340775D01*
G01X54927187Y-18411580D01*
G01X54922378Y-18476142D01*
G01X54915655Y-18528567D01*
G01X54909848Y-18562958D01*
G01X54907742Y-18573623D01*
G01X54907742Y-18573623D01*
G01X54894364Y-18631088D01*
G01X54882485Y-18694212D01*
G01X54877742Y-18721623D01*
G01X54877742Y-18721623D01*
G01X54861869Y-18803085D01*
G01X54847126Y-18862872D01*
G01X54837462Y-18896241D01*
G01X54835742Y-18901623D01*
G01X54835742Y-18901623D01*
G01X54805936Y-18969628D01*
G01X54777894Y-19015583D01*
G01X54767742Y-19029623D01*
G01X54767742Y-19029623D01*
G01X54713670Y-19051871D01*
G01X54663486Y-19021847D01*
G01X54634038Y-18988799D01*
G01X54631742Y-18985623D01*
G01X54631742Y-18985623D01*
G01X54604817Y-18940830D01*
G01X54574455Y-18882848D01*
G01X54544996Y-18822596D01*
G01X54520777Y-18770991D01*
G01X54506138Y-18738951D01*
G01X54503742Y-18733623D01*
G01X54503742Y-18733623D01*
G01X54463766Y-18651288D01*
G01X54425854Y-18584436D01*
G01X54392072Y-18532576D01*
G01X54364482Y-18495215D01*
G01X54345150Y-18471863D01*
G01X54336140Y-18462027D01*
G01X54335742Y-18461623D01*
G01X54335742Y-18461623D01*
G01X54267842Y-18409217D01*
G01X54218186Y-18385734D01*
G01X54194638Y-18379733D01*
G01X54193742Y-18379623D01*
G01X54193742Y-18379623D01*
G01X54132897Y-18392061D01*
G01X54078314Y-18422663D01*
G01X54048940Y-18444616D01*
G01X54047742Y-18445623D01*
G01X54047742Y-18445623D01*
G01X54011306Y-18486893D01*
G01X53974052Y-18539378D01*
G01X53938219Y-18596887D01*
G01X53906045Y-18653230D01*
G01X53879770Y-18702215D01*
G01X53861633Y-18737652D01*
G01X53853873Y-18753352D01*
G01X53853742Y-18753623D01*
G01X53853742Y-18753623D01*
G01X53807737Y-18840440D01*
G01X53763374Y-18910295D01*
G01X53722530Y-18964571D01*
G01X53687081Y-19004650D01*
G01X53658904Y-19031915D01*
G01X53639877Y-19047749D01*
G01X53631875Y-19053536D01*
G01X53631742Y-19053623D01*
G01X53631742Y-19053623D01*
G01X53583368Y-19043819D01*
G01X53540893Y-18995775D01*
G01X53520044Y-18962182D01*
G01X53519742Y-18961623D01*
G01X53519742Y-18961623D01*
G01X53486862Y-18897416D01*
G01X53461527Y-18831752D01*
G01X53442815Y-18768581D01*
G01X53429805Y-18711854D01*
G01X53421574Y-18665523D01*
G01X53417200Y-18633539D01*
G01X53415762Y-18619854D01*
G01X53415742Y-18619623D01*
G01X53415742Y-18619623D01*
G01X53410540Y-18536258D01*
G01X53408686Y-18461925D01*
G01X53409208Y-18398364D01*
G01X53411134Y-18347319D01*
G01X53413492Y-18310529D01*
G01X53415310Y-18289737D01*
G01X53415742Y-18285623D01*
G01X53415742Y-18285623D01*
G01X53418966Y-18216801D01*
G01X53415111Y-18148077D01*
G01X53406931Y-18084465D01*
G01X53397179Y-18030979D01*
G01X53388606Y-17992631D01*
G01X53383965Y-17974435D01*
G01X53383742Y-17973623D01*
G01X53383742Y-17973623D01*
G01X53343573Y-17918130D01*
G01X53294632Y-17892559D01*
G01X53277742Y-17887623D01*
G01X53277742Y-17887623D01*
G01X53206241Y-17886648D01*
G01X53148595Y-17903143D01*
G01X53115635Y-17919254D01*
G01X53111742Y-17921623D01*
G01X53111742Y-17921623D01*
G01X53060711Y-17972045D01*
G01X53032810Y-18026788D01*
G01X53021426Y-18067430D01*
G01X53019742Y-18077623D01*
G01X53019742Y-18077623D01*
G01X53011304Y-18165814D01*
G01X53005898Y-18250344D01*
G01X53003145Y-18330783D01*
G01X53002666Y-18406705D01*
G01X53004083Y-18477680D01*
G01X53007017Y-18543280D01*
G01X53011089Y-18603079D01*
G01X53015921Y-18656647D01*
G01X53021135Y-18703556D01*
G01X53026350Y-18743379D01*
G01X53031189Y-18775687D01*
G01X53035273Y-18800052D01*
G01X53038224Y-18816047D01*
G01X53039662Y-18823243D01*
G01X53039742Y-18823623D01*
G01X53039742Y-18823623D01*
G01X53062804Y-18906190D01*
G01X53093857Y-18982026D01*
G01X53130785Y-19050913D01*
G01X53171471Y-19112631D01*
G01X53213797Y-19166961D01*
G01X53255648Y-19213686D01*
G01X53294905Y-19252587D01*
G01X53329452Y-19283444D01*
G01X53357171Y-19306038D01*
G01X53375946Y-19320153D01*
G01X53383660Y-19325568D01*
G01X53383742Y-19325623D01*
G01X53383742Y-19325623D01*
G01X53458978Y-19366707D01*
G01X53532510Y-19393175D01*
G01X53602874Y-19407451D01*
G01X53668606Y-19411959D01*
G01X53728242Y-19409123D01*
G01X53780318Y-19401367D01*
G01X53823370Y-19391115D01*
G01X53855934Y-19380791D01*
G01X53876546Y-19372819D01*
G01X53883742Y-19369623D01*
G01X53883742Y-19369623D01*
G01X53883742Y-19369623D01*
G01X53931946Y-19337992D01*
G01X53978813Y-19292830D01*
G01X54020283Y-19243937D01*
G01X54052298Y-19201108D01*
G01X54070798Y-19174143D01*
G01X54073742Y-19169623D01*
G01X54073742Y-19169623D01*
G01X54136461Y-19076498D01*
G01X54174992Y-19027623D01*
G01X54194398Y-19008748D01*
G01X54199742Y-19005623D01*
G01X54199742Y-19005623D01*
G01X54199742Y-19005623D01*
G01X54241969Y-19038343D01*
G01X54272821Y-19082134D01*
G01X54273742Y-19083623D01*
G01X54273742Y-19083623D01*
G01X54310858Y-19142430D01*
G01X54348438Y-19199364D01*
G01X54379327Y-19244936D01*
G01X54396371Y-19269654D01*
G01X54397742Y-19271623D01*
G01X54397742Y-19271623D01*
G01X54451148Y-19338529D01*
G01X54496492Y-19382373D01*
G01X54527961Y-19406341D01*
G01X54539742Y-19413623D01*
G01X54539742Y-19413623D01*
G01X54539742Y-19413623D01*
G01X54607797Y-19446321D01*
G01X54674021Y-19468309D01*
G01X54733462Y-19481711D01*
G01X54781167Y-19488649D01*
G01X54812184Y-19491245D01*
G01X54821742Y-19491623D01*
G01X54821742Y-19491623D01*
G01X54900727Y-19483102D01*
G01X54965751Y-19460800D01*
G01X55015413Y-19433032D01*
G01X55048314Y-19408110D01*
G01X55063056Y-19394347D01*
G01X55063742Y-19393623D01*
G01X55063742Y-19393623D01*
G01X55109174Y-19328499D01*
G01X55149518Y-19261671D01*
G01X55184846Y-19195155D01*
G01X55215230Y-19130967D01*
G01X55240742Y-19071123D01*
G01X55261454Y-19017639D01*
G01X55277438Y-18972531D01*
G01X55288766Y-18937815D01*
G01X55295510Y-18915507D01*
G01X55297742Y-18907623D01*
G01X55297742Y-18907623D01*
G01X55297742Y-18907623D01*
G01X55317572Y-18826089D01*
G01X55333022Y-18746871D01*
G01X55344632Y-18671445D01*
G01X55352942Y-18601287D01*
G01X55358492Y-18537873D01*
G01X55361822Y-18482679D01*
G01X55363472Y-18437181D01*
G01X55363982Y-18402855D01*
G01X55363892Y-18381177D01*
G01X55363742Y-18373623D01*
G01X55363742Y-18373623D01*
G01X55363742Y-18373623D01*
G01X55361014Y-18295099D01*
G01X55357758Y-18216791D01*
G01X55354166Y-18140595D01*
G01X55350430Y-18068407D01*
G01X55346742Y-18002123D01*
G01X55343294Y-17943639D01*
G01X55340278Y-17894851D01*
G01X55337886Y-17857655D01*
G01X55336310Y-17833947D01*
G01X55335742Y-17825623D01*
G01X55335742Y-17825623D01*
G37*
G36*
G01X52899742Y-17825623D02*
G01X52899742Y-17825623D01*
G01X52874979Y-17752546D01*
G01X52832375Y-17704491D01*
G01X52787772Y-17676857D01*
G01X52757016Y-17665043D01*
G01X52751742Y-17663623D01*
G01X52751742Y-17663623D01*
G01X52670867Y-17659680D01*
G01X52610599Y-17678838D01*
G01X52571227Y-17705474D01*
G01X52553046Y-17723966D01*
G01X52551742Y-17725623D01*
G01X52551742Y-17725623D01*
G01X52513690Y-17785359D01*
G01X52488867Y-17849202D01*
G01X52474477Y-17908263D01*
G01X52467719Y-17953652D01*
G01X52465795Y-17976480D01*
G01X52465742Y-17977623D01*
G01X52465742Y-17977623D01*
G01X52465103Y-18059242D01*
G01X52468407Y-18132915D01*
G01X52473763Y-18194581D01*
G01X52479283Y-18240182D01*
G01X52483076Y-18265659D01*
G01X52483742Y-18269623D01*
G01X52483742Y-18269623D01*
G01X52491252Y-18340775D01*
G01X52491187Y-18411580D01*
G01X52486378Y-18476142D01*
G01X52479655Y-18528567D01*
G01X52473848Y-18562958D01*
G01X52471742Y-18573623D01*
G01X52471742Y-18573623D01*
G01X52458364Y-18631088D01*
G01X52446485Y-18694212D01*
G01X52441742Y-18721623D01*
G01X52441742Y-18721623D01*
G01X52425869Y-18803085D01*
G01X52411126Y-18862872D01*
G01X52401462Y-18896241D01*
G01X52399742Y-18901623D01*
G01X52399742Y-18901623D01*
G01X52369936Y-18969628D01*
G01X52341894Y-19015583D01*
G01X52331742Y-19029623D01*
G01X52331742Y-19029623D01*
G01X52277670Y-19051871D01*
G01X52227486Y-19021847D01*
G01X52198038Y-18988799D01*
G01X52195742Y-18985623D01*
G01X52195742Y-18985623D01*
G01X52168817Y-18940830D01*
G01X52138455Y-18882848D01*
G01X52108996Y-18822596D01*
G01X52084777Y-18770991D01*
G01X52070138Y-18738951D01*
G01X52067742Y-18733623D01*
G01X52067742Y-18733623D01*
G01X52027766Y-18651288D01*
G01X51989854Y-18584436D01*
G01X51956072Y-18532576D01*
G01X51928482Y-18495215D01*
G01X51909150Y-18471863D01*
G01X51900140Y-18462027D01*
G01X51899742Y-18461623D01*
G01X51899742Y-18461623D01*
G01X51831842Y-18409217D01*
G01X51782186Y-18385734D01*
G01X51758638Y-18379733D01*
G01X51757742Y-18379623D01*
G01X51757742Y-18379623D01*
G01X51696897Y-18392061D01*
G01X51642314Y-18422663D01*
G01X51612940Y-18444616D01*
G01X51611742Y-18445623D01*
G01X51611742Y-18445623D01*
G01X51575306Y-18486893D01*
G01X51538052Y-18539378D01*
G01X51502219Y-18596887D01*
G01X51470045Y-18653230D01*
G01X51443770Y-18702215D01*
G01X51425633Y-18737652D01*
G01X51417873Y-18753352D01*
G01X51417742Y-18753623D01*
G01X51417742Y-18753623D01*
G01X51371737Y-18840440D01*
G01X51327374Y-18910295D01*
G01X51286530Y-18964571D01*
G01X51251081Y-19004650D01*
G01X51222904Y-19031915D01*
G01X51203877Y-19047749D01*
G01X51195875Y-19053536D01*
G01X51195742Y-19053623D01*
G01X51195742Y-19053623D01*
G01X51147368Y-19043819D01*
G01X51104893Y-18995775D01*
G01X51084044Y-18962182D01*
G01X51083742Y-18961623D01*
G01X51083742Y-18961623D01*
G01X51050862Y-18897416D01*
G01X51025527Y-18831752D01*
G01X51006815Y-18768581D01*
G01X50993805Y-18711854D01*
G01X50985574Y-18665523D01*
G01X50981200Y-18633539D01*
G01X50979762Y-18619854D01*
G01X50979742Y-18619623D01*
G01X50979742Y-18619623D01*
G01X50974540Y-18536258D01*
G01X50972686Y-18461925D01*
G01X50973208Y-18398364D01*
G01X50975134Y-18347319D01*
G01X50977492Y-18310529D01*
G01X50979310Y-18289737D01*
G01X50979742Y-18285623D01*
G01X50979742Y-18285623D01*
G01X50982966Y-18216801D01*
G01X50979111Y-18148077D01*
G01X50970931Y-18084465D01*
G01X50961179Y-18030979D01*
G01X50952606Y-17992631D01*
G01X50947965Y-17974435D01*
G01X50947742Y-17973623D01*
G01X50947742Y-17973623D01*
G01X50907573Y-17918130D01*
G01X50858632Y-17892559D01*
G01X50841742Y-17887623D01*
G01X50841742Y-17887623D01*
G01X50770241Y-17886648D01*
G01X50712595Y-17903143D01*
G01X50679635Y-17919254D01*
G01X50675742Y-17921623D01*
G01X50675742Y-17921623D01*
G01X50624711Y-17972045D01*
G01X50596810Y-18026788D01*
G01X50585426Y-18067430D01*
G01X50583742Y-18077623D01*
G01X50583742Y-18077623D01*
G01X50575304Y-18165814D01*
G01X50569898Y-18250344D01*
G01X50567145Y-18330783D01*
G01X50566666Y-18406705D01*
G01X50568083Y-18477680D01*
G01X50571017Y-18543280D01*
G01X50575089Y-18603079D01*
G01X50579921Y-18656647D01*
G01X50585135Y-18703556D01*
G01X50590350Y-18743379D01*
G01X50595189Y-18775687D01*
G01X50599273Y-18800052D01*
G01X50602224Y-18816047D01*
G01X50603662Y-18823243D01*
G01X50603742Y-18823623D01*
G01X50603742Y-18823623D01*
G01X50626804Y-18906190D01*
G01X50657857Y-18982026D01*
G01X50694785Y-19050913D01*
G01X50735471Y-19112631D01*
G01X50777797Y-19166961D01*
G01X50819648Y-19213686D01*
G01X50858905Y-19252587D01*
G01X50893452Y-19283444D01*
G01X50921171Y-19306038D01*
G01X50939946Y-19320153D01*
G01X50947660Y-19325568D01*
G01X50947742Y-19325623D01*
G01X50947742Y-19325623D01*
G01X51022978Y-19366707D01*
G01X51096510Y-19393175D01*
G01X51166874Y-19407451D01*
G01X51232606Y-19411959D01*
G01X51292242Y-19409123D01*
G01X51344318Y-19401367D01*
G01X51387370Y-19391115D01*
G01X51419934Y-19380791D01*
G01X51440546Y-19372819D01*
G01X51447742Y-19369623D01*
G01X51447742Y-19369623D01*
G01X51447742Y-19369623D01*
G01X51495946Y-19337992D01*
G01X51542813Y-19292830D01*
G01X51584283Y-19243937D01*
G01X51616298Y-19201108D01*
G01X51634798Y-19174143D01*
G01X51637742Y-19169623D01*
G01X51637742Y-19169623D01*
G01X51700461Y-19076498D01*
G01X51738992Y-19027623D01*
G01X51758398Y-19008748D01*
G01X51763742Y-19005623D01*
G01X51763742Y-19005623D01*
G01X51763742Y-19005623D01*
G01X51805969Y-19038343D01*
G01X51836821Y-19082134D01*
G01X51837742Y-19083623D01*
G01X51837742Y-19083623D01*
G01X51874858Y-19142430D01*
G01X51912438Y-19199364D01*
G01X51943327Y-19244936D01*
G01X51960371Y-19269654D01*
G01X51961742Y-19271623D01*
G01X51961742Y-19271623D01*
G01X52015148Y-19338529D01*
G01X52060492Y-19382373D01*
G01X52091961Y-19406341D01*
G01X52103742Y-19413623D01*
G01X52103742Y-19413623D01*
G01X52103742Y-19413623D01*
G01X52171797Y-19446321D01*
G01X52238021Y-19468309D01*
G01X52297462Y-19481711D01*
G01X52345167Y-19488649D01*
G01X52376184Y-19491245D01*
G01X52385742Y-19491623D01*
G01X52385742Y-19491623D01*
G01X52464727Y-19483102D01*
G01X52529751Y-19460800D01*
G01X52579413Y-19433032D01*
G01X52612314Y-19408110D01*
G01X52627056Y-19394347D01*
G01X52627742Y-19393623D01*
G01X52627742Y-19393623D01*
G01X52673174Y-19328499D01*
G01X52713518Y-19261671D01*
G01X52748846Y-19195155D01*
G01X52779230Y-19130967D01*
G01X52804742Y-19071123D01*
G01X52825454Y-19017639D01*
G01X52841438Y-18972531D01*
G01X52852766Y-18937815D01*
G01X52859510Y-18915507D01*
G01X52861742Y-18907623D01*
G01X52861742Y-18907623D01*
G01X52861742Y-18907623D01*
G01X52881572Y-18826089D01*
G01X52897022Y-18746871D01*
G01X52908632Y-18671445D01*
G01X52916942Y-18601287D01*
G01X52922492Y-18537873D01*
G01X52925822Y-18482679D01*
G01X52927472Y-18437181D01*
G01X52927982Y-18402855D01*
G01X52927892Y-18381177D01*
G01X52927742Y-18373623D01*
G01X52927742Y-18373623D01*
G01X52927742Y-18373623D01*
G01X52925014Y-18295099D01*
G01X52921758Y-18216791D01*
G01X52918166Y-18140595D01*
G01X52914430Y-18068407D01*
G01X52910742Y-18002123D01*
G01X52907294Y-17943639D01*
G01X52904278Y-17894851D01*
G01X52901886Y-17857655D01*
G01X52900310Y-17833947D01*
G01X52899742Y-17825623D01*
G01X52899742Y-17825623D01*
G37*
G36*
G01X50443742Y-19165623D02*
G01X50443742Y-19165623D01*
G01X50443183Y-19086725D01*
G01X50429940Y-19027824D01*
G01X50415821Y-18993173D01*
G01X50411742Y-18985623D01*
G01X50411742Y-18985623D01*
G01X50362628Y-18928652D01*
G01X50316781Y-18897426D01*
G01X50295763Y-18887631D01*
G01X50295742Y-18887623D01*
G01X50295742Y-18887623D01*
G01X50225011Y-18871481D01*
G01X50168027Y-18868499D01*
G01X50143766Y-18869620D01*
G01X50143742Y-18869623D01*
G01X50143742Y-18869623D01*
G01X50069348Y-18886163D01*
G01X50023446Y-18906560D01*
G01X50011742Y-18913623D01*
G01X50011742Y-18913623D01*
G01X49970698Y-18958400D01*
G01X49945362Y-19019674D01*
G01X49931947Y-19083616D01*
G01X49926668Y-19136399D01*
G01X49925738Y-19164195D01*
G01X49925742Y-19165623D01*
G01X49925742Y-19165623D01*
G01X49935823Y-19255087D01*
G01X49959350Y-19324583D01*
G01X49989306Y-19375643D01*
G01X50018677Y-19409800D01*
G01X50040445Y-19428587D01*
G01X50047742Y-19433623D01*
G01X50047742Y-19433623D01*
G01X50125685Y-19463096D01*
G01X50193582Y-19467236D01*
G01X50248772Y-19455699D01*
G01X50288598Y-19438143D01*
G01X50310398Y-19424227D01*
G01X50313742Y-19421623D01*
G01X50313742Y-19421623D01*
G01X50366255Y-19364868D01*
G01X50402585Y-19303510D01*
G01X50425604Y-19245387D01*
G01X50438179Y-19198337D01*
G01X50443180Y-19170199D01*
G01X50443742Y-19165623D01*
G37*
G36*
G01X49839742Y-18361623D02*
G01X49839742Y-18361623D01*
G01X49836422Y-18275171D01*
G01X49823262Y-18196087D01*
G01X49802662Y-18124779D01*
G01X49777022Y-18061655D01*
G01X49748742Y-18007123D01*
G01X49720222Y-17961591D01*
G01X49693862Y-17925467D01*
G01X49672062Y-17899159D01*
G01X49657222Y-17883075D01*
G01X49651742Y-17877623D01*
G01X49651742Y-17877623D01*
G01X49651742Y-17877623D01*
G01X49590450Y-17828879D01*
G01X49525726Y-17791991D01*
G01X49459898Y-17765375D01*
G01X49395294Y-17747447D01*
G01X49334242Y-17736623D01*
G01X49279070Y-17731319D01*
G01X49232106Y-17729951D01*
G01X49195678Y-17730935D01*
G01X49172114Y-17732687D01*
G01X49163742Y-17733623D01*
G01X49163742Y-17733623D01*
G01X49163742Y-17733623D01*
G01X49086947Y-17749791D01*
G01X49015580Y-17775218D01*
G01X48950566Y-17806964D01*
G01X48892833Y-17842089D01*
G01X48843306Y-17877657D01*
G01X48802913Y-17910727D01*
G01X48772579Y-17938360D01*
G01X48753231Y-17957619D01*
G01X48745795Y-17965563D01*
G01X48745742Y-17965623D01*
G01X48745742Y-17965623D01*
G01X48693361Y-18032971D01*
G01X48652708Y-18101441D01*
G01X48622297Y-18168667D01*
G01X48600643Y-18232287D01*
G01X48586261Y-18289936D01*
G01X48577665Y-18339250D01*
G01X48573370Y-18377867D01*
G01X48571891Y-18403421D01*
G01X48571741Y-18413549D01*
G01X48571742Y-18413623D01*
G01X48571742Y-18413623D01*
G01X48594894Y-18456213D01*
G01X48634614Y-18501714D01*
G01X48685178Y-18547678D01*
G01X48740865Y-18591657D01*
G01X48795950Y-18631207D01*
G01X48844711Y-18663879D01*
G01X48881424Y-18687226D01*
G01X48900366Y-18698803D01*
G01X48901742Y-18699623D01*
G01X48901742Y-18699623D01*
G01X49003994Y-18760895D01*
G01X49083312Y-18809820D01*
G01X49142516Y-18847635D01*
G01X49184427Y-18875579D01*
G01X49211867Y-18894892D01*
G01X49227655Y-18906814D01*
G01X49234614Y-18912582D01*
G01X49235742Y-18913623D01*
G01X49235742Y-18913623D01*
G01X49283602Y-18943685D01*
G01X49285742Y-18945623D01*
G01X49285742Y-18945623D01*
G01X49300513Y-18996266D01*
G01X49299742Y-18997623D01*
G01X49299742Y-18997623D01*
G01X49254268Y-19061453D01*
G01X49210732Y-19101386D01*
G01X49183181Y-19119762D01*
G01X49179742Y-19121623D01*
G01X49179742Y-19121623D01*
G01X49110810Y-19142137D01*
G01X49050804Y-19144823D01*
G01X49019028Y-19141835D01*
G01X49017742Y-19141623D01*
G01X49017742Y-19141623D01*
G01X48942628Y-19125063D01*
G01X48885550Y-19108503D01*
G01X48855904Y-19098423D01*
G01X48853742Y-19097623D01*
G01X48853742Y-19097623D01*
G01X48790596Y-19071190D01*
G01X48730958Y-19043235D01*
G01X48689708Y-19022733D01*
G01X48679742Y-19017623D01*
G01X48679742Y-19017623D01*
G01X48629804Y-19076262D01*
G01X48609602Y-19138571D01*
G01X48607638Y-19192541D01*
G01X48612411Y-19226159D01*
G01X48613742Y-19231623D01*
G01X48613742Y-19231623D01*
G01X48649073Y-19304511D01*
G01X48695962Y-19350299D01*
G01X48740993Y-19374992D01*
G01X48770748Y-19384596D01*
G01X48775742Y-19385623D01*
G01X48775742Y-19385623D01*
G01X48831451Y-19394083D01*
G01X48863742Y-19399623D01*
G01X48863742Y-19399623D01*
G01X48943742Y-19412873D01*
G01X48963742Y-19415623D01*
G01X48963742Y-19415623D01*
G01X48963742Y-19415623D01*
G01X49023245Y-19421090D01*
G01X49051742Y-19423623D01*
G01X49051742Y-19423623D01*
G01X49127101Y-19425959D01*
G01X49155569Y-19423650D01*
G01X49155742Y-19423623D01*
G01X49155742Y-19423623D01*
G01X49219333Y-19412238D01*
G01X49243742Y-19407623D01*
G01X49243742Y-19407623D01*
G01X49310991Y-19389628D01*
G01X49343514Y-19377717D01*
G01X49343742Y-19377623D01*
G01X49343742Y-19377623D01*
G01X49412318Y-19341016D01*
G01X49474270Y-19296687D01*
G01X49529934Y-19245674D01*
G01X49579646Y-19189015D01*
G01X49623742Y-19127748D01*
G01X49662558Y-19062911D01*
G01X49696430Y-18995542D01*
G01X49725694Y-18926679D01*
G01X49750686Y-18857360D01*
G01X49771742Y-18788623D01*
G01X49789198Y-18721506D01*
G01X49803390Y-18657047D01*
G01X49814654Y-18596284D01*
G01X49823326Y-18540255D01*
G01X49829742Y-18489998D01*
G01X49834238Y-18446551D01*
G01X49837150Y-18410952D01*
G01X49838814Y-18384239D01*
G01X49839566Y-18367450D01*
G01X49839742Y-18361623D01*
G01X49839742Y-18361623D01*
G37*
G36*
G01X48495742Y-18305623D02*
G01X48495742Y-18305623D01*
G01X48501322Y-18219264D01*
G01X48497978Y-18141817D01*
G01X48488348Y-18074282D01*
G01X48475067Y-18017663D01*
G01X48460772Y-17972959D01*
G01X48448100Y-17941174D01*
G01X48439686Y-17923310D01*
G01X48437742Y-17919623D01*
G01X48437742Y-17919623D01*
G01X48391435Y-17864086D01*
G01X48334584Y-17832269D01*
G01X48274196Y-17818460D01*
G01X48217278Y-17816951D01*
G01X48170836Y-17822029D01*
G01X48141876Y-17827985D01*
G01X48135742Y-17829623D01*
G01X48135742Y-17829623D01*
G01X48070213Y-17866833D01*
G01X48039707Y-17906470D01*
G01X48033742Y-17919623D01*
G01X48033742Y-17919623D01*
G01X48023419Y-17989474D01*
G01X48028016Y-18044993D01*
G01X48031742Y-18063623D01*
G01X48031742Y-18063623D01*
G01X48045629Y-18135211D01*
G01X48051998Y-18194172D01*
G01X48053707Y-18224419D01*
G01X48053742Y-18225623D01*
G01X48053742Y-18225623D01*
G01X48045050Y-18302332D01*
G01X48027464Y-18351259D01*
G01X48019742Y-18365623D01*
G01X48019742Y-18365623D01*
G01X47975054Y-18316685D01*
G01X47935242Y-18263623D01*
G01X47906679Y-18221060D01*
G01X47895742Y-18203623D01*
G01X47895742Y-18203623D01*
G01X47895742Y-18203623D01*
G01X47855317Y-18134728D01*
G01X47823334Y-18077343D01*
G01X47801255Y-18035993D01*
G01X47790538Y-18015204D01*
G01X47789742Y-18013623D01*
G01X47789742Y-18013623D01*
G01X47754523Y-17951935D01*
G01X47717992Y-17898123D01*
G01X47689336Y-17860060D01*
G01X47677742Y-17845623D01*
G01X47677742Y-17845623D01*
G01X47677742Y-17845623D01*
G01X47619331Y-17790297D01*
G01X47568898Y-17760524D01*
G01X47537243Y-17748927D01*
G01X47531742Y-17747623D01*
G01X47531742Y-17747623D01*
G01X47469944Y-17744994D01*
G01X47404386Y-17752512D01*
G01X47350661Y-17763043D01*
G01X47324364Y-17769455D01*
G01X47323742Y-17769623D01*
G01X47323742Y-17769623D01*
G01X47264387Y-17827217D01*
G01X47244136Y-17845301D01*
G01X47243742Y-17845623D01*
G01X47243742Y-17845623D01*
G01X47232897Y-17901634D01*
G01X47223219Y-17969085D01*
G01X47215878Y-18029579D01*
G01X47212041Y-18064718D01*
G01X47211742Y-18067623D01*
G01X47211742Y-18067623D01*
G01X47199990Y-18156825D01*
G01X47186671Y-18225277D01*
G01X47174453Y-18272868D01*
G01X47166003Y-18299487D01*
G01X47163742Y-18305623D01*
G01X47163742Y-18305623D01*
G01X47120772Y-18258600D01*
G01X47084774Y-18216141D01*
G01X47077742Y-18207623D01*
G01X47077742Y-18207623D01*
G01X47027865Y-18147351D01*
G01X46995408Y-18108909D01*
G01X46985742Y-18097623D01*
G01X46985742Y-18097623D01*
G01X46939918Y-18047299D01*
G01X46901798Y-18007784D01*
G01X46891742Y-17997623D01*
G01X46891742Y-17997623D01*
G01X46833656Y-17946344D01*
G01X46793444Y-17917636D01*
G01X46783742Y-17911623D01*
G01X46783742Y-17911623D01*
G01X46721854Y-17878951D01*
G01X46678398Y-17858567D01*
G01X46671742Y-17855623D01*
G01X46671742Y-17855623D01*
G01X46603075Y-17836875D01*
G01X46554559Y-17833404D01*
G01X46545742Y-17833623D01*
G01X46545742Y-17833623D01*
G01X46475768Y-17844848D01*
G01X46422964Y-17860179D01*
G01X46407742Y-17865623D01*
G01X46407742Y-17865623D01*
G01X46360679Y-17915048D01*
G01X46347742Y-17941623D01*
G01X46347742Y-17941623D01*
G01X46335198Y-18006007D01*
G01X46331870Y-18057335D01*
G01X46331742Y-18065623D01*
G01X46331742Y-18065623D01*
G01X46329742Y-18144123D01*
G01X46327742Y-18165623D01*
G01X46327742Y-18165623D01*
G01X46327742Y-18165623D01*
G01X46315381Y-18266444D01*
G01X46305996Y-18364359D01*
G01X46299377Y-18459265D01*
G01X46295315Y-18551059D01*
G01X46293598Y-18639639D01*
G01X46294016Y-18724900D01*
G01X46296359Y-18806741D01*
G01X46300416Y-18885059D01*
G01X46305976Y-18959749D01*
G01X46312830Y-19030711D01*
G01X46320767Y-19097840D01*
G01X46329576Y-19161034D01*
G01X46339047Y-19220189D01*
G01X46348970Y-19275204D01*
G01X46359134Y-19325975D01*
G01X46369329Y-19372399D01*
G01X46379344Y-19414373D01*
G01X46388968Y-19451794D01*
G01X46397993Y-19484560D01*
G01X46406206Y-19512567D01*
G01X46413398Y-19535712D01*
G01X46419358Y-19553894D01*
G01X46423875Y-19567008D01*
G01X46426740Y-19574952D01*
G01X46427742Y-19577623D01*
G01X46427742Y-19577623D01*
G01X46427742Y-19577623D01*
G01X46463304Y-19638560D01*
G01X46514242Y-19675123D01*
G01X46559929Y-19692935D01*
G01X46579742Y-19697623D01*
G01X46579742Y-19697623D01*
G01X46579742Y-19697623D01*
G01X46657784Y-19700202D01*
G01X46724651Y-19687843D01*
G01X46774976Y-19670001D01*
G01X46803394Y-19656132D01*
G01X46807742Y-19653623D01*
G01X46807742Y-19653623D01*
G01X46827742Y-19631623D01*
G01X46827742Y-19631623D01*
G01X46835738Y-19578216D01*
G01X46835742Y-19577623D01*
G01X46835742Y-19577623D01*
G01X46828357Y-19519932D01*
G01X46827742Y-19517623D01*
G01X46827742Y-19517623D01*
G01X46802253Y-19441293D01*
G01X46780790Y-19362747D01*
G01X46763059Y-19282646D01*
G01X46748766Y-19201655D01*
G01X46737617Y-19120435D01*
G01X46729318Y-19039651D01*
G01X46723575Y-18959964D01*
G01X46720094Y-18882039D01*
G01X46718581Y-18806537D01*
G01X46718742Y-18734123D01*
G01X46720283Y-18665458D01*
G01X46722910Y-18601207D01*
G01X46726329Y-18542031D01*
G01X46730246Y-18488595D01*
G01X46734367Y-18441560D01*
G01X46738398Y-18401591D01*
G01X46742045Y-18369349D01*
G01X46745014Y-18345499D01*
G01X46747011Y-18330702D01*
G01X46747742Y-18325623D01*
G01X46747742Y-18325623D01*
G01X46747742Y-18325623D01*
G01X46786622Y-18306903D01*
G01X46807742Y-18321623D01*
G01X46807742Y-18321623D01*
G01X46846804Y-18363894D01*
G01X46847742Y-18365623D01*
G01X46847742Y-18365623D01*
G01X46883450Y-18426845D01*
G01X46918443Y-18490451D01*
G01X46952523Y-18555626D01*
G01X46985494Y-18621556D01*
G01X47017158Y-18687427D01*
G01X47047319Y-18752425D01*
G01X47075780Y-18815737D01*
G01X47102343Y-18876549D01*
G01X47126812Y-18934046D01*
G01X47148990Y-18987415D01*
G01X47168679Y-19035842D01*
G01X47185683Y-19078513D01*
G01X47199805Y-19114614D01*
G01X47210848Y-19143331D01*
G01X47218614Y-19163851D01*
G01X47222907Y-19175359D01*
G01X47223742Y-19177623D01*
G01X47223742Y-19177623D01*
G01X47266260Y-19235125D01*
G01X47319702Y-19277334D01*
G01X47371174Y-19305360D01*
G01X47407787Y-19320315D01*
G01X47417742Y-19323623D01*
G01X47417742Y-19323623D01*
G01X47498833Y-19332627D01*
G01X47562518Y-19316277D01*
G01X47607798Y-19288910D01*
G01X47633672Y-19264860D01*
G01X47639742Y-19257623D01*
G01X47639742Y-19257623D01*
G01X47658194Y-19202311D01*
G01X47668052Y-19136929D01*
G01X47671266Y-19067223D01*
G01X47669787Y-18998941D01*
G01X47665566Y-18937829D01*
G01X47660555Y-18889636D01*
G01X47656703Y-18860109D01*
G01X47655742Y-18853623D01*
G01X47655742Y-18853623D01*
G01X47643634Y-18758553D01*
G01X47638024Y-18675054D01*
G01X47637460Y-18603291D01*
G01X47640490Y-18543431D01*
G01X47645662Y-18495639D01*
G01X47651526Y-18460081D01*
G01X47656629Y-18436924D01*
G01X47659521Y-18426332D01*
G01X47659742Y-18425623D01*
G01X47659742Y-18425623D01*
G01X47686410Y-18473939D01*
G01X47716181Y-18532215D01*
G01X47747148Y-18595724D01*
G01X47777403Y-18659737D01*
G01X47805038Y-18719527D01*
G01X47828146Y-18770366D01*
G01X47844819Y-18807526D01*
G01X47853149Y-18826279D01*
G01X47853742Y-18827623D01*
G01X47853742Y-18827623D01*
G01X47894145Y-18916845D01*
G01X47931843Y-18995743D01*
G01X47966309Y-19064299D01*
G01X47997016Y-19122499D01*
G01X48023436Y-19170325D01*
G01X48045043Y-19207762D01*
G01X48061310Y-19234794D01*
G01X48071709Y-19251405D01*
G01X48075713Y-19257580D01*
G01X48075742Y-19257623D01*
G01X48075742Y-19257623D01*
G01X48127991Y-19305448D01*
G01X48186881Y-19331766D01*
G01X48238102Y-19343001D01*
G01X48267346Y-19345578D01*
G01X48269742Y-19345623D01*
G01X48269742Y-19345623D01*
G01X48353098Y-19330870D01*
G01X48404444Y-19298984D01*
G01X48429897Y-19268526D01*
G01X48435742Y-19257623D01*
G01X48435742Y-19257623D01*
G01X48454355Y-19200259D01*
G01X48468379Y-19136132D01*
G01X48478455Y-19068787D01*
G01X48485219Y-19001771D01*
G01X48489312Y-18938628D01*
G01X48491372Y-18882905D01*
G01X48492038Y-18838148D01*
G01X48491949Y-18807902D01*
G01X48491744Y-18795713D01*
G01X48491742Y-18795623D01*
G01X48491742Y-18795623D01*
G01X48489785Y-18700199D01*
G01X48489025Y-18613643D01*
G01X48489206Y-18536546D01*
G01X48490072Y-18469498D01*
G01X48491368Y-18413089D01*
G01X48492838Y-18367913D01*
G01X48494227Y-18334558D01*
G01X48495279Y-18313616D01*
G01X48495738Y-18305679D01*
G01X48495742Y-18305623D01*
G37*
G36*
G01X46095742Y-18009623D02*
G01X46095742Y-18009623D01*
G01X46057318Y-17963339D01*
G01X46051742Y-17957623D01*
G01X46051742Y-17957623D01*
G01X46013346Y-17908968D01*
G01X46011742Y-17905623D01*
G01X46011742Y-17905623D01*
G01X46009364Y-17858135D01*
G01X46008641Y-17794993D01*
G01X46009113Y-17724296D01*
G01X46010319Y-17654144D01*
G01X46011798Y-17592639D01*
G01X46013089Y-17547879D01*
G01X46013730Y-17527967D01*
G01X46013742Y-17527623D01*
G01X46013742Y-17527623D01*
G01X46015675Y-17417388D01*
G01X46013888Y-17329031D01*
G01X46009598Y-17260675D01*
G01X46004024Y-17210444D01*
G01X45998384Y-17176461D01*
G01X45993896Y-17156848D01*
G01X45991780Y-17149729D01*
G01X45991742Y-17149623D01*
G01X45991742Y-17149623D01*
G01X45965997Y-17083458D01*
G01X45928451Y-17029396D01*
G01X45891114Y-16990250D01*
G01X45865996Y-16968830D01*
G01X45861742Y-16965623D01*
G01X45861742Y-16965623D01*
G01X45787961Y-16936060D01*
G01X45728992Y-16945123D01*
G01X45689898Y-16968435D01*
G01X45675742Y-16981623D01*
G01X45675742Y-16981623D01*
G01X45675742Y-16981623D01*
G01X45632233Y-17042762D01*
G01X45607608Y-17103016D01*
G01X45596558Y-17150441D01*
G01X45593775Y-17173094D01*
G01X45593742Y-17173623D01*
G01X45593742Y-17173623D01*
G01X45595050Y-17248465D01*
G01X45603651Y-17313760D01*
G01X45614144Y-17362499D01*
G01X45621127Y-17387675D01*
G01X45621742Y-17389623D01*
G01X45621742Y-17389623D01*
G01X45640351Y-17459633D01*
G01X45652234Y-17526252D01*
G01X45658796Y-17580279D01*
G01X45661445Y-17612515D01*
G01X45661742Y-17617623D01*
G01X45661742Y-17617623D01*
G01X45658452Y-17695169D01*
G01X45645346Y-17760890D01*
G01X45629452Y-17809930D01*
G01X45617798Y-17837434D01*
G01X45615742Y-17841623D01*
G01X45615742Y-17841623D01*
G01X45532541Y-17847830D01*
G01X45454020Y-17857064D01*
G01X45381919Y-17868206D01*
G01X45317982Y-17880136D01*
G01X45263950Y-17891735D01*
G01X45221564Y-17901882D01*
G01X45192567Y-17909457D01*
G01X45178701Y-17913342D01*
G01X45177742Y-17913623D01*
G01X45177742Y-17913623D01*
G01X45106643Y-17938219D01*
G01X45039739Y-17967315D01*
G01X44978462Y-17998671D01*
G01X44924242Y-18030048D01*
G01X44878510Y-18059207D01*
G01X44842697Y-18083907D01*
G01X44818233Y-18101909D01*
G01X44806549Y-18110974D01*
G01X44805742Y-18111623D01*
G01X44805742Y-18111623D01*
G01X44748890Y-18163528D01*
G01X44700498Y-18218074D01*
G01X44660213Y-18272544D01*
G01X44627684Y-18324222D01*
G01X44602558Y-18370391D01*
G01X44584482Y-18408334D01*
G01X44573104Y-18435336D01*
G01X44568071Y-18448679D01*
G01X44567742Y-18449623D01*
G01X44567742Y-18449623D01*
G01X44550239Y-18520168D01*
G01X44545435Y-18589541D01*
G01X44550009Y-18654948D01*
G01X44560638Y-18713593D01*
G01X44574001Y-18762682D01*
G01X44586776Y-18799421D01*
G01X44595641Y-18821014D01*
G01X44597742Y-18825623D01*
G01X44597742Y-18825623D01*
G01X44637622Y-18898113D01*
G01X44681816Y-18962317D01*
G01X44727133Y-19017654D01*
G01X44770384Y-19063545D01*
G01X44808378Y-19099409D01*
G01X44837925Y-19124667D01*
G01X44855836Y-19138739D01*
G01X44859742Y-19141623D01*
G01X44859742Y-19141623D01*
G01X44930236Y-19190144D01*
G01X44998538Y-19234177D01*
G01X45063723Y-19273704D01*
G01X45124862Y-19308707D01*
G01X45181028Y-19339168D01*
G01X45231295Y-19365071D01*
G01X45274734Y-19386398D01*
G01X45310418Y-19403131D01*
G01X45337421Y-19415253D01*
G01X45354814Y-19422747D01*
G01X45361671Y-19425594D01*
G01X45361742Y-19425623D01*
G01X45361742Y-19425623D01*
G01X45440167Y-19452466D01*
G01X45517031Y-19470614D01*
G01X45590338Y-19481537D01*
G01X45658091Y-19486705D01*
G01X45718293Y-19487586D01*
G01X45768949Y-19485650D01*
G01X45808061Y-19482367D01*
G01X45833633Y-19479206D01*
G01X45843669Y-19477636D01*
G01X45843742Y-19477623D01*
G01X45843742Y-19477623D01*
G01X45889138Y-19444683D01*
G01X45926110Y-19391223D01*
G01X45946234Y-19352883D01*
G01X45947742Y-19349623D01*
G01X45947742Y-19349623D01*
G01X45952358Y-19303155D01*
G01X45956590Y-19245479D01*
G01X45960414Y-19180387D01*
G01X45963806Y-19111671D01*
G01X45966742Y-19043123D01*
G01X45969198Y-18978535D01*
G01X45971150Y-18921699D01*
G01X45972574Y-18876407D01*
G01X45973446Y-18846451D01*
G01X45973742Y-18835623D01*
G01X45973742Y-18835623D01*
G01X45973742Y-18835623D01*
G01X45977303Y-18736644D01*
G01X45982334Y-18646112D01*
G01X45988460Y-18564208D01*
G01X45995304Y-18491118D01*
G01X46002490Y-18427025D01*
G01X46009642Y-18372112D01*
G01X46016385Y-18326564D01*
G01X46022340Y-18290563D01*
G01X46027133Y-18264294D01*
G01X46030388Y-18247941D01*
G01X46031728Y-18241686D01*
G01X46031742Y-18241623D01*
G01X46031742Y-18241623D01*
G01X46056353Y-18188499D01*
G01X46061742Y-18177623D01*
G01X46061742Y-18177623D01*
G01X46088803Y-18111141D01*
G01X46095742Y-18085623D01*
G01X46095742Y-18085623D01*
G01X46097573Y-18020850D01*
G01X46095742Y-18009623D01*
G37*
G36*
G01X44455742Y-18361623D02*
G01X44455742Y-18361623D01*
G01X44452422Y-18275171D01*
G01X44439262Y-18196087D01*
G01X44418662Y-18124779D01*
G01X44393022Y-18061655D01*
G01X44364742Y-18007123D01*
G01X44336222Y-17961591D01*
G01X44309862Y-17925467D01*
G01X44288062Y-17899159D01*
G01X44273222Y-17883075D01*
G01X44267742Y-17877623D01*
G01X44267742Y-17877623D01*
G01X44267742Y-17877623D01*
G01X44206450Y-17828879D01*
G01X44141726Y-17791991D01*
G01X44075898Y-17765375D01*
G01X44011294Y-17747447D01*
G01X43950242Y-17736623D01*
G01X43895070Y-17731319D01*
G01X43848106Y-17729951D01*
G01X43811678Y-17730935D01*
G01X43788114Y-17732687D01*
G01X43779742Y-17733623D01*
G01X43779742Y-17733623D01*
G01X43779742Y-17733623D01*
G01X43702947Y-17749791D01*
G01X43631580Y-17775218D01*
G01X43566566Y-17806964D01*
G01X43508833Y-17842089D01*
G01X43459306Y-17877657D01*
G01X43418913Y-17910727D01*
G01X43388579Y-17938360D01*
G01X43369231Y-17957619D01*
G01X43361795Y-17965563D01*
G01X43361742Y-17965623D01*
G01X43361742Y-17965623D01*
G01X43309361Y-18032971D01*
G01X43268708Y-18101441D01*
G01X43238297Y-18168667D01*
G01X43216643Y-18232287D01*
G01X43202261Y-18289936D01*
G01X43193665Y-18339250D01*
G01X43189370Y-18377867D01*
G01X43187891Y-18403421D01*
G01X43187741Y-18413549D01*
G01X43187742Y-18413623D01*
G01X43187742Y-18413623D01*
G01X43210894Y-18456213D01*
G01X43250614Y-18501714D01*
G01X43301178Y-18547678D01*
G01X43356865Y-18591657D01*
G01X43411950Y-18631207D01*
G01X43460711Y-18663879D01*
G01X43497424Y-18687226D01*
G01X43516366Y-18698803D01*
G01X43517742Y-18699623D01*
G01X43517742Y-18699623D01*
G01X43619994Y-18760895D01*
G01X43699312Y-18809820D01*
G01X43758516Y-18847635D01*
G01X43800427Y-18875579D01*
G01X43827867Y-18894892D01*
G01X43843655Y-18906814D01*
G01X43850614Y-18912582D01*
G01X43851742Y-18913623D01*
G01X43851742Y-18913623D01*
G01X43899602Y-18943685D01*
G01X43901742Y-18945623D01*
G01X43901742Y-18945623D01*
G01X43916513Y-18996266D01*
G01X43915742Y-18997623D01*
G01X43915742Y-18997623D01*
G01X43870268Y-19061453D01*
G01X43826732Y-19101386D01*
G01X43799181Y-19119762D01*
G01X43795742Y-19121623D01*
G01X43795742Y-19121623D01*
G01X43726810Y-19142137D01*
G01X43666804Y-19144823D01*
G01X43635028Y-19141835D01*
G01X43633742Y-19141623D01*
G01X43633742Y-19141623D01*
G01X43558628Y-19125063D01*
G01X43501550Y-19108503D01*
G01X43471904Y-19098423D01*
G01X43469742Y-19097623D01*
G01X43469742Y-19097623D01*
G01X43406596Y-19071190D01*
G01X43346958Y-19043235D01*
G01X43305708Y-19022733D01*
G01X43295742Y-19017623D01*
G01X43295742Y-19017623D01*
G01X43245804Y-19076262D01*
G01X43225602Y-19138571D01*
G01X43223638Y-19192541D01*
G01X43228411Y-19226159D01*
G01X43229742Y-19231623D01*
G01X43229742Y-19231623D01*
G01X43265073Y-19304511D01*
G01X43311962Y-19350299D01*
G01X43356993Y-19374992D01*
G01X43386748Y-19384596D01*
G01X43391742Y-19385623D01*
G01X43391742Y-19385623D01*
G01X43447451Y-19394083D01*
G01X43479742Y-19399623D01*
G01X43479742Y-19399623D01*
G01X43559742Y-19412873D01*
G01X43579742Y-19415623D01*
G01X43579742Y-19415623D01*
G01X43579742Y-19415623D01*
G01X43639245Y-19421090D01*
G01X43667742Y-19423623D01*
G01X43667742Y-19423623D01*
G01X43743101Y-19425959D01*
G01X43771569Y-19423650D01*
G01X43771742Y-19423623D01*
G01X43771742Y-19423623D01*
G01X43835333Y-19412238D01*
G01X43859742Y-19407623D01*
G01X43859742Y-19407623D01*
G01X43926991Y-19389628D01*
G01X43959514Y-19377717D01*
G01X43959742Y-19377623D01*
G01X43959742Y-19377623D01*
G01X44028318Y-19341016D01*
G01X44090270Y-19296687D01*
G01X44145934Y-19245674D01*
G01X44195646Y-19189015D01*
G01X44239742Y-19127748D01*
G01X44278558Y-19062911D01*
G01X44312430Y-18995542D01*
G01X44341694Y-18926679D01*
G01X44366686Y-18857360D01*
G01X44387742Y-18788623D01*
G01X44405198Y-18721506D01*
G01X44419390Y-18657047D01*
G01X44430654Y-18596284D01*
G01X44439326Y-18540255D01*
G01X44445742Y-18489998D01*
G01X44450238Y-18446551D01*
G01X44453150Y-18410952D01*
G01X44454814Y-18384239D01*
G01X44455566Y-18367450D01*
G01X44455742Y-18361623D01*
G01X44455742Y-18361623D01*
G37*
G36*
G01X43131742Y-18449623D02*
G01X43131742Y-18449623D01*
G01X43112707Y-18361235D01*
G01X43087288Y-18278659D01*
G01X43056936Y-18202178D01*
G01X43023100Y-18132074D01*
G01X42987230Y-18068631D01*
G01X42950777Y-18012130D01*
G01X42915190Y-17962855D01*
G01X42881919Y-17921087D01*
G01X42852414Y-17887110D01*
G01X42828126Y-17861207D01*
G01X42810504Y-17843659D01*
G01X42800998Y-17834750D01*
G01X42799742Y-17833623D01*
G01X42799742Y-17833623D01*
G01X42757328Y-17794834D01*
G01X42733742Y-17773623D01*
G01X42733742Y-17773623D01*
G01X42674326Y-17720531D01*
G01X42659742Y-17707623D01*
G01X42659742Y-17707623D01*
G01X42613947Y-17669231D01*
G01X42587742Y-17647623D01*
G01X42587742Y-17647623D01*
G01X42526742Y-17599373D01*
G01X42507742Y-17585623D01*
G01X42507742Y-17585623D01*
G01X42507742Y-17585623D01*
G01X42455845Y-17552144D01*
G01X42429742Y-17535623D01*
G01X42429742Y-17535623D01*
G01X42364754Y-17500083D01*
G01X42343742Y-17491623D01*
G01X42343742Y-17491623D01*
G01X42282862Y-17472749D01*
G01X42259742Y-17465623D01*
G01X42259742Y-17465623D01*
G01X42190640Y-17451081D01*
G01X42169742Y-17449623D01*
G01X42169742Y-17449623D01*
G01X42104846Y-17454575D01*
G01X42083742Y-17457623D01*
G01X42083742Y-17457623D01*
G01X42017731Y-17475338D01*
G01X41991742Y-17485623D01*
G01X41991742Y-17485623D01*
G01X41941733Y-17532883D01*
G01X41931162Y-17590605D01*
G01X41937374Y-17633500D01*
G01X41939742Y-17641623D01*
G01X41939742Y-17641623D01*
G01X41972742Y-17713123D01*
G01X42010242Y-17765123D01*
G01X42040992Y-17796873D01*
G01X42053742Y-17807623D01*
G01X42053742Y-17807623D01*
G01X42053742Y-17807623D01*
G01X42112256Y-17845593D01*
G01X42172275Y-17877616D01*
G01X42221972Y-17900916D01*
G01X42249521Y-17912721D01*
G01X42251742Y-17913623D01*
G01X42251742Y-17913623D01*
G01X42328935Y-17947519D01*
G01X42386830Y-17977434D01*
G01X42424100Y-17999387D01*
G01X42439417Y-18009395D01*
G01X42439742Y-18009623D01*
G01X42439742Y-18009623D01*
G01X42513050Y-18071565D01*
G01X42573906Y-18133466D01*
G01X42623462Y-18194119D01*
G01X42662875Y-18252317D01*
G01X42693299Y-18306852D01*
G01X42715888Y-18356518D01*
G01X42731798Y-18400107D01*
G01X42742183Y-18436411D01*
G01X42748198Y-18464224D01*
G01X42750998Y-18482339D01*
G01X42751737Y-18489547D01*
G01X42751742Y-18489623D01*
G01X42751742Y-18489623D01*
G01X42752575Y-18572971D01*
G01X42744494Y-18647664D01*
G01X42730344Y-18712753D01*
G01X42712974Y-18767288D01*
G01X42695231Y-18810320D01*
G01X42679962Y-18840900D01*
G01X42670015Y-18858079D01*
G01X42667742Y-18861623D01*
G01X42667742Y-18861623D01*
G01X42623988Y-18916095D01*
G01X42593114Y-18942623D01*
G01X42591742Y-18943623D01*
G01X42591742Y-18943623D01*
G01X42529971Y-18981282D01*
G01X42507742Y-18991623D01*
G01X42507742Y-18991623D01*
G01X42448513Y-19012194D01*
G01X42402666Y-19026724D01*
G01X42399742Y-19027623D01*
G01X42399742Y-19027623D01*
G01X42324705Y-19052170D01*
G01X42299877Y-19061565D01*
G01X42299742Y-19061623D01*
G01X42299742Y-19061623D01*
G01X42227033Y-19074293D01*
G01X42165189Y-19065005D01*
G01X42125075Y-19050294D01*
G01X42115742Y-19045623D01*
G01X42115742Y-19045623D01*
G01X42053381Y-19007688D01*
G01X41997737Y-18970122D01*
G01X41955525Y-18939640D01*
G01X41933461Y-18922958D01*
G01X41931742Y-18921623D01*
G01X41931742Y-18921623D01*
G01X41861073Y-18875731D01*
G01X41807488Y-18853398D01*
G01X41776784Y-18846192D01*
G01X41771742Y-18845623D01*
G01X41771742Y-18845623D01*
G01X41704565Y-18862678D01*
G01X41689742Y-18877623D01*
G01X41689742Y-18877623D01*
G01X41676565Y-18940402D01*
G01X41679742Y-18969623D01*
G01X41679742Y-18969623D01*
G01X41698146Y-19038218D01*
G01X41709553Y-19071134D01*
G01X41709742Y-19071623D01*
G01X41709742Y-19071623D01*
G01X41738788Y-19134022D01*
G01X41747742Y-19149623D01*
G01X41747742Y-19149623D01*
G01X41794401Y-19208705D01*
G01X41848510Y-19256980D01*
G01X41908704Y-19295392D01*
G01X41973622Y-19324883D01*
G01X42041898Y-19346399D01*
G01X42112170Y-19360881D01*
G01X42183075Y-19369274D01*
G01X42253249Y-19372521D01*
G01X42321328Y-19371565D01*
G01X42385950Y-19367351D01*
G01X42445751Y-19360821D01*
G01X42499367Y-19352918D01*
G01X42545435Y-19344588D01*
G01X42582592Y-19336772D01*
G01X42609474Y-19330415D01*
G01X42624718Y-19326459D01*
G01X42627742Y-19325623D01*
G01X42627742Y-19325623D01*
G01X42706402Y-19296999D01*
G01X42776782Y-19260791D01*
G01X42838882Y-19219495D01*
G01X42892702Y-19175607D01*
G01X42938242Y-19131623D01*
G01X42975502Y-19090039D01*
G01X43004482Y-19053351D01*
G01X43025182Y-19024055D01*
G01X43037602Y-19004647D01*
G01X43041742Y-18997623D01*
G01X43041742Y-18997623D01*
G01X43041742Y-18997623D01*
G01X43074653Y-18929656D01*
G01X43099547Y-18860701D01*
G01X43117450Y-18792299D01*
G01X43129383Y-18725988D01*
G01X43136370Y-18663309D01*
G01X43139436Y-18605800D01*
G01X43139603Y-18555003D01*
G01X43137895Y-18512456D01*
G01X43135335Y-18479698D01*
G01X43132948Y-18458271D01*
G01X43131756Y-18449712D01*
G01X43131742Y-18449623D01*
G37*
G36*
G01X41551742Y-18165623D02*
G01X41551742Y-18165623D01*
G01X41529944Y-18101843D01*
G01X41501928Y-18039845D01*
G01X41471922Y-17983561D01*
G01X41444152Y-17936923D01*
G01X41422846Y-17903863D01*
G01X41412230Y-17888313D01*
G01X41411742Y-17887623D01*
G01X41411742Y-17887623D01*
G01X41351654Y-17801649D01*
G01X41316725Y-17748991D01*
G01X41300321Y-17722184D01*
G01X41295805Y-17713763D01*
G01X41295742Y-17713623D01*
G01X41295742Y-17713623D01*
G01X41245995Y-17646799D01*
G01X41188844Y-17606196D01*
G01X41132830Y-17585376D01*
G01X41086488Y-17577899D01*
G01X41058358Y-17577327D01*
G01X41053742Y-17577623D01*
G01X41053742Y-17577623D01*
G01X40979253Y-17593470D01*
G01X40912714Y-17621458D01*
G01X40856238Y-17655295D01*
G01X40811941Y-17688690D01*
G01X40781934Y-17715351D01*
G01X40768332Y-17728986D01*
G01X40767742Y-17729623D01*
G01X40767742Y-17729623D01*
G01X40723153Y-17787578D01*
G01X40684397Y-17849735D01*
G01X40651434Y-17912694D01*
G01X40624221Y-17973054D01*
G01X40602718Y-18027415D01*
G01X40586883Y-18072375D01*
G01X40576674Y-18104534D01*
G01X40572049Y-18120492D01*
G01X40571742Y-18121623D01*
G01X40571742Y-18121623D01*
G01X40557426Y-18194255D01*
G01X40552603Y-18266365D01*
G01X40556136Y-18337427D01*
G01X40566890Y-18406918D01*
G01X40583730Y-18474315D01*
G01X40605521Y-18539094D01*
G01X40631127Y-18600731D01*
G01X40659414Y-18658704D01*
G01X40689245Y-18712487D01*
G01X40719486Y-18761559D01*
G01X40749001Y-18805394D01*
G01X40776655Y-18843471D01*
G01X40801313Y-18875264D01*
G01X40821839Y-18900250D01*
G01X40837098Y-18917907D01*
G01X40845955Y-18927709D01*
G01X40847742Y-18929623D01*
G01X40847742Y-18929623D01*
G01X40902517Y-18968934D01*
G01X40963845Y-18991822D01*
G01X41015469Y-19002600D01*
G01X41041131Y-19005581D01*
G01X41041742Y-19005623D01*
G01X41041742Y-19005623D01*
G01X41126287Y-19003144D01*
G01X41191064Y-18989937D01*
G01X41233585Y-18974629D01*
G01X41251360Y-18965846D01*
G01X41251742Y-18965623D01*
G01X41251742Y-18965623D01*
G01X41318786Y-18918497D01*
G01X41376140Y-18865786D01*
G01X41424134Y-18810891D01*
G01X41463102Y-18757212D01*
G01X41493374Y-18708151D01*
G01X41515283Y-18667107D01*
G01X41529160Y-18637482D01*
G01X41535337Y-18622677D01*
G01X41535742Y-18621623D01*
G01X41535742Y-18621623D01*
G01X41558237Y-18547732D01*
G01X41571454Y-18475177D01*
G01X41577150Y-18405874D01*
G01X41577081Y-18341740D01*
G01X41573004Y-18284693D01*
G01X41566678Y-18236647D01*
G01X41559857Y-18199521D01*
G01X41554299Y-18175230D01*
G01X41551762Y-18165692D01*
G01X41551742Y-18165623D01*
G37*
G36*
G01X40447742Y-19217623D02*
G01X40447742Y-19217623D01*
G01X40459334Y-19148215D01*
G01X40441118Y-19092199D01*
G01X40421606Y-19061887D01*
G01X40419742Y-19059623D01*
G01X40419742Y-19059623D01*
G01X40361696Y-19010531D01*
G01X40306853Y-18984736D01*
G01X40268910Y-18974914D01*
G01X40259742Y-18973623D01*
G01X40259742Y-18973623D01*
G01X40205275Y-18996612D01*
G01X40167038Y-19039611D01*
G01X40157742Y-19053623D01*
G01X40157742Y-19053623D01*
G01X40108286Y-19123959D01*
G01X40080239Y-19150746D01*
G01X40075742Y-19153623D01*
G01X40075742Y-19153623D01*
G01X40010298Y-19179997D01*
G01X39943154Y-19190199D01*
G01X39879087Y-19188844D01*
G01X39822878Y-19180551D01*
G01X39779304Y-19169935D01*
G01X39753146Y-19161615D01*
G01X39747742Y-19159623D01*
G01X39747742Y-19159623D01*
G01X39671170Y-19118231D01*
G01X39618855Y-19069258D01*
G01X39586176Y-19018945D01*
G01X39568513Y-18973535D01*
G01X39561246Y-18939271D01*
G01X39559754Y-18922394D01*
G01X39559742Y-18921623D01*
G01X39559742Y-18921623D01*
G01X39585189Y-18866484D01*
G01X39619278Y-18829838D01*
G01X39621742Y-18827623D01*
G01X39621742Y-18827623D01*
G01X39682009Y-18781638D01*
G01X39727211Y-18754159D01*
G01X39743742Y-18745623D01*
G01X39743742Y-18745623D01*
G01X39790490Y-18725403D01*
G01X39852998Y-18699294D01*
G01X39909699Y-18675922D01*
G01X39939029Y-18663914D01*
G01X39939742Y-18663623D01*
G01X39939742Y-18663623D01*
G01X40027788Y-18627080D01*
G01X40092137Y-18599377D01*
G01X40134067Y-18580642D01*
G01X40154856Y-18571002D01*
G01X40157742Y-18569623D01*
G01X40157742Y-18569623D01*
G01X40214207Y-18536442D01*
G01X40267706Y-18498187D01*
G01X40304777Y-18469030D01*
G01X40313742Y-18461623D01*
G01X40313742Y-18461623D01*
G01X40368566Y-18407420D01*
G01X40408936Y-18355338D01*
G01X40434997Y-18313844D01*
G01X40446896Y-18291407D01*
G01X40447742Y-18289623D01*
G01X40447742Y-18289623D01*
G01X40467506Y-18222429D01*
G01X40466534Y-18156531D01*
G01X40451630Y-18095655D01*
G01X40429598Y-18043527D01*
G01X40407242Y-18003873D01*
G01X40391366Y-17980419D01*
G01X40387742Y-17975623D01*
G01X40387742Y-17975623D01*
G01X40337350Y-17919488D01*
G01X40283205Y-17870590D01*
G01X40228293Y-17828909D01*
G01X40175599Y-17794422D01*
G01X40128110Y-17767111D01*
G01X40088812Y-17746953D01*
G01X40060690Y-17733929D01*
G01X40046732Y-17728016D01*
G01X40045742Y-17727623D01*
G01X40045742Y-17727623D01*
G01X39956932Y-17699383D01*
G01X39880124Y-17685845D01*
G01X39816249Y-17683079D01*
G01X39766238Y-17687159D01*
G01X39731023Y-17694154D01*
G01X39711536Y-17700137D01*
G01X39707742Y-17701623D01*
G01X39707742Y-17701623D01*
G01X39656478Y-17722742D01*
G01X39595925Y-17746466D01*
G01X39562258Y-17759425D01*
G01X39561742Y-17759623D01*
G01X39561742Y-17759623D01*
G01X39480529Y-17791475D01*
G01X39427705Y-17813366D01*
G01X39402392Y-17824419D01*
G01X39399742Y-17825623D01*
G01X39399742Y-17825623D01*
G01X39342863Y-17858246D01*
G01X39295834Y-17891311D01*
G01X39279742Y-17903623D01*
G01X39279742Y-17903623D01*
G01X39225390Y-17957077D01*
G01X39192370Y-18003010D01*
G01X39179896Y-18025302D01*
G01X39179742Y-18025623D01*
G01X39179742Y-18025623D01*
G01X39170628Y-18089805D01*
G01X39180750Y-18134844D01*
G01X39181742Y-18137623D01*
G01X39181742Y-18137623D01*
G01X39218725Y-18204515D01*
G01X39242708Y-18228883D01*
G01X39243742Y-18229623D01*
G01X39243742Y-18229623D01*
G01X39302711Y-18246882D01*
G01X39366220Y-18240995D01*
G01X39422934Y-18223740D01*
G01X39461518Y-18206898D01*
G01X39471742Y-18201623D01*
G01X39471742Y-18201623D01*
G01X39542783Y-18162138D01*
G01X39607062Y-18126385D01*
G01X39661630Y-18096015D01*
G01X39703540Y-18072677D01*
G01X39729844Y-18058024D01*
G01X39737742Y-18053623D01*
G01X39737742Y-18053623D01*
G01X39803206Y-18030962D01*
G01X39870796Y-18027701D01*
G01X39933968Y-18036883D01*
G01X39986178Y-18051551D01*
G01X40020881Y-18064749D01*
G01X40031742Y-18069623D01*
G01X40031742Y-18069623D01*
G01X40065887Y-18124178D01*
G01X40057545Y-18182144D01*
G01X40038909Y-18220693D01*
G01X40035742Y-18225623D01*
G01X40035742Y-18225623D01*
G01X39981617Y-18290123D01*
G01X39932742Y-18330623D01*
G01X39897367Y-18351623D01*
G01X39883742Y-18357623D01*
G01X39883742Y-18357623D01*
G01X39883742Y-18357623D01*
G01X39799327Y-18389381D01*
G01X39720826Y-18422149D01*
G01X39648270Y-18455409D01*
G01X39581693Y-18488641D01*
G01X39521128Y-18521328D01*
G01X39466607Y-18552951D01*
G01X39418164Y-18582991D01*
G01X39375832Y-18610929D01*
G01X39339643Y-18636247D01*
G01X39309630Y-18658427D01*
G01X39285827Y-18676949D01*
G01X39268265Y-18691295D01*
G01X39256979Y-18700946D01*
G01X39252001Y-18705385D01*
G01X39251742Y-18705623D01*
G01X39251742Y-18705623D01*
G01X39212323Y-18768855D01*
G01X39191161Y-18831663D01*
G01X39182700Y-18885158D01*
G01X39181384Y-18920448D01*
G01X39181742Y-18929623D01*
G01X39181742Y-18929623D01*
G01X39194110Y-19004151D01*
G01X39214926Y-19070807D01*
G01X39237758Y-19124599D01*
G01X39256174Y-19160535D01*
G01X39263742Y-19173623D01*
G01X39263742Y-19173623D01*
G01X39263742Y-19173623D01*
G01X39306248Y-19233738D01*
G01X39356344Y-19287168D01*
G01X39410214Y-19333625D01*
G01X39464043Y-19372817D01*
G01X39514014Y-19404455D01*
G01X39556313Y-19428247D01*
G01X39587125Y-19443904D01*
G01X39602633Y-19451135D01*
G01X39603742Y-19451623D01*
G01X39603742Y-19451623D01*
G01X39681712Y-19479967D01*
G01X39758476Y-19498775D01*
G01X39831959Y-19509694D01*
G01X39900084Y-19514367D01*
G01X39960774Y-19514441D01*
G01X40011955Y-19511560D01*
G01X40051548Y-19507369D01*
G01X40077478Y-19503513D01*
G01X40087668Y-19501638D01*
G01X40087742Y-19501623D01*
G01X40087742Y-19501623D01*
G01X40164677Y-19478477D01*
G01X40231930Y-19445554D01*
G01X40289693Y-19406143D01*
G01X40338158Y-19363535D01*
G01X40377515Y-19321019D01*
G01X40407957Y-19281887D01*
G01X40429676Y-19249428D01*
G01X40442862Y-19226933D01*
G01X40447708Y-19217692D01*
G01X40447742Y-19217623D01*
G37*
G36*
G01X39091742Y-18305623D02*
G01X39091742Y-18305623D01*
G01X39097322Y-18219264D01*
G01X39093978Y-18141817D01*
G01X39084348Y-18074282D01*
G01X39071067Y-18017663D01*
G01X39056772Y-17972959D01*
G01X39044100Y-17941174D01*
G01X39035686Y-17923310D01*
G01X39033742Y-17919623D01*
G01X39033742Y-17919623D01*
G01X38987435Y-17864086D01*
G01X38930584Y-17832269D01*
G01X38870196Y-17818460D01*
G01X38813278Y-17816951D01*
G01X38766836Y-17822029D01*
G01X38737876Y-17827985D01*
G01X38731742Y-17829623D01*
G01X38731742Y-17829623D01*
G01X38666213Y-17866833D01*
G01X38635707Y-17906470D01*
G01X38629742Y-17919623D01*
G01X38629742Y-17919623D01*
G01X38619419Y-17989474D01*
G01X38624016Y-18044993D01*
G01X38627742Y-18063623D01*
G01X38627742Y-18063623D01*
G01X38641629Y-18135211D01*
G01X38647998Y-18194172D01*
G01X38649707Y-18224419D01*
G01X38649742Y-18225623D01*
G01X38649742Y-18225623D01*
G01X38641050Y-18302332D01*
G01X38623464Y-18351259D01*
G01X38615742Y-18365623D01*
G01X38615742Y-18365623D01*
G01X38571054Y-18316685D01*
G01X38531242Y-18263623D01*
G01X38502679Y-18221060D01*
G01X38491742Y-18203623D01*
G01X38491742Y-18203623D01*
G01X38491742Y-18203623D01*
G01X38451317Y-18134728D01*
G01X38419334Y-18077343D01*
G01X38397255Y-18035993D01*
G01X38386538Y-18015204D01*
G01X38385742Y-18013623D01*
G01X38385742Y-18013623D01*
G01X38350523Y-17951935D01*
G01X38313992Y-17898123D01*
G01X38285336Y-17860060D01*
G01X38273742Y-17845623D01*
G01X38273742Y-17845623D01*
G01X38273742Y-17845623D01*
G01X38215331Y-17790297D01*
G01X38164898Y-17760524D01*
G01X38133243Y-17748927D01*
G01X38127742Y-17747623D01*
G01X38127742Y-17747623D01*
G01X38065944Y-17744994D01*
G01X38000386Y-17752512D01*
G01X37946661Y-17763043D01*
G01X37920364Y-17769455D01*
G01X37919742Y-17769623D01*
G01X37919742Y-17769623D01*
G01X37860387Y-17827217D01*
G01X37840136Y-17845301D01*
G01X37839742Y-17845623D01*
G01X37839742Y-17845623D01*
G01X37828897Y-17901634D01*
G01X37819219Y-17969085D01*
G01X37811878Y-18029579D01*
G01X37808041Y-18064718D01*
G01X37807742Y-18067623D01*
G01X37807742Y-18067623D01*
G01X37795990Y-18156825D01*
G01X37782671Y-18225277D01*
G01X37770453Y-18272868D01*
G01X37762003Y-18299487D01*
G01X37759742Y-18305623D01*
G01X37759742Y-18305623D01*
G01X37716772Y-18258600D01*
G01X37680774Y-18216141D01*
G01X37673742Y-18207623D01*
G01X37673742Y-18207623D01*
G01X37623865Y-18147351D01*
G01X37591408Y-18108909D01*
G01X37581742Y-18097623D01*
G01X37581742Y-18097623D01*
G01X37535918Y-18047299D01*
G01X37497798Y-18007784D01*
G01X37487742Y-17997623D01*
G01X37487742Y-17997623D01*
G01X37429656Y-17946344D01*
G01X37389444Y-17917636D01*
G01X37379742Y-17911623D01*
G01X37379742Y-17911623D01*
G01X37317854Y-17878951D01*
G01X37274398Y-17858567D01*
G01X37267742Y-17855623D01*
G01X37267742Y-17855623D01*
G01X37199075Y-17836875D01*
G01X37150559Y-17833404D01*
G01X37141742Y-17833623D01*
G01X37141742Y-17833623D01*
G01X37071768Y-17844848D01*
G01X37018964Y-17860179D01*
G01X37003742Y-17865623D01*
G01X37003742Y-17865623D01*
G01X36956679Y-17915048D01*
G01X36943742Y-17941623D01*
G01X36943742Y-17941623D01*
G01X36931198Y-18006007D01*
G01X36927870Y-18057335D01*
G01X36927742Y-18065623D01*
G01X36927742Y-18065623D01*
G01X36925742Y-18144123D01*
G01X36923742Y-18165623D01*
G01X36923742Y-18165623D01*
G01X36923742Y-18165623D01*
G01X36911381Y-18266444D01*
G01X36901996Y-18364359D01*
G01X36895377Y-18459265D01*
G01X36891315Y-18551059D01*
G01X36889598Y-18639639D01*
G01X36890016Y-18724900D01*
G01X36892359Y-18806741D01*
G01X36896416Y-18885059D01*
G01X36901976Y-18959749D01*
G01X36908830Y-19030711D01*
G01X36916767Y-19097840D01*
G01X36925576Y-19161034D01*
G01X36935047Y-19220189D01*
G01X36944970Y-19275204D01*
G01X36955134Y-19325975D01*
G01X36965329Y-19372399D01*
G01X36975344Y-19414373D01*
G01X36984968Y-19451794D01*
G01X36993993Y-19484560D01*
G01X37002206Y-19512567D01*
G01X37009398Y-19535712D01*
G01X37015358Y-19553894D01*
G01X37019875Y-19567008D01*
G01X37022740Y-19574952D01*
G01X37023742Y-19577623D01*
G01X37023742Y-19577623D01*
G01X37023742Y-19577623D01*
G01X37059304Y-19638560D01*
G01X37110242Y-19675123D01*
G01X37155929Y-19692935D01*
G01X37175742Y-19697623D01*
G01X37175742Y-19697623D01*
G01X37175742Y-19697623D01*
G01X37253784Y-19700202D01*
G01X37320651Y-19687843D01*
G01X37370976Y-19670001D01*
G01X37399394Y-19656132D01*
G01X37403742Y-19653623D01*
G01X37403742Y-19653623D01*
G01X37423742Y-19631623D01*
G01X37423742Y-19631623D01*
G01X37431738Y-19578216D01*
G01X37431742Y-19577623D01*
G01X37431742Y-19577623D01*
G01X37424357Y-19519932D01*
G01X37423742Y-19517623D01*
G01X37423742Y-19517623D01*
G01X37398253Y-19441293D01*
G01X37376790Y-19362747D01*
G01X37359059Y-19282646D01*
G01X37344766Y-19201655D01*
G01X37333617Y-19120435D01*
G01X37325318Y-19039651D01*
G01X37319575Y-18959964D01*
G01X37316094Y-18882039D01*
G01X37314581Y-18806537D01*
G01X37314742Y-18734123D01*
G01X37316283Y-18665458D01*
G01X37318910Y-18601207D01*
G01X37322329Y-18542031D01*
G01X37326246Y-18488595D01*
G01X37330367Y-18441560D01*
G01X37334398Y-18401591D01*
G01X37338045Y-18369349D01*
G01X37341014Y-18345499D01*
G01X37343011Y-18330702D01*
G01X37343742Y-18325623D01*
G01X37343742Y-18325623D01*
G01X37343742Y-18325623D01*
G01X37382622Y-18306903D01*
G01X37403742Y-18321623D01*
G01X37403742Y-18321623D01*
G01X37442804Y-18363894D01*
G01X37443742Y-18365623D01*
G01X37443742Y-18365623D01*
G01X37479450Y-18426845D01*
G01X37514443Y-18490451D01*
G01X37548523Y-18555626D01*
G01X37581494Y-18621556D01*
G01X37613158Y-18687427D01*
G01X37643319Y-18752425D01*
G01X37671780Y-18815737D01*
G01X37698343Y-18876549D01*
G01X37722812Y-18934046D01*
G01X37744990Y-18987415D01*
G01X37764679Y-19035842D01*
G01X37781683Y-19078513D01*
G01X37795805Y-19114614D01*
G01X37806848Y-19143331D01*
G01X37814614Y-19163851D01*
G01X37818907Y-19175359D01*
G01X37819742Y-19177623D01*
G01X37819742Y-19177623D01*
G01X37862260Y-19235125D01*
G01X37915702Y-19277334D01*
G01X37967174Y-19305360D01*
G01X38003787Y-19320315D01*
G01X38013742Y-19323623D01*
G01X38013742Y-19323623D01*
G01X38094833Y-19332627D01*
G01X38158518Y-19316277D01*
G01X38203798Y-19288910D01*
G01X38229672Y-19264860D01*
G01X38235742Y-19257623D01*
G01X38235742Y-19257623D01*
G01X38254194Y-19202311D01*
G01X38264052Y-19136929D01*
G01X38267266Y-19067223D01*
G01X38265787Y-18998941D01*
G01X38261566Y-18937829D01*
G01X38256555Y-18889636D01*
G01X38252703Y-18860109D01*
G01X38251742Y-18853623D01*
G01X38251742Y-18853623D01*
G01X38239634Y-18758553D01*
G01X38234024Y-18675054D01*
G01X38233460Y-18603291D01*
G01X38236490Y-18543431D01*
G01X38241662Y-18495639D01*
G01X38247526Y-18460081D01*
G01X38252629Y-18436924D01*
G01X38255521Y-18426332D01*
G01X38255742Y-18425623D01*
G01X38255742Y-18425623D01*
G01X38282410Y-18473939D01*
G01X38312181Y-18532215D01*
G01X38343148Y-18595724D01*
G01X38373403Y-18659737D01*
G01X38401038Y-18719527D01*
G01X38424146Y-18770366D01*
G01X38440819Y-18807526D01*
G01X38449149Y-18826279D01*
G01X38449742Y-18827623D01*
G01X38449742Y-18827623D01*
G01X38490145Y-18916845D01*
G01X38527843Y-18995743D01*
G01X38562309Y-19064299D01*
G01X38593016Y-19122499D01*
G01X38619436Y-19170325D01*
G01X38641043Y-19207762D01*
G01X38657310Y-19234794D01*
G01X38667709Y-19251405D01*
G01X38671713Y-19257580D01*
G01X38671742Y-19257623D01*
G01X38671742Y-19257623D01*
G01X38723991Y-19305448D01*
G01X38782881Y-19331766D01*
G01X38834102Y-19343001D01*
G01X38863346Y-19345578D01*
G01X38865742Y-19345623D01*
G01X38865742Y-19345623D01*
G01X38949098Y-19330870D01*
G01X39000444Y-19298984D01*
G01X39025897Y-19268526D01*
G01X39031742Y-19257623D01*
G01X39031742Y-19257623D01*
G01X39050355Y-19200259D01*
G01X39064379Y-19136132D01*
G01X39074455Y-19068787D01*
G01X39081219Y-19001771D01*
G01X39085312Y-18938628D01*
G01X39087372Y-18882905D01*
G01X39088038Y-18838148D01*
G01X39087949Y-18807902D01*
G01X39087744Y-18795713D01*
G01X39087742Y-18795623D01*
G01X39087742Y-18795623D01*
G01X39085785Y-18700199D01*
G01X39085025Y-18613643D01*
G01X39085206Y-18536546D01*
G01X39086072Y-18469498D01*
G01X39087368Y-18413089D01*
G01X39088838Y-18367913D01*
G01X39090227Y-18334558D01*
G01X39091279Y-18313616D01*
G01X39091738Y-18305679D01*
G01X39091742Y-18305623D01*
G37*
G36*
G01X36623742Y-19165623D02*
G01X36623742Y-19165623D01*
G01X36623183Y-19086725D01*
G01X36609940Y-19027824D01*
G01X36595821Y-18993173D01*
G01X36591742Y-18985623D01*
G01X36591742Y-18985623D01*
G01X36542628Y-18928652D01*
G01X36496781Y-18897426D01*
G01X36475763Y-18887631D01*
G01X36475742Y-18887623D01*
G01X36475742Y-18887623D01*
G01X36405011Y-18871481D01*
G01X36348027Y-18868499D01*
G01X36323766Y-18869620D01*
G01X36323742Y-18869623D01*
G01X36323742Y-18869623D01*
G01X36249348Y-18886163D01*
G01X36203446Y-18906560D01*
G01X36191742Y-18913623D01*
G01X36191742Y-18913623D01*
G01X36150698Y-18958400D01*
G01X36125362Y-19019674D01*
G01X36111947Y-19083616D01*
G01X36106668Y-19136399D01*
G01X36105738Y-19164195D01*
G01X36105742Y-19165623D01*
G01X36105742Y-19165623D01*
G01X36115823Y-19255087D01*
G01X36139350Y-19324583D01*
G01X36169306Y-19375643D01*
G01X36198677Y-19409800D01*
G01X36220445Y-19428587D01*
G01X36227742Y-19433623D01*
G01X36227742Y-19433623D01*
G01X36305685Y-19463096D01*
G01X36373582Y-19467236D01*
G01X36428772Y-19455699D01*
G01X36468598Y-19438143D01*
G01X36490398Y-19424227D01*
G01X36493742Y-19421623D01*
G01X36493742Y-19421623D01*
G01X36546255Y-19364868D01*
G01X36582585Y-19303510D01*
G01X36605604Y-19245387D01*
G01X36618179Y-19198337D01*
G01X36623180Y-19170199D01*
G01X36623742Y-19165623D01*
G37*
G36*
G01X36051742Y-18449623D02*
G01X36051742Y-18449623D01*
G01X36032707Y-18361235D01*
G01X36007288Y-18278659D01*
G01X35976936Y-18202178D01*
G01X35943100Y-18132074D01*
G01X35907230Y-18068631D01*
G01X35870777Y-18012130D01*
G01X35835190Y-17962855D01*
G01X35801919Y-17921087D01*
G01X35772414Y-17887110D01*
G01X35748126Y-17861207D01*
G01X35730504Y-17843659D01*
G01X35720998Y-17834750D01*
G01X35719742Y-17833623D01*
G01X35719742Y-17833623D01*
G01X35677328Y-17794834D01*
G01X35653742Y-17773623D01*
G01X35653742Y-17773623D01*
G01X35594326Y-17720531D01*
G01X35579742Y-17707623D01*
G01X35579742Y-17707623D01*
G01X35533947Y-17669231D01*
G01X35507742Y-17647623D01*
G01X35507742Y-17647623D01*
G01X35446742Y-17599373D01*
G01X35427742Y-17585623D01*
G01X35427742Y-17585623D01*
G01X35427742Y-17585623D01*
G01X35375845Y-17552144D01*
G01X35349742Y-17535623D01*
G01X35349742Y-17535623D01*
G01X35284754Y-17500083D01*
G01X35263742Y-17491623D01*
G01X35263742Y-17491623D01*
G01X35202862Y-17472749D01*
G01X35179742Y-17465623D01*
G01X35179742Y-17465623D01*
G01X35110640Y-17451081D01*
G01X35089742Y-17449623D01*
G01X35089742Y-17449623D01*
G01X35024846Y-17454575D01*
G01X35003742Y-17457623D01*
G01X35003742Y-17457623D01*
G01X34937731Y-17475338D01*
G01X34911742Y-17485623D01*
G01X34911742Y-17485623D01*
G01X34861733Y-17532883D01*
G01X34851162Y-17590605D01*
G01X34857374Y-17633500D01*
G01X34859742Y-17641623D01*
G01X34859742Y-17641623D01*
G01X34892742Y-17713123D01*
G01X34930242Y-17765123D01*
G01X34960992Y-17796873D01*
G01X34973742Y-17807623D01*
G01X34973742Y-17807623D01*
G01X34973742Y-17807623D01*
G01X35032256Y-17845593D01*
G01X35092275Y-17877616D01*
G01X35141972Y-17900916D01*
G01X35169521Y-17912721D01*
G01X35171742Y-17913623D01*
G01X35171742Y-17913623D01*
G01X35248935Y-17947519D01*
G01X35306830Y-17977434D01*
G01X35344100Y-17999387D01*
G01X35359417Y-18009395D01*
G01X35359742Y-18009623D01*
G01X35359742Y-18009623D01*
G01X35433050Y-18071565D01*
G01X35493906Y-18133466D01*
G01X35543462Y-18194119D01*
G01X35582875Y-18252317D01*
G01X35613299Y-18306852D01*
G01X35635888Y-18356518D01*
G01X35651798Y-18400107D01*
G01X35662183Y-18436411D01*
G01X35668198Y-18464224D01*
G01X35670998Y-18482339D01*
G01X35671737Y-18489547D01*
G01X35671742Y-18489623D01*
G01X35671742Y-18489623D01*
G01X35672575Y-18572971D01*
G01X35664494Y-18647664D01*
G01X35650344Y-18712753D01*
G01X35632974Y-18767288D01*
G01X35615231Y-18810320D01*
G01X35599962Y-18840900D01*
G01X35590015Y-18858079D01*
G01X35587742Y-18861623D01*
G01X35587742Y-18861623D01*
G01X35543988Y-18916095D01*
G01X35513114Y-18942623D01*
G01X35511742Y-18943623D01*
G01X35511742Y-18943623D01*
G01X35449971Y-18981282D01*
G01X35427742Y-18991623D01*
G01X35427742Y-18991623D01*
G01X35368513Y-19012194D01*
G01X35322666Y-19026724D01*
G01X35319742Y-19027623D01*
G01X35319742Y-19027623D01*
G01X35244705Y-19052170D01*
G01X35219877Y-19061565D01*
G01X35219742Y-19061623D01*
G01X35219742Y-19061623D01*
G01X35147033Y-19074293D01*
G01X35085189Y-19065005D01*
G01X35045075Y-19050294D01*
G01X35035742Y-19045623D01*
G01X35035742Y-19045623D01*
G01X34973381Y-19007688D01*
G01X34917737Y-18970122D01*
G01X34875525Y-18939640D01*
G01X34853461Y-18922958D01*
G01X34851742Y-18921623D01*
G01X34851742Y-18921623D01*
G01X34781073Y-18875731D01*
G01X34727488Y-18853398D01*
G01X34696784Y-18846192D01*
G01X34691742Y-18845623D01*
G01X34691742Y-18845623D01*
G01X34624565Y-18862678D01*
G01X34609742Y-18877623D01*
G01X34609742Y-18877623D01*
G01X34596565Y-18940402D01*
G01X34599742Y-18969623D01*
G01X34599742Y-18969623D01*
G01X34618146Y-19038218D01*
G01X34629553Y-19071134D01*
G01X34629742Y-19071623D01*
G01X34629742Y-19071623D01*
G01X34658788Y-19134022D01*
G01X34667742Y-19149623D01*
G01X34667742Y-19149623D01*
G01X34714401Y-19208705D01*
G01X34768510Y-19256980D01*
G01X34828704Y-19295392D01*
G01X34893622Y-19324883D01*
G01X34961898Y-19346399D01*
G01X35032170Y-19360881D01*
G01X35103075Y-19369274D01*
G01X35173249Y-19372521D01*
G01X35241328Y-19371565D01*
G01X35305950Y-19367351D01*
G01X35365751Y-19360821D01*
G01X35419367Y-19352918D01*
G01X35465435Y-19344588D01*
G01X35502592Y-19336772D01*
G01X35529474Y-19330415D01*
G01X35544718Y-19326459D01*
G01X35547742Y-19325623D01*
G01X35547742Y-19325623D01*
G01X35626402Y-19296999D01*
G01X35696782Y-19260791D01*
G01X35758882Y-19219495D01*
G01X35812702Y-19175607D01*
G01X35858242Y-19131623D01*
G01X35895502Y-19090039D01*
G01X35924482Y-19053351D01*
G01X35945182Y-19024055D01*
G01X35957602Y-19004647D01*
G01X35961742Y-18997623D01*
G01X35961742Y-18997623D01*
G01X35961742Y-18997623D01*
G01X35994653Y-18929656D01*
G01X36019547Y-18860701D01*
G01X36037450Y-18792299D01*
G01X36049383Y-18725988D01*
G01X36056370Y-18663309D01*
G01X36059436Y-18605800D01*
G01X36059603Y-18555003D01*
G01X36057895Y-18512456D01*
G01X36055335Y-18479698D01*
G01X36052948Y-18458271D01*
G01X36051756Y-18449712D01*
G01X36051742Y-18449623D01*
G37*
G36*
G01X34471742Y-18165623D02*
G01X34471742Y-18165623D01*
G01X34449944Y-18101843D01*
G01X34421928Y-18039845D01*
G01X34391922Y-17983561D01*
G01X34364152Y-17936923D01*
G01X34342846Y-17903863D01*
G01X34332230Y-17888313D01*
G01X34331742Y-17887623D01*
G01X34331742Y-17887623D01*
G01X34271654Y-17801649D01*
G01X34236725Y-17748991D01*
G01X34220321Y-17722184D01*
G01X34215805Y-17713763D01*
G01X34215742Y-17713623D01*
G01X34215742Y-17713623D01*
G01X34165995Y-17646799D01*
G01X34108844Y-17606196D01*
G01X34052830Y-17585376D01*
G01X34006488Y-17577899D01*
G01X33978358Y-17577327D01*
G01X33973742Y-17577623D01*
G01X33973742Y-17577623D01*
G01X33899253Y-17593470D01*
G01X33832714Y-17621458D01*
G01X33776238Y-17655295D01*
G01X33731941Y-17688690D01*
G01X33701934Y-17715351D01*
G01X33688332Y-17728986D01*
G01X33687742Y-17729623D01*
G01X33687742Y-17729623D01*
G01X33643153Y-17787578D01*
G01X33604397Y-17849735D01*
G01X33571434Y-17912694D01*
G01X33544221Y-17973054D01*
G01X33522718Y-18027415D01*
G01X33506883Y-18072375D01*
G01X33496674Y-18104534D01*
G01X33492049Y-18120492D01*
G01X33491742Y-18121623D01*
G01X33491742Y-18121623D01*
G01X33477426Y-18194255D01*
G01X33472603Y-18266365D01*
G01X33476136Y-18337427D01*
G01X33486890Y-18406918D01*
G01X33503730Y-18474315D01*
G01X33525521Y-18539094D01*
G01X33551127Y-18600731D01*
G01X33579414Y-18658704D01*
G01X33609245Y-18712487D01*
G01X33639486Y-18761559D01*
G01X33669001Y-18805394D01*
G01X33696655Y-18843471D01*
G01X33721313Y-18875264D01*
G01X33741839Y-18900250D01*
G01X33757098Y-18917907D01*
G01X33765955Y-18927709D01*
G01X33767742Y-18929623D01*
G01X33767742Y-18929623D01*
G01X33822517Y-18968934D01*
G01X33883845Y-18991822D01*
G01X33935469Y-19002600D01*
G01X33961131Y-19005581D01*
G01X33961742Y-19005623D01*
G01X33961742Y-19005623D01*
G01X34046287Y-19003144D01*
G01X34111064Y-18989937D01*
G01X34153585Y-18974629D01*
G01X34171360Y-18965846D01*
G01X34171742Y-18965623D01*
G01X34171742Y-18965623D01*
G01X34238786Y-18918497D01*
G01X34296140Y-18865786D01*
G01X34344134Y-18810891D01*
G01X34383102Y-18757212D01*
G01X34413374Y-18708151D01*
G01X34435283Y-18667107D01*
G01X34449160Y-18637482D01*
G01X34455337Y-18622677D01*
G01X34455742Y-18621623D01*
G01X34455742Y-18621623D01*
G01X34478237Y-18547732D01*
G01X34491454Y-18475177D01*
G01X34497150Y-18405874D01*
G01X34497081Y-18341740D01*
G01X34493004Y-18284693D01*
G01X34486677Y-18236647D01*
G01X34479857Y-18199521D01*
G01X34474299Y-18175230D01*
G01X34471762Y-18165692D01*
G01X34471742Y-18165623D01*
G37*
G36*
G01X33391742Y-18305623D02*
G01X33391742Y-18305623D01*
G01X33397322Y-18219264D01*
G01X33393978Y-18141817D01*
G01X33384348Y-18074282D01*
G01X33371067Y-18017663D01*
G01X33356772Y-17972959D01*
G01X33344100Y-17941174D01*
G01X33335686Y-17923310D01*
G01X33333742Y-17919623D01*
G01X33333742Y-17919623D01*
G01X33287435Y-17864086D01*
G01X33230584Y-17832269D01*
G01X33170196Y-17818460D01*
G01X33113278Y-17816951D01*
G01X33066836Y-17822029D01*
G01X33037876Y-17827985D01*
G01X33031742Y-17829623D01*
G01X33031742Y-17829623D01*
G01X32966213Y-17866833D01*
G01X32935707Y-17906470D01*
G01X32929742Y-17919623D01*
G01X32929742Y-17919623D01*
G01X32919419Y-17989474D01*
G01X32924016Y-18044993D01*
G01X32927742Y-18063623D01*
G01X32927742Y-18063623D01*
G01X32941629Y-18135211D01*
G01X32947998Y-18194172D01*
G01X32949707Y-18224419D01*
G01X32949742Y-18225623D01*
G01X32949742Y-18225623D01*
G01X32941050Y-18302332D01*
G01X32923464Y-18351259D01*
G01X32915742Y-18365623D01*
G01X32915742Y-18365623D01*
G01X32871054Y-18316685D01*
G01X32831242Y-18263623D01*
G01X32802679Y-18221060D01*
G01X32791742Y-18203623D01*
G01X32791742Y-18203623D01*
G01X32791742Y-18203623D01*
G01X32751317Y-18134728D01*
G01X32719334Y-18077343D01*
G01X32697255Y-18035993D01*
G01X32686538Y-18015204D01*
G01X32685742Y-18013623D01*
G01X32685742Y-18013623D01*
G01X32650523Y-17951935D01*
G01X32613992Y-17898123D01*
G01X32585336Y-17860060D01*
G01X32573742Y-17845623D01*
G01X32573742Y-17845623D01*
G01X32573742Y-17845623D01*
G01X32515331Y-17790297D01*
G01X32464898Y-17760524D01*
G01X32433243Y-17748927D01*
G01X32427742Y-17747623D01*
G01X32427742Y-17747623D01*
G01X32365944Y-17744994D01*
G01X32300386Y-17752512D01*
G01X32246661Y-17763043D01*
G01X32220364Y-17769455D01*
G01X32219742Y-17769623D01*
G01X32219742Y-17769623D01*
G01X32160387Y-17827217D01*
G01X32140136Y-17845301D01*
G01X32139742Y-17845623D01*
G01X32139742Y-17845623D01*
G01X32128897Y-17901634D01*
G01X32119219Y-17969085D01*
G01X32111878Y-18029579D01*
G01X32108041Y-18064718D01*
G01X32107742Y-18067623D01*
G01X32107742Y-18067623D01*
G01X32095990Y-18156825D01*
G01X32082671Y-18225277D01*
G01X32070453Y-18272868D01*
G01X32062003Y-18299487D01*
G01X32059742Y-18305623D01*
G01X32059742Y-18305623D01*
G01X32016772Y-18258600D01*
G01X31980774Y-18216141D01*
G01X31973742Y-18207623D01*
G01X31973742Y-18207623D01*
G01X31923865Y-18147351D01*
G01X31891408Y-18108909D01*
G01X31881742Y-18097623D01*
G01X31881742Y-18097623D01*
G01X31835918Y-18047299D01*
G01X31797798Y-18007784D01*
G01X31787742Y-17997623D01*
G01X31787742Y-17997623D01*
G01X31729656Y-17946344D01*
G01X31689444Y-17917636D01*
G01X31679742Y-17911623D01*
G01X31679742Y-17911623D01*
G01X31617854Y-17878951D01*
G01X31574398Y-17858567D01*
G01X31567742Y-17855623D01*
G01X31567742Y-17855623D01*
G01X31499075Y-17836875D01*
G01X31450559Y-17833404D01*
G01X31441742Y-17833623D01*
G01X31441742Y-17833623D01*
G01X31371768Y-17844848D01*
G01X31318964Y-17860179D01*
G01X31303742Y-17865623D01*
G01X31303742Y-17865623D01*
G01X31256679Y-17915048D01*
G01X31243742Y-17941623D01*
G01X31243742Y-17941623D01*
G01X31231198Y-18006007D01*
G01X31227870Y-18057335D01*
G01X31227742Y-18065623D01*
G01X31227742Y-18065623D01*
G01X31225742Y-18144123D01*
G01X31223742Y-18165623D01*
G01X31223742Y-18165623D01*
G01X31223742Y-18165623D01*
G01X31211381Y-18266444D01*
G01X31201996Y-18364359D01*
G01X31195377Y-18459265D01*
G01X31191315Y-18551059D01*
G01X31189598Y-18639639D01*
G01X31190016Y-18724900D01*
G01X31192359Y-18806741D01*
G01X31196416Y-18885059D01*
G01X31201976Y-18959749D01*
G01X31208830Y-19030711D01*
G01X31216767Y-19097840D01*
G01X31225576Y-19161034D01*
G01X31235047Y-19220189D01*
G01X31244970Y-19275204D01*
G01X31255134Y-19325975D01*
G01X31265329Y-19372399D01*
G01X31275344Y-19414373D01*
G01X31284968Y-19451794D01*
G01X31293993Y-19484560D01*
G01X31302206Y-19512567D01*
G01X31309398Y-19535712D01*
G01X31315358Y-19553894D01*
G01X31319875Y-19567008D01*
G01X31322740Y-19574952D01*
G01X31323742Y-19577623D01*
G01X31323742Y-19577623D01*
G01X31323742Y-19577623D01*
G01X31359304Y-19638560D01*
G01X31410242Y-19675123D01*
G01X31455929Y-19692935D01*
G01X31475742Y-19697623D01*
G01X31475742Y-19697623D01*
G01X31475742Y-19697623D01*
G01X31553784Y-19700202D01*
G01X31620651Y-19687843D01*
G01X31670976Y-19670001D01*
G01X31699394Y-19656132D01*
G01X31703742Y-19653623D01*
G01X31703742Y-19653623D01*
G01X31723742Y-19631623D01*
G01X31723742Y-19631623D01*
G01X31731738Y-19578216D01*
G01X31731742Y-19577623D01*
G01X31731742Y-19577623D01*
G01X31724357Y-19519932D01*
G01X31723742Y-19517623D01*
G01X31723742Y-19517623D01*
G01X31698253Y-19441293D01*
G01X31676790Y-19362747D01*
G01X31659059Y-19282646D01*
G01X31644766Y-19201655D01*
G01X31633617Y-19120435D01*
G01X31625318Y-19039651D01*
G01X31619575Y-18959964D01*
G01X31616094Y-18882039D01*
G01X31614581Y-18806537D01*
G01X31614742Y-18734123D01*
G01X31616283Y-18665458D01*
G01X31618910Y-18601207D01*
G01X31622329Y-18542031D01*
G01X31626246Y-18488595D01*
G01X31630367Y-18441560D01*
G01X31634398Y-18401591D01*
G01X31638045Y-18369349D01*
G01X31641014Y-18345499D01*
G01X31643011Y-18330702D01*
G01X31643742Y-18325623D01*
G01X31643742Y-18325623D01*
G01X31643742Y-18325623D01*
G01X31682622Y-18306903D01*
G01X31703742Y-18321623D01*
G01X31703742Y-18321623D01*
G01X31742804Y-18363894D01*
G01X31743742Y-18365623D01*
G01X31743742Y-18365623D01*
G01X31779450Y-18426845D01*
G01X31814443Y-18490451D01*
G01X31848523Y-18555626D01*
G01X31881494Y-18621556D01*
G01X31913158Y-18687427D01*
G01X31943319Y-18752425D01*
G01X31971780Y-18815737D01*
G01X31998343Y-18876549D01*
G01X32022812Y-18934046D01*
G01X32044990Y-18987415D01*
G01X32064679Y-19035842D01*
G01X32081683Y-19078513D01*
G01X32095805Y-19114614D01*
G01X32106848Y-19143331D01*
G01X32114614Y-19163851D01*
G01X32118907Y-19175359D01*
G01X32119742Y-19177623D01*
G01X32119742Y-19177623D01*
G01X32162260Y-19235125D01*
G01X32215702Y-19277334D01*
G01X32267174Y-19305360D01*
G01X32303787Y-19320315D01*
G01X32313742Y-19323623D01*
G01X32313742Y-19323623D01*
G01X32394833Y-19332627D01*
G01X32458518Y-19316277D01*
G01X32503798Y-19288910D01*
G01X32529672Y-19264860D01*
G01X32535742Y-19257623D01*
G01X32535742Y-19257623D01*
G01X32554194Y-19202311D01*
G01X32564052Y-19136929D01*
G01X32567266Y-19067223D01*
G01X32565787Y-18998941D01*
G01X32561566Y-18937829D01*
G01X32556555Y-18889636D01*
G01X32552703Y-18860109D01*
G01X32551742Y-18853623D01*
G01X32551742Y-18853623D01*
G01X32539634Y-18758553D01*
G01X32534024Y-18675054D01*
G01X32533460Y-18603291D01*
G01X32536490Y-18543431D01*
G01X32541662Y-18495639D01*
G01X32547526Y-18460081D01*
G01X32552629Y-18436924D01*
G01X32555521Y-18426332D01*
G01X32555742Y-18425623D01*
G01X32555742Y-18425623D01*
G01X32582410Y-18473939D01*
G01X32612181Y-18532215D01*
G01X32643148Y-18595724D01*
G01X32673403Y-18659737D01*
G01X32701038Y-18719527D01*
G01X32724146Y-18770366D01*
G01X32740819Y-18807526D01*
G01X32749149Y-18826279D01*
G01X32749742Y-18827623D01*
G01X32749742Y-18827623D01*
G01X32790145Y-18916845D01*
G01X32827843Y-18995743D01*
G01X32862309Y-19064299D01*
G01X32893016Y-19122499D01*
G01X32919436Y-19170325D01*
G01X32941043Y-19207762D01*
G01X32957310Y-19234794D01*
G01X32967709Y-19251405D01*
G01X32971713Y-19257580D01*
G01X32971742Y-19257623D01*
G01X32971742Y-19257623D01*
G01X33023991Y-19305448D01*
G01X33082881Y-19331766D01*
G01X33134102Y-19343001D01*
G01X33163346Y-19345578D01*
G01X33165742Y-19345623D01*
G01X33165742Y-19345623D01*
G01X33249098Y-19330870D01*
G01X33300444Y-19298984D01*
G01X33325897Y-19268526D01*
G01X33331742Y-19257623D01*
G01X33331742Y-19257623D01*
G01X33350355Y-19200259D01*
G01X33364379Y-19136132D01*
G01X33374455Y-19068787D01*
G01X33381219Y-19001771D01*
G01X33385312Y-18938628D01*
G01X33387372Y-18882905D01*
G01X33388038Y-18838148D01*
G01X33387949Y-18807902D01*
G01X33387744Y-18795713D01*
G01X33387742Y-18795623D01*
G01X33387742Y-18795623D01*
G01X33385785Y-18700199D01*
G01X33385025Y-18613643D01*
G01X33385206Y-18536546D01*
G01X33386072Y-18469498D01*
G01X33387368Y-18413089D01*
G01X33388838Y-18367913D01*
G01X33390227Y-18334558D01*
G01X33391279Y-18313616D01*
G01X33391738Y-18305679D01*
G01X33391742Y-18305623D01*
G37*
G36*
G01X74540742Y-9232956D02*
G01X74540742Y-9232956D01*
G01X74524992Y-9241706D01*
G01X74524992Y-9241706D01*
G01X74507492Y-9262706D01*
G01X74507492Y-9262706D01*
G01X74491742Y-9281956D01*
G01X74491742Y-9281956D01*
G01X74438525Y-9297515D01*
G01X74437492Y-9297706D01*
G01X74437492Y-9297706D01*
G01X74386767Y-9302956D01*
G01X74386742Y-9302956D01*
G01X74386742Y-9302956D01*
G01X74331743Y-9301255D01*
G01X74330742Y-9301206D01*
G01X74330742Y-9301206D01*
G01X74281742Y-9299456D01*
G01X74281742Y-9299456D01*
G01X74219952Y-9294381D01*
G01X74156485Y-9284661D01*
G01X74122994Y-9278554D01*
G01X74122492Y-9278456D01*
G01X74122492Y-9278456D01*
G01X74042833Y-9265625D01*
G01X73981063Y-9259500D01*
G01X73943588Y-9257600D01*
G01X73935242Y-9257456D01*
G01X73935242Y-9257456D01*
G01X73861928Y-9268720D01*
G01X73812259Y-9289306D01*
G01X73795242Y-9299456D01*
G01X73795242Y-9299456D01*
G01X73736648Y-9347525D01*
G01X73688324Y-9401768D01*
G01X73649302Y-9459539D01*
G01X73618618Y-9518192D01*
G01X73595304Y-9575081D01*
G01X73578396Y-9627560D01*
G01X73566926Y-9672983D01*
G01X73559930Y-9708704D01*
G01X73556440Y-9732077D01*
G01X73555492Y-9740456D01*
G01X73555492Y-9740456D01*
G01X73555492Y-9740456D01*
G01X73553180Y-9826206D01*
G01X73560518Y-9906496D01*
G01X73575290Y-9980486D01*
G01X73595280Y-10047336D01*
G01X73618273Y-10106206D01*
G01X73642054Y-10156256D01*
G01X73664407Y-10196646D01*
G01X73683116Y-10226536D01*
G01X73695966Y-10245086D01*
G01X73700742Y-10251456D01*
G01X73700742Y-10251456D01*
G01X73700742Y-10251456D01*
G01X73758729Y-10275795D01*
G01X73799297Y-10262631D01*
G01X73800492Y-10261956D01*
G01X73800492Y-10261956D01*
G01X73850381Y-10211997D01*
G01X73873737Y-10161017D01*
G01X73879242Y-10139456D01*
G01X73879242Y-10139456D01*
G01X73877581Y-10084484D01*
G01X73867162Y-10018407D01*
G01X73854953Y-9960967D01*
G01X73847921Y-9931905D01*
G01X73847742Y-9931206D01*
G01X73847742Y-9931206D01*
G01X73831849Y-9843071D01*
G01X73830368Y-9775539D01*
G01X73836368Y-9729392D01*
G01X73842917Y-9705413D01*
G01X73844242Y-9701956D01*
G01X73844242Y-9701956D01*
G01X73889358Y-9647449D01*
G01X73941255Y-9620894D01*
G01X73972406Y-9612904D01*
G01X73973742Y-9612706D01*
G01X73973742Y-9612706D01*
G01X74048113Y-9608674D01*
G01X74110972Y-9612426D01*
G01X74151571Y-9617969D01*
G01X74160992Y-9619706D01*
G01X74160992Y-9619706D01*
G01X74233980Y-9625191D01*
G01X74295662Y-9617487D01*
G01X74335499Y-9607134D01*
G01X74344742Y-9603956D01*
G01X74344742Y-9603956D01*
G01X74369819Y-9667669D01*
G01X74381473Y-9729438D01*
G01X74384826Y-9768779D01*
G01X74384992Y-9773706D01*
G01X74384992Y-9773706D01*
G01X74383745Y-9853818D01*
G01X74379371Y-9915621D01*
G01X74375325Y-9951510D01*
G01X74374492Y-9957456D01*
G01X74374492Y-9957456D01*
G01X74373871Y-10029523D01*
G01X74385409Y-10086817D01*
G01X74395030Y-10115575D01*
G01X74395492Y-10116706D01*
G01X74395492Y-10116706D01*
G01X74436074Y-10175106D01*
G01X74484772Y-10213452D01*
G01X74518793Y-10232000D01*
G01X74523242Y-10233956D01*
G01X74523242Y-10233956D01*
G01X74580762Y-10185774D01*
G01X74615688Y-10131543D01*
G01X74633243Y-10085780D01*
G01X74638654Y-10062999D01*
G01X74638742Y-10062456D01*
G01X74638742Y-10062456D01*
G01X74648371Y-9986805D01*
G01X74654605Y-9917680D01*
G01X74658115Y-9863130D01*
G01X74659573Y-9831205D01*
G01X74659742Y-9826206D01*
G01X74659742Y-9826206D01*
G01X74671923Y-9743015D01*
G01X74694254Y-9687816D01*
G01X74713921Y-9658750D01*
G01X74719242Y-9652956D01*
G01X74719242Y-9652956D01*
G01X74776527Y-9618468D01*
G01X74825188Y-9602601D01*
G01X74834742Y-9600456D01*
G01X74834742Y-9600456D01*
G01X74911103Y-9589973D01*
G01X74952622Y-9588138D01*
G01X74957242Y-9588206D01*
G01X74957242Y-9588206D01*
G01X75016562Y-9592583D01*
G01X75081694Y-9599332D01*
G01X75120107Y-9603759D01*
G01X75121742Y-9603956D01*
G01X75121742Y-9603956D01*
G01X75213412Y-9615097D01*
G01X75256075Y-9620322D01*
G01X75265242Y-9621456D01*
G01X75265242Y-9621456D01*
G01X75272373Y-9697107D01*
G01X75269625Y-9766232D01*
G01X75262365Y-9820782D01*
G01X75255958Y-9852707D01*
G01X75254742Y-9857706D01*
G01X75254742Y-9857706D01*
G01X75235072Y-9924302D01*
G01X75212367Y-9989722D01*
G01X75190056Y-10048024D01*
G01X75171570Y-10093270D01*
G01X75160336Y-10119518D01*
G01X75158492Y-10123706D01*
G01X75158492Y-10123706D01*
G01X75123277Y-10206501D01*
G01X75098374Y-10271288D01*
G01X75082519Y-10317193D01*
G01X75074448Y-10343338D01*
G01X75072742Y-10349456D01*
G01X75072742Y-10349456D01*
G01X75094949Y-10400136D01*
G01X75104242Y-10412456D01*
G01X75104242Y-10412456D01*
G01X75179924Y-10421560D01*
G01X75233606Y-10412941D01*
G01X75254722Y-10405465D01*
G01X75254742Y-10405456D01*
G01X75254742Y-10405456D01*
G01X75310868Y-10361898D01*
G01X75341398Y-10317183D01*
G01X75349242Y-10300456D01*
G01X75349242Y-10300456D01*
G01X75369947Y-10242742D01*
G01X75393889Y-10180428D01*
G01X75412947Y-10132338D01*
G01X75419242Y-10116706D01*
G01X75419242Y-10116706D01*
G01X75451672Y-10035413D01*
G01X75475242Y-9974300D01*
G01X75489625Y-9935827D01*
G01X75494492Y-9922456D01*
G01X75494492Y-9922456D01*
G01X75494492Y-9922456D01*
G01X75514296Y-9858405D01*
G01X75529944Y-9796344D01*
G01X75539576Y-9752807D01*
G01X75541742Y-9742206D01*
G01X75541742Y-9742206D01*
G01X75553336Y-9665726D01*
G01X75558367Y-9601550D01*
G01X75559461Y-9557390D01*
G01X75559242Y-9540956D01*
G01X75559242Y-9540956D01*
G01X75559242Y-9540956D01*
G01X75554791Y-9479659D01*
G01X75553992Y-9458706D01*
G01X75553992Y-9458706D01*
G01X75545169Y-9387304D01*
G01X75539992Y-9369456D01*
G01X75539992Y-9369456D01*
G01X75496838Y-9332044D01*
G01X75492742Y-9330956D01*
G01X75492742Y-9330956D01*
G01X75435573Y-9317180D01*
G01X75371096Y-9308029D01*
G01X75304249Y-9302626D01*
G01X75239967Y-9300093D01*
G01X75183188Y-9299555D01*
G01X75138849Y-9300135D01*
G01X75111885Y-9300957D01*
G01X75105992Y-9301206D01*
G01X75105992Y-9301206D01*
G01X75013178Y-9303931D01*
G01X74932770Y-9303211D01*
G01X74864929Y-9300039D01*
G01X74809817Y-9295407D01*
G01X74767594Y-9290306D01*
G01X74738423Y-9285729D01*
G01X74722465Y-9282667D01*
G01X74719242Y-9281956D01*
G01X74719242Y-9281956D01*
G01X74667785Y-9255225D01*
G01X74663242Y-9252206D01*
G01X74663242Y-9252206D01*
G01X74607625Y-9221937D01*
G01X74603742Y-9220706D01*
G01X74603742Y-9220706D01*
G01X74546641Y-9230669D01*
G01X74540742Y-9232956D01*
G37*
G36*
G01X74544242Y-10506956D02*
G01X74544242Y-10506956D01*
G01X74484759Y-10520195D01*
G01X74454992Y-10527956D01*
G01X74454992Y-10527956D01*
G01X74381856Y-10546530D01*
G01X74355284Y-10552448D01*
G01X74355242Y-10552456D01*
G01X74355242Y-10552456D01*
G01X74298738Y-10552708D01*
G01X74230810Y-10550272D01*
G01X74165234Y-10546660D01*
G01X74115786Y-10543384D01*
G01X74096242Y-10541956D01*
G01X74096242Y-10541956D01*
G01X74096242Y-10541956D01*
G01X74008487Y-10536768D01*
G01X73932305Y-10534797D01*
G01X73869863Y-10535011D01*
G01X73823328Y-10536377D01*
G01X73794867Y-10537865D01*
G01X73786492Y-10538456D01*
G01X73786492Y-10538456D01*
G01X73709781Y-10550549D01*
G01X73643660Y-10569578D01*
G01X73592699Y-10589515D01*
G01X73561469Y-10604331D01*
G01X73553742Y-10608456D01*
G01X73553742Y-10608456D01*
G01X73509462Y-10657010D01*
G01X73488897Y-10711236D01*
G01X73483745Y-10737928D01*
G01X73483742Y-10737956D01*
G01X73483742Y-10737956D01*
G01X73484859Y-10811386D01*
G01X73497779Y-10872247D01*
G01X73511342Y-10911032D01*
G01X73515242Y-10919956D01*
G01X73515242Y-10919956D01*
G01X73580425Y-10977176D01*
G01X73634281Y-11000216D01*
G01X73667129Y-11004289D01*
G01X73672742Y-11003956D01*
G01X73672742Y-11003956D01*
G01X73734097Y-10991159D01*
G01X73798242Y-10975819D01*
G01X73840594Y-10965107D01*
G01X73845992Y-10963706D01*
G01X73845992Y-10963706D01*
G01X73925970Y-10943371D01*
G01X73986116Y-10928899D01*
G01X74022924Y-10920474D01*
G01X74033242Y-10918206D01*
G01X74033242Y-10918206D01*
G01X74101565Y-10908614D01*
G01X74162140Y-10905732D01*
G01X74196821Y-10905874D01*
G01X74199492Y-10905956D01*
G01X74199492Y-10905956D01*
G01X74275549Y-10916572D01*
G01X74331666Y-10934180D01*
G01X74360189Y-10946875D01*
G01X74362242Y-10947956D01*
G01X74362242Y-10947956D01*
G01X74399164Y-10996189D01*
G01X74422651Y-11057462D01*
G01X74434086Y-11103654D01*
G01X74435742Y-11112456D01*
G01X74435742Y-11112456D01*
G01X74436687Y-11201286D01*
G01X74416842Y-11248536D01*
G01X74398887Y-11265546D01*
G01X74397242Y-11266456D01*
G01X74397242Y-11266456D01*
G01X74335920Y-11284142D01*
G01X74267297Y-11296802D01*
G01X74196496Y-11305267D01*
G01X74128636Y-11310368D01*
G01X74068840Y-11312934D01*
G01X74022228Y-11313798D01*
G01X73993923Y-11313788D01*
G01X73987742Y-11313706D01*
G01X73987742Y-11313706D01*
G01X73896615Y-11312729D01*
G01X73815140Y-11313301D01*
G01X73743899Y-11315003D01*
G01X73683471Y-11317420D01*
G01X73634438Y-11320132D01*
G01X73597380Y-11322724D01*
G01X73572877Y-11324777D01*
G01X73561511Y-11325875D01*
G01X73560742Y-11325956D01*
G01X73560742Y-11325956D01*
G01X73493999Y-11356113D01*
G01X73456338Y-11396562D01*
G01X73445242Y-11415206D01*
G01X73445242Y-11415206D01*
G01X73424336Y-11486999D01*
G01X73421863Y-11542567D01*
G01X73424238Y-11565684D01*
G01X73424242Y-11565706D01*
G01X73424242Y-11565706D01*
G01X73455038Y-11635330D01*
G01X73484591Y-11660630D01*
G01X73487242Y-11661956D01*
G01X73487242Y-11661956D01*
G01X73575236Y-11683099D01*
G01X73650371Y-11697103D01*
G01X73711615Y-11705429D01*
G01X73757934Y-11709541D01*
G01X73788298Y-11710900D01*
G01X73801673Y-11710969D01*
G01X73802242Y-11710956D01*
G01X73802242Y-11710956D01*
G01X73865118Y-11707970D01*
G01X73934574Y-11703059D01*
G01X74003213Y-11697255D01*
G01X74063637Y-11691592D01*
G01X74108450Y-11687100D01*
G01X74130253Y-11684813D01*
G01X74131242Y-11684706D01*
G01X74131242Y-11684706D01*
G01X74224938Y-11675920D01*
G01X74303969Y-11670801D01*
G01X74367646Y-11668445D01*
G01X74415281Y-11667949D01*
G01X74446186Y-11668410D01*
G01X74459673Y-11668925D01*
G01X74460242Y-11668956D01*
G01X74460242Y-11668956D01*
G01X74510554Y-11698269D01*
G01X74542492Y-11724956D01*
G01X74542492Y-11724956D01*
G01X74542492Y-11724956D01*
G01X74605902Y-11771109D01*
G01X74637112Y-11784087D01*
G01X74638742Y-11784456D01*
G01X74638742Y-11784456D01*
G01X74695287Y-11761410D01*
G01X74706992Y-11751206D01*
G01X74706992Y-11751206D01*
G01X74752997Y-11711539D01*
G01X74754242Y-11710956D01*
G01X74754242Y-11710956D01*
G01X74810879Y-11703137D01*
G01X74873858Y-11700064D01*
G01X74940281Y-11700813D01*
G01X75007250Y-11704460D01*
G01X75071867Y-11710081D01*
G01X75131234Y-11716752D01*
G01X75182453Y-11723549D01*
G01X75222626Y-11729548D01*
G01X75248855Y-11733825D01*
G01X75258242Y-11735456D01*
G01X75258242Y-11735456D01*
G01X75258242Y-11735456D01*
G01X75367628Y-11754408D01*
G01X75459584Y-11768837D01*
G01X75535125Y-11779359D01*
G01X75595269Y-11786590D01*
G01X75641030Y-11791148D01*
G01X75673425Y-11793650D01*
G01X75693470Y-11794712D01*
G01X75702181Y-11794952D01*
G01X75702742Y-11794956D01*
G01X75702742Y-11794956D01*
G01X75711166Y-11712391D01*
G01X75704995Y-11646515D01*
G01X75692502Y-11599788D01*
G01X75681961Y-11574670D01*
G01X75679992Y-11570956D01*
G01X75679992Y-11570956D01*
G01X75634755Y-11516278D01*
G01X75582091Y-11477664D01*
G01X75536951Y-11454242D01*
G01X75514285Y-11445142D01*
G01X75513742Y-11444956D01*
G01X75513742Y-11444956D01*
G01X75441449Y-11423248D01*
G01X75374769Y-11406633D01*
G01X75320702Y-11395112D01*
G01X75286249Y-11388684D01*
G01X75277492Y-11387206D01*
G01X75277492Y-11387206D01*
G01X75206844Y-11376200D01*
G01X75137406Y-11365751D01*
G01X75076451Y-11356796D01*
G01X75031253Y-11350270D01*
G01X75009086Y-11347111D01*
G01X75007992Y-11346956D01*
G01X75007992Y-11346956D01*
G01X74919857Y-11332019D01*
G01X74852325Y-11316715D01*
G01X74806178Y-11303730D01*
G01X74782198Y-11295744D01*
G01X74778742Y-11294456D01*
G01X74778742Y-11294456D01*
G01X74720887Y-11253626D01*
G01X74693296Y-11208224D01*
G01X74687742Y-11192956D01*
G01X74687742Y-11192956D01*
G01X74677003Y-11119320D01*
G01X74679374Y-11065396D01*
G01X74682492Y-11045956D01*
G01X74682492Y-11045956D01*
G01X74711340Y-10976278D01*
G01X74726242Y-10961956D01*
G01X74726242Y-10961956D01*
G01X74767509Y-10938011D01*
G01X74823997Y-10924666D01*
G01X74888924Y-10919570D01*
G01X74955510Y-10920368D01*
G01X75016970Y-10924709D01*
G01X75066523Y-10930238D01*
G01X75097388Y-10934603D01*
G01X75104242Y-10935706D01*
G01X75104242Y-10935706D01*
G01X75204151Y-10950063D01*
G01X75289944Y-10957574D01*
G01X75362020Y-10959708D01*
G01X75420778Y-10957934D01*
G01X75466618Y-10953724D01*
G01X75499938Y-10948546D01*
G01X75521139Y-10943870D01*
G01X75530618Y-10941165D01*
G01X75531242Y-10940956D01*
G01X75531242Y-10940956D01*
G01X75525855Y-10857388D01*
G01X75510314Y-10791928D01*
G01X75492796Y-10747131D01*
G01X75481476Y-10725551D01*
G01X75480492Y-10723956D01*
G01X75480492Y-10723956D01*
G01X75430916Y-10668421D01*
G01X75377521Y-10631624D01*
G01X75336363Y-10611720D01*
G01X75322992Y-10606706D01*
G01X75322992Y-10606706D01*
G01X75248262Y-10585843D01*
G01X75184523Y-10572362D01*
G01X75140144Y-10565116D01*
G01X75123492Y-10562956D01*
G01X75123492Y-10562956D01*
G01X75123492Y-10562956D01*
G01X75056222Y-10557005D01*
G01X74988839Y-10552864D01*
G01X74932414Y-10550307D01*
G01X74898014Y-10549113D01*
G01X74892492Y-10548956D01*
G01X74892492Y-10548956D01*
G01X74801784Y-10545114D01*
G01X74739255Y-10540278D01*
G01X74703983Y-10536294D01*
G01X74694742Y-10534956D01*
G01X74694742Y-10534956D01*
G01X74635677Y-10521551D01*
G01X74619492Y-10517456D01*
G01X74619492Y-10517456D01*
G01X74552006Y-10506568D01*
G01X74544242Y-10506956D01*
G37*
G36*
G01X73980742Y-11889456D02*
G01X73980742Y-11889456D01*
G01X73917094Y-11922095D01*
G01X73870709Y-11966831D01*
G01X73841077Y-12009101D01*
G01X73827686Y-12034341D01*
G01X73826742Y-12036456D01*
G01X73826742Y-12036456D01*
G01X73812633Y-12113620D01*
G01X73829367Y-12170769D01*
G01X73855289Y-12206261D01*
G01X73868742Y-12218456D01*
G01X73868742Y-12218456D01*
G01X73868742Y-12218456D01*
G01X73932990Y-12248890D01*
G01X73997150Y-12265638D01*
G01X74049467Y-12272788D01*
G01X74078189Y-12274427D01*
G01X74080492Y-12274456D01*
G01X74080492Y-12274456D01*
G01X74158789Y-12271637D01*
G01X74226017Y-12265119D01*
G01X74276698Y-12257807D01*
G01X74305354Y-12252610D01*
G01X74309742Y-12251706D01*
G01X74309742Y-12251706D01*
G01X74378105Y-12243358D01*
G01X74444931Y-12244064D01*
G01X74501274Y-12249445D01*
G01X74538187Y-12255128D01*
G01X74547742Y-12256956D01*
G01X74547742Y-12256956D01*
G01X74609975Y-12269789D01*
G01X74661511Y-12278597D01*
G01X74668492Y-12279706D01*
G01X74668492Y-12279706D01*
G01X74746248Y-12293006D01*
G01X74787380Y-12301266D01*
G01X74792742Y-12302456D01*
G01X74792742Y-12302456D01*
G01X74856718Y-12322372D01*
G01X74897731Y-12338461D01*
G01X74899492Y-12339206D01*
G01X74899492Y-12339206D01*
G01X74963528Y-12373338D01*
G01X75001020Y-12399742D01*
G01X75006242Y-12403956D01*
G01X75006242Y-12403956D01*
G01X74958878Y-12440684D01*
G01X74902130Y-12476299D01*
G01X74841166Y-12509506D01*
G01X74781153Y-12539016D01*
G01X74727259Y-12563536D01*
G01X74684650Y-12581774D01*
G01X74658495Y-12592439D01*
G01X74652742Y-12594706D01*
G01X74652742Y-12594706D01*
G01X74563504Y-12631141D01*
G01X74489097Y-12664862D01*
G01X74428738Y-12695109D01*
G01X74381641Y-12721120D01*
G01X74347022Y-12742135D01*
G01X74324097Y-12757391D01*
G01X74312082Y-12766127D01*
G01X74309742Y-12767956D01*
G01X74309742Y-12767956D01*
G01X74250541Y-12830109D01*
G01X74217557Y-12886219D01*
G01X74203125Y-12929131D01*
G01X74199579Y-12951692D01*
G01X74199492Y-12953456D01*
G01X74199492Y-12953456D01*
G01X74212827Y-13022571D01*
G01X74243382Y-13078314D01*
G01X74272886Y-13114409D01*
G01X74283492Y-13124956D01*
G01X74283492Y-13124956D01*
G01X74341559Y-13172571D01*
G01X74397278Y-13212136D01*
G01X74442712Y-13241192D01*
G01X74469921Y-13257278D01*
G01X74474242Y-13259706D01*
G01X74474242Y-13259706D01*
G01X74540614Y-13293364D01*
G01X74602763Y-13320858D01*
G01X74653688Y-13341119D01*
G01X74686388Y-13353078D01*
G01X74694742Y-13355956D01*
G01X74694742Y-13355956D01*
G01X74741992Y-13369956D01*
G01X74741992Y-13369956D01*
G01X74789884Y-13400485D01*
G01X74790992Y-13401456D01*
G01X74790992Y-13401456D01*
G01X74803242Y-13429456D01*
G01X74803242Y-13429456D01*
G01X74740471Y-13472772D01*
G01X74676850Y-13504027D01*
G01X74619871Y-13524805D01*
G01X74577023Y-13536690D01*
G01X74555795Y-13541268D01*
G01X74554742Y-13541456D01*
G01X74554742Y-13541456D01*
G01X74475421Y-13550950D01*
G01X74404121Y-13553324D01*
G01X74345450Y-13551318D01*
G01X74304019Y-13547666D01*
G01X74284436Y-13545105D01*
G01X74283492Y-13544956D01*
G01X74283492Y-13544956D01*
G01X74213007Y-13535086D01*
G01X74143726Y-13527910D01*
G01X74081956Y-13523061D01*
G01X74034006Y-13520171D01*
G01X74006182Y-13518874D01*
G01X74001742Y-13518706D01*
G01X74001742Y-13518706D01*
G01X73921875Y-13518446D01*
G01X73850881Y-13522072D01*
G01X73792188Y-13527684D01*
G01X73749226Y-13533385D01*
G01X73725424Y-13537275D01*
G01X73721742Y-13537956D01*
G01X73721742Y-13537956D01*
G01X73671986Y-13580904D01*
G01X73639708Y-13630066D01*
G01X73628992Y-13651706D01*
G01X73628992Y-13651706D01*
G01X73613133Y-13727822D01*
G01X73622642Y-13777113D01*
G01X73630742Y-13793456D01*
G01X73630742Y-13793456D01*
G01X73683248Y-13843355D01*
G01X73735622Y-13876065D01*
G01X73771269Y-13892508D01*
G01X73777742Y-13894956D01*
G01X73777742Y-13894956D01*
G01X73854858Y-13916108D01*
G01X73911107Y-13924728D01*
G01X73937730Y-13926445D01*
G01X73938742Y-13926456D01*
G01X73938742Y-13926456D01*
G01X74000913Y-13924696D01*
G01X74065924Y-13920891D01*
G01X74115318Y-13917257D01*
G01X74131242Y-13915956D01*
G01X74131242Y-13915956D01*
G01X74218732Y-13909375D01*
G01X74276323Y-13906351D01*
G01X74305398Y-13905499D01*
G01X74309742Y-13905456D01*
G01X74309742Y-13905456D01*
G01X74379504Y-13903396D01*
G01X74450005Y-13897619D01*
G01X74520337Y-13888731D01*
G01X74589592Y-13877336D01*
G01X74656864Y-13864039D01*
G01X74721244Y-13849446D01*
G01X74781826Y-13834161D01*
G01X74837700Y-13818790D01*
G01X74887960Y-13803937D01*
G01X74931699Y-13790208D01*
G01X74968008Y-13778208D01*
G01X74995980Y-13768541D01*
G01X75014708Y-13761814D01*
G01X75023284Y-13758630D01*
G01X75023742Y-13758456D01*
G01X75023742Y-13758456D01*
G01X75112166Y-13708224D01*
G01X75174214Y-13667400D01*
G01X75213750Y-13636992D01*
G01X75234638Y-13618008D01*
G01X75240742Y-13611456D01*
G01X75240742Y-13611456D01*
G01X75240742Y-13611456D01*
G01X75282802Y-13544150D01*
G01X75301165Y-13492069D01*
G01X75305464Y-13468288D01*
G01X75305492Y-13467956D01*
G01X75305492Y-13467956D01*
G01X75296472Y-13395959D01*
G01X75276262Y-13349556D01*
G01X75270492Y-13340206D01*
G01X75270492Y-13340206D01*
G01X75223729Y-13284150D01*
G01X75184423Y-13246928D01*
G01X75172492Y-13236956D01*
G01X75172492Y-13236956D01*
G01X75113381Y-13195330D01*
G01X75063224Y-13165070D01*
G01X75041264Y-13152968D01*
G01X75041242Y-13152956D01*
G01X75041242Y-13152956D01*
G01X74952760Y-13107114D01*
G01X74876192Y-13065639D01*
G01X74811358Y-13028966D01*
G01X74758075Y-12997531D01*
G01X74716162Y-12971768D01*
G01X74685438Y-12952114D01*
G01X74665722Y-12939004D01*
G01X74656831Y-12932873D01*
G01X74656242Y-12932456D01*
G01X74656242Y-12932456D01*
G01X74709313Y-12897831D01*
G01X74767727Y-12864984D01*
G01X74817942Y-12839025D01*
G01X74846418Y-12825063D01*
G01X74848742Y-12823956D01*
G01X74848742Y-12823956D01*
G01X74920604Y-12789460D01*
G01X74982638Y-12758828D01*
G01X75031316Y-12734244D01*
G01X75063110Y-12717892D01*
G01X75074492Y-12711956D01*
G01X75074492Y-12711956D01*
G01X75074492Y-12711956D01*
G01X75138614Y-12675697D01*
G01X75195510Y-12639946D01*
G01X75239477Y-12610293D01*
G01X75264814Y-12592329D01*
G01X75268742Y-12589456D01*
G01X75268742Y-12589456D01*
G01X75325273Y-12537540D01*
G01X75365307Y-12485035D01*
G01X75390121Y-12441907D01*
G01X75400994Y-12418119D01*
G01X75401742Y-12416206D01*
G01X75401742Y-12416206D01*
G01X75418069Y-12345908D01*
G01X75420552Y-12277937D01*
G01X75415677Y-12222245D01*
G01X75409927Y-12188781D01*
G01X75408742Y-12183456D01*
G01X75408742Y-12183456D01*
G01X75345926Y-12139972D01*
G01X75281591Y-12100562D01*
G01X75216687Y-12065083D01*
G01X75152167Y-12033391D01*
G01X75088980Y-12005341D01*
G01X75028078Y-11980790D01*
G01X74970411Y-11959594D01*
G01X74916929Y-11941608D01*
G01X74868585Y-11926688D01*
G01X74826328Y-11914691D01*
G01X74791109Y-11905472D01*
G01X74763880Y-11898888D01*
G01X74745591Y-11894793D01*
G01X74737192Y-11893045D01*
G01X74736742Y-11892956D01*
G01X74736742Y-11892956D01*
G01X74657492Y-11879557D01*
G01X74579019Y-11869938D01*
G01X74502103Y-11863659D01*
G01X74427520Y-11860281D01*
G01X74356049Y-11859364D01*
G01X74288467Y-11860468D01*
G01X74225553Y-11863156D01*
G01X74168085Y-11866987D01*
G01X74116840Y-11871521D01*
G01X74072596Y-11876321D01*
G01X74036131Y-11880945D01*
G01X74008224Y-11884955D01*
G01X73989652Y-11887911D01*
G01X73981193Y-11889374D01*
G01X73980742Y-11889456D01*
G37*
G36*
G01X75142742Y-13999956D02*
G01X75142742Y-13999956D01*
G01X75068152Y-13984223D01*
G01X74994635Y-13975550D01*
G01X74922656Y-13973134D01*
G01X74852684Y-13976171D01*
G01X74785185Y-13983860D01*
G01X74720628Y-13995396D01*
G01X74659478Y-14009977D01*
G01X74602204Y-14026801D01*
G01X74549272Y-14045064D01*
G01X74501150Y-14063964D01*
G01X74458305Y-14082697D01*
G01X74421203Y-14100462D01*
G01X74390314Y-14116454D01*
G01X74366102Y-14129871D01*
G01X74349036Y-14139911D01*
G01X74339584Y-14145769D01*
G01X74337742Y-14146956D01*
G01X74337742Y-14146956D01*
G01X74270835Y-14194742D01*
G01X74209821Y-14245589D01*
G01X74154467Y-14298704D01*
G01X74104543Y-14353294D01*
G01X74059817Y-14408564D01*
G01X74020059Y-14463720D01*
G01X73985035Y-14517969D01*
G01X73954517Y-14570518D01*
G01X73928270Y-14620571D01*
G01X73906066Y-14667336D01*
G01X73887672Y-14710019D01*
G01X73872856Y-14747825D01*
G01X73861389Y-14779961D01*
G01X73853037Y-14805634D01*
G01X73847570Y-14824049D01*
G01X73844757Y-14834412D01*
G01X73844242Y-14836456D01*
G01X73844242Y-14836456D01*
G01X73835259Y-14922311D01*
G01X73845410Y-14989598D01*
G01X73864191Y-15037344D01*
G01X73881103Y-15064577D01*
G01X73886242Y-15070956D01*
G01X73886242Y-15070956D01*
G01X73949957Y-15093124D01*
G01X73982026Y-15067338D01*
G01X73984242Y-15063956D01*
G01X73984242Y-15063956D01*
G01X73998242Y-15035956D01*
G01X73998242Y-15035956D01*
G01X74044832Y-14944559D01*
G01X74092851Y-14860823D01*
G01X74142017Y-14784416D01*
G01X74192046Y-14715001D01*
G01X74242654Y-14652244D01*
G01X74293558Y-14595811D01*
G01X74344474Y-14545367D01*
G01X74395118Y-14500576D01*
G01X74445207Y-14461106D01*
G01X74494458Y-14426620D01*
G01X74542586Y-14396785D01*
G01X74589309Y-14371265D01*
G01X74634342Y-14349726D01*
G01X74677402Y-14331833D01*
G01X74718206Y-14317252D01*
G01X74756469Y-14305648D01*
G01X74791909Y-14296686D01*
G01X74824242Y-14290032D01*
G01X74853183Y-14285351D01*
G01X74878450Y-14282308D01*
G01X74899759Y-14280569D01*
G01X74916826Y-14279799D01*
G01X74929368Y-14279663D01*
G01X74937101Y-14279827D01*
G01X74939742Y-14279956D01*
G01X74939742Y-14279956D01*
G01X74939742Y-14279956D01*
G01X74929718Y-14327905D01*
G01X74913986Y-14395013D01*
G01X74898930Y-14456896D01*
G01X74890939Y-14489168D01*
G01X74890742Y-14489956D01*
G01X74890742Y-14489956D01*
G01X74868255Y-14583687D01*
G01X74852936Y-14653849D01*
G01X74843618Y-14701414D01*
G01X74839134Y-14727355D01*
G01X74838242Y-14733206D01*
G01X74838242Y-14733206D01*
G01X74835453Y-14796944D01*
G01X74839554Y-14863800D01*
G01X74845625Y-14916546D01*
G01X74848742Y-14937956D01*
G01X74848742Y-14937956D01*
G01X74848742Y-14937956D01*
G01X74866270Y-15012436D01*
G01X74889846Y-15077676D01*
G01X74913758Y-15129476D01*
G01X74932294Y-15163636D01*
G01X74939742Y-15175956D01*
G01X74939742Y-15175956D01*
G01X74939742Y-15175956D01*
G01X74995031Y-15221675D01*
G01X75055242Y-15243769D01*
G01X75103640Y-15250769D01*
G01X75123492Y-15251206D01*
G01X75123492Y-15251206D01*
G01X75123492Y-15251206D01*
G01X75203691Y-15237233D01*
G01X75262398Y-15211612D01*
G01X75298465Y-15186976D01*
G01X75310742Y-15175956D01*
G01X75310742Y-15175956D01*
G01X75310742Y-15175956D01*
G01X75381911Y-15120429D01*
G01X75440774Y-15062276D01*
G01X75488465Y-15003494D01*
G01X75526118Y-14946076D01*
G01X75554867Y-14892019D01*
G01X75575846Y-14843316D01*
G01X75590189Y-14801964D01*
G01X75599030Y-14769956D01*
G01X75603503Y-14749289D01*
G01X75604742Y-14741956D01*
G01X75604742Y-14741956D01*
G01X75604742Y-14741956D01*
G01X75612601Y-14657505D01*
G01X75610115Y-14578223D01*
G01X75599772Y-14505339D01*
G01X75584060Y-14440083D01*
G01X75565467Y-14383685D01*
G01X75546480Y-14337374D01*
G01X75529587Y-14302382D01*
G01X75517275Y-14279936D01*
G01X75512032Y-14271268D01*
G01X75511992Y-14271206D01*
G01X75511992Y-14271206D01*
G01X75464348Y-14207647D01*
G01X75412132Y-14153976D01*
G01X75358013Y-14109536D01*
G01X75304660Y-14073671D01*
G01X75254742Y-14045724D01*
G01X75210929Y-14025037D01*
G01X75175890Y-14010955D01*
G01X75152295Y-14002820D01*
G01X75142812Y-13999975D01*
G01X75142742Y-13999956D01*
G37*
G36*
G01X8371742Y-47556289D02*
G01X8371742Y-45556289D01*
G01X4371742Y-45556289D01*
G01X4371742Y-47556289D01*
G37*
G36*
G01X9019342Y-45392289D02*
G01X9019342Y-45392289D01*
G01X9082490Y-45385662D01*
G01X9108142Y-45385089D01*
G01X9108142Y-45385089D01*
G01X9182275Y-45406497D01*
G01X9212484Y-45448414D01*
G01X9218504Y-45477378D01*
G01X9218542Y-45478689D01*
G01X9218542Y-45478689D01*
G01X9218377Y-45511933D01*
G01X9217962Y-45571516D01*
G01X9217414Y-45643872D01*
G01X9216851Y-45715436D01*
G01X9216392Y-45772641D01*
G01X9216153Y-45801922D01*
G01X9216142Y-45803289D01*
G01X9216142Y-45803289D01*
G01X9215269Y-45913856D01*
G01X9214638Y-46001577D01*
G01X9214210Y-46068655D01*
G01X9213946Y-46117292D01*
G01X9213807Y-46149693D01*
G01X9213752Y-46168059D01*
G01X9213742Y-46174593D01*
G01X9213742Y-46174689D01*
G01X9213742Y-46174689D01*
G01X9284491Y-46130022D01*
G01X9354398Y-46096893D01*
G01X9420553Y-46073579D01*
G01X9480044Y-46058355D01*
G01X9529962Y-46049497D01*
G01X9567395Y-46045282D01*
G01X9589433Y-46043985D01*
G01X9594142Y-46043889D01*
G01X9594142Y-46043889D01*
G01X9675484Y-46052346D01*
G01X9746076Y-46073957D01*
G01X9804973Y-46103084D01*
G01X9851225Y-46134091D01*
G01X9883886Y-46161339D01*
G01X9902007Y-46179192D01*
G01X9905542Y-46183089D01*
G01X9905542Y-46183089D01*
G01X9943574Y-46238350D01*
G01X9972528Y-46301072D01*
G01X9993642Y-46366999D01*
G01X10008153Y-46431877D01*
G01X10017300Y-46491451D01*
G01X10022321Y-46541466D01*
G01X10024453Y-46577666D01*
G01X10024934Y-46595797D01*
G01X10024942Y-46597089D01*
G01X10024942Y-46597089D01*
G01X10020461Y-46682944D01*
G01X10008438Y-46761783D01*
G01X9990999Y-46832822D01*
G01X9970272Y-46895275D01*
G01X9948385Y-46948355D01*
G01X9927465Y-46991276D01*
G01X9909640Y-47023254D01*
G01X9897036Y-47043502D01*
G01X9891782Y-47051234D01*
G01X9891742Y-47051289D01*
G01X9891742Y-47051289D01*
G01X9839346Y-47109962D01*
G01X9780609Y-47154630D01*
G01X9719351Y-47187202D01*
G01X9659391Y-47209589D01*
G01X9604548Y-47223701D01*
G01X9558643Y-47231446D01*
G01X9525494Y-47234735D01*
G01X9508922Y-47235478D01*
G01X9507742Y-47235489D01*
G01X9507742Y-47235489D01*
G01X9429062Y-47230819D01*
G01X9355515Y-47218142D01*
G01X9287843Y-47199461D01*
G01X9226788Y-47176776D01*
G01X9173092Y-47152089D01*
G01X9127496Y-47127403D01*
G01X9090741Y-47104718D01*
G01X9063569Y-47086037D01*
G01X9046722Y-47073360D01*
G01X9040942Y-47068689D01*
G01X9040942Y-47068689D01*
G01X9040942Y-47068689D01*
G01X9045528Y-47018039D01*
G01X9049265Y-46957099D01*
G01X9052239Y-46889550D01*
G01X9054536Y-46819070D01*
G01X9056242Y-46749339D01*
G01X9057444Y-46684037D01*
G01X9058229Y-46626841D01*
G01X9058683Y-46581432D01*
G01X9058892Y-46551488D01*
G01X9058942Y-46540689D01*
G01X9058942Y-46540689D01*
G01X9058942Y-46540689D01*
G01X9058713Y-46484754D01*
G01X9058078Y-46423044D01*
G01X9057113Y-46357459D01*
G01X9055897Y-46289897D01*
G01X9054507Y-46222257D01*
G01X9053020Y-46156437D01*
G01X9051513Y-46094336D01*
G01X9050065Y-46037852D01*
G01X9048752Y-45988884D01*
G01X9047652Y-45949329D01*
G01X9046843Y-45921088D01*
G01X9046401Y-45906057D01*
G01X9046342Y-45904089D01*
G01X9046342Y-45904089D01*
G01X9042524Y-45788136D01*
G01X9038696Y-45690273D01*
G01X9034953Y-45609114D01*
G01X9031395Y-45543273D01*
G01X9028117Y-45491364D01*
G01X9025217Y-45452001D01*
G01X9022793Y-45423798D01*
G01X9020940Y-45405369D01*
G01X9019758Y-45395328D01*
G01X9019342Y-45392289D01*
G01X9019342Y-45392289D01*
G37*
G36*
G01X10230142Y-46641489D02*
G01X10230142Y-46641489D01*
G01X10235107Y-46556321D01*
G01X10248430Y-46479323D01*
G01X10267754Y-46410955D01*
G01X10290722Y-46351677D01*
G01X10314975Y-46301949D01*
G01X10338157Y-46262231D01*
G01X10357910Y-46232984D01*
G01X10371876Y-46214666D01*
G01X10377698Y-46207738D01*
G01X10377742Y-46207689D01*
G01X10377742Y-46207689D01*
G01X10434248Y-46155515D01*
G01X10495211Y-46115794D01*
G01X10557212Y-46086829D01*
G01X10616828Y-46066921D01*
G01X10670638Y-46054373D01*
G01X10715220Y-46047485D01*
G01X10747154Y-46044560D01*
G01X10763017Y-46043900D01*
G01X10764142Y-46043889D01*
G01X10764142Y-46043889D01*
G01X10846813Y-46050399D01*
G01X10920798Y-46067665D01*
G01X10985550Y-46092290D01*
G01X11040520Y-46120878D01*
G01X11085161Y-46150032D01*
G01X11118927Y-46176355D01*
G01X11141269Y-46196451D01*
G01X11151640Y-46206924D01*
G01X11152342Y-46207689D01*
G01X11152342Y-46207689D01*
G01X11195712Y-46265098D01*
G01X11229583Y-46327212D01*
G01X11255130Y-46391027D01*
G01X11273526Y-46453540D01*
G01X11285947Y-46511746D01*
G01X11293564Y-46562640D01*
G01X11297553Y-46603218D01*
G01X11299088Y-46630475D01*
G01X11299342Y-46641409D01*
G01X11299342Y-46641489D01*
G01X11299342Y-46641489D01*
G01X11294397Y-46726597D01*
G01X11281128Y-46803433D01*
G01X11261883Y-46871565D01*
G01X11239008Y-46930563D01*
G01X11214854Y-46979995D01*
G01X11191766Y-47019430D01*
G01X11172094Y-47048437D01*
G01X11158184Y-47066584D01*
G01X11152386Y-47073441D01*
G01X11152342Y-47073489D01*
G01X11152342Y-47073489D01*
G01X11095932Y-47125091D01*
G01X11034861Y-47164375D01*
G01X10972605Y-47193022D01*
G01X10912643Y-47212711D01*
G01X10858452Y-47225121D01*
G01X10813510Y-47231933D01*
G01X10781292Y-47234826D01*
G01X10765278Y-47235479D01*
G01X10764142Y-47235489D01*
G01X10764142Y-47235489D01*
G01X10682211Y-47229051D01*
G01X10608745Y-47211975D01*
G01X10544328Y-47187620D01*
G01X10489545Y-47159347D01*
G01X10444980Y-47130513D01*
G01X10411219Y-47104479D01*
G01X10388847Y-47084604D01*
G01X10378447Y-47074246D01*
G01X10377742Y-47073489D01*
G01X10377742Y-47073489D01*
G01X10334195Y-47016612D01*
G01X10300186Y-46954913D01*
G01X10274535Y-46891410D01*
G01X10256063Y-46829123D01*
G01X10243592Y-46771069D01*
G01X10235943Y-46720268D01*
G01X10231938Y-46679739D01*
G01X10230397Y-46652500D01*
G01X10230142Y-46641570D01*
G01X10230142Y-46641489D01*
G37*
G36*
G01X11409742Y-46156689D02*
G01X11409742Y-46156689D01*
G01X11432930Y-46094293D01*
G01X11446342Y-46084689D01*
G01X11446342Y-46084689D01*
G01X11506294Y-46072459D01*
G01X11562214Y-46069214D01*
G01X11571742Y-46069089D01*
G01X11641342Y-46069089D01*
G01X11641342Y-46069089D01*
G01X11638071Y-45981503D01*
G01X11634193Y-45907773D01*
G01X11630397Y-45850319D01*
G01X11627376Y-45811561D01*
G01X11625821Y-45793919D01*
G01X11625742Y-45793089D01*
G01X11625742Y-45793089D01*
G01X11690143Y-45786316D01*
G01X11707342Y-45785889D01*
G01X11707342Y-45785889D01*
G01X11784605Y-45806107D01*
G01X11817416Y-45846542D01*
G01X11824824Y-45876869D01*
G01X11824942Y-45879489D01*
G01X11824942Y-45879489D01*
G01X11823220Y-45928943D01*
G01X11819567Y-45998914D01*
G01X11816250Y-46056382D01*
G01X11815342Y-46071489D01*
G01X11815342Y-46071489D01*
G01X11926557Y-46070878D01*
G01X12017811Y-46069276D01*
G01X12090560Y-46067032D01*
G01X12146260Y-46064494D01*
G01X12186365Y-46062009D01*
G01X12212330Y-46059925D01*
G01X12225612Y-46058591D01*
G01X12228142Y-46058289D01*
G01X12228142Y-46058289D01*
G01X12237716Y-46113790D01*
G01X12237742Y-46115889D01*
G01X12237742Y-46115889D01*
G01X12217843Y-46176581D01*
G01X12211942Y-46181889D01*
G01X12211942Y-46181889D01*
G01X12152188Y-46199052D01*
G01X12129742Y-46201089D01*
G01X12129742Y-46201089D01*
G01X12079393Y-46202067D01*
G01X12015315Y-46202735D01*
G01X11947005Y-46203152D01*
G01X11883960Y-46203377D01*
G01X11835675Y-46203470D01*
G01X11811646Y-46203489D01*
G01X11810542Y-46203489D01*
G01X11810542Y-46203489D01*
G01X11809359Y-46275531D01*
G01X11808389Y-46347512D01*
G01X11807609Y-46418031D01*
G01X11807000Y-46485688D01*
G01X11806541Y-46549080D01*
G01X11806209Y-46606806D01*
G01X11805985Y-46657466D01*
G01X11805847Y-46699656D01*
G01X11805775Y-46731977D01*
G01X11805747Y-46753026D01*
G01X11805742Y-46761402D01*
G01X11805742Y-46761489D01*
G01X11805742Y-46761489D01*
G01X11809848Y-46861937D01*
G01X11819925Y-46937004D01*
G01X11832616Y-46989420D01*
G01X11844560Y-47021913D01*
G01X11852398Y-47037213D01*
G01X11853742Y-47039289D01*
G01X11853742Y-47039289D01*
G01X11907031Y-47082053D01*
G01X11966521Y-47100955D01*
G01X12006924Y-47105743D01*
G01X12012142Y-47105889D01*
G01X12012142Y-47105889D01*
G01X12085795Y-47093416D01*
G01X12142724Y-47066459D01*
G01X12178373Y-47040708D01*
G01X12188542Y-47031489D01*
G01X12188542Y-47031489D01*
G01X12227392Y-47093439D01*
G01X12232942Y-47120289D01*
G01X12232942Y-47120289D01*
G01X12232942Y-47120289D01*
G01X12204950Y-47177760D01*
G01X12170498Y-47203085D01*
G01X12169342Y-47203689D01*
G01X12169342Y-47203689D01*
G01X12103700Y-47225490D01*
G01X12044458Y-47234006D01*
G01X12014972Y-47235487D01*
G01X12014542Y-47235489D01*
G01X12014542Y-47235489D01*
G01X11925649Y-47227421D01*
G01X11854241Y-47207070D01*
G01X11799463Y-47180216D01*
G01X11760458Y-47152639D01*
G01X11736372Y-47130120D01*
G01X11726350Y-47118439D01*
G01X11725942Y-47117889D01*
G01X11725942Y-47117889D01*
G01X11695152Y-47062615D01*
G01X11672919Y-46999420D01*
G01X11657848Y-46934075D01*
G01X11648549Y-46872348D01*
G01X11643626Y-46820009D01*
G01X11641689Y-46782825D01*
G01X11641343Y-46766567D01*
G01X11641342Y-46766289D01*
G01X11641342Y-46766289D01*
G01X11642525Y-46653838D01*
G01X11643495Y-46556294D01*
G01X11644275Y-46472760D01*
G01X11644884Y-46402337D01*
G01X11645343Y-46344130D01*
G01X11645675Y-46297239D01*
G01X11645899Y-46260767D01*
G01X11646037Y-46233818D01*
G01X11646109Y-46215493D01*
G01X11646137Y-46204895D01*
G01X11646142Y-46201126D01*
G01X11646142Y-46201089D01*
G01X11646142Y-46201089D01*
G01X11614852Y-46203320D01*
G01X11549091Y-46208477D01*
G01X11476764Y-46214262D01*
G01X11425778Y-46218374D01*
G01X11416942Y-46219089D01*
G01X11416942Y-46219089D01*
G01X11409800Y-46161105D01*
G01X11409742Y-46156689D01*
G37*
G36*
G01X12273742Y-46156689D02*
G01X12273742Y-46156689D01*
G01X12296930Y-46094293D01*
G01X12310342Y-46084689D01*
G01X12310342Y-46084689D01*
G01X12370294Y-46072459D01*
G01X12426214Y-46069214D01*
G01X12435742Y-46069089D01*
G01X12505342Y-46069089D01*
G01X12505342Y-46069089D01*
G01X12502071Y-45981503D01*
G01X12498193Y-45907773D01*
G01X12494397Y-45850319D01*
G01X12491376Y-45811561D01*
G01X12489821Y-45793919D01*
G01X12489742Y-45793089D01*
G01X12489742Y-45793089D01*
G01X12554143Y-45786316D01*
G01X12571342Y-45785889D01*
G01X12571342Y-45785889D01*
G01X12648605Y-45806107D01*
G01X12681416Y-45846542D01*
G01X12688824Y-45876869D01*
G01X12688942Y-45879489D01*
G01X12688942Y-45879489D01*
G01X12687220Y-45928943D01*
G01X12683567Y-45998914D01*
G01X12680250Y-46056382D01*
G01X12679342Y-46071489D01*
G01X12679342Y-46071489D01*
G01X12790557Y-46070878D01*
G01X12881811Y-46069276D01*
G01X12954560Y-46067032D01*
G01X13010260Y-46064494D01*
G01X13050365Y-46062009D01*
G01X13076330Y-46059925D01*
G01X13089612Y-46058591D01*
G01X13092142Y-46058289D01*
G01X13092142Y-46058289D01*
G01X13101716Y-46113790D01*
G01X13101742Y-46115889D01*
G01X13101742Y-46115889D01*
G01X13081843Y-46176581D01*
G01X13075942Y-46181889D01*
G01X13075942Y-46181889D01*
G01X13016188Y-46199052D01*
G01X12993742Y-46201089D01*
G01X12993742Y-46201089D01*
G01X12943393Y-46202067D01*
G01X12879315Y-46202735D01*
G01X12811005Y-46203152D01*
G01X12747960Y-46203377D01*
G01X12699675Y-46203470D01*
G01X12675646Y-46203489D01*
G01X12674542Y-46203489D01*
G01X12674542Y-46203489D01*
G01X12673359Y-46275531D01*
G01X12672389Y-46347512D01*
G01X12671609Y-46418031D01*
G01X12671000Y-46485688D01*
G01X12670541Y-46549080D01*
G01X12670209Y-46606806D01*
G01X12669985Y-46657466D01*
G01X12669847Y-46699656D01*
G01X12669775Y-46731977D01*
G01X12669747Y-46753026D01*
G01X12669742Y-46761402D01*
G01X12669742Y-46761489D01*
G01X12669742Y-46761489D01*
G01X12673848Y-46861937D01*
G01X12683925Y-46937004D01*
G01X12696616Y-46989420D01*
G01X12708560Y-47021913D01*
G01X12716398Y-47037213D01*
G01X12717742Y-47039289D01*
G01X12717742Y-47039289D01*
G01X12771031Y-47082053D01*
G01X12830521Y-47100955D01*
G01X12870924Y-47105743D01*
G01X12876142Y-47105889D01*
G01X12876142Y-47105889D01*
G01X12949795Y-47093416D01*
G01X13006724Y-47066459D01*
G01X13042373Y-47040708D01*
G01X13052542Y-47031489D01*
G01X13052542Y-47031489D01*
G01X13091392Y-47093439D01*
G01X13096942Y-47120289D01*
G01X13096942Y-47120289D01*
G01X13096942Y-47120289D01*
G01X13068950Y-47177760D01*
G01X13034498Y-47203085D01*
G01X13033342Y-47203689D01*
G01X13033342Y-47203689D01*
G01X12967700Y-47225490D01*
G01X12908458Y-47234006D01*
G01X12878972Y-47235487D01*
G01X12878542Y-47235489D01*
G01X12878542Y-47235489D01*
G01X12789649Y-47227421D01*
G01X12718241Y-47207070D01*
G01X12663463Y-47180216D01*
G01X12624458Y-47152639D01*
G01X12600372Y-47130120D01*
G01X12590350Y-47118439D01*
G01X12589942Y-47117889D01*
G01X12589942Y-47117889D01*
G01X12559152Y-47062615D01*
G01X12536919Y-46999420D01*
G01X12521848Y-46934075D01*
G01X12512549Y-46872348D01*
G01X12507626Y-46820009D01*
G01X12505689Y-46782825D01*
G01X12505343Y-46766567D01*
G01X12505342Y-46766289D01*
G01X12505342Y-46766289D01*
G01X12506525Y-46653838D01*
G01X12507495Y-46556294D01*
G01X12508275Y-46472760D01*
G01X12508884Y-46402337D01*
G01X12509343Y-46344130D01*
G01X12509675Y-46297239D01*
G01X12509899Y-46260767D01*
G01X12510037Y-46233818D01*
G01X12510109Y-46215493D01*
G01X12510137Y-46204895D01*
G01X12510142Y-46201126D01*
G01X12510142Y-46201089D01*
G01X12510142Y-46201089D01*
G01X12478852Y-46203320D01*
G01X12413091Y-46208477D01*
G01X12340764Y-46214262D01*
G01X12289778Y-46218374D01*
G01X12280942Y-46219089D01*
G01X12280942Y-46219089D01*
G01X12273800Y-46161105D01*
G01X12273742Y-46156689D01*
G37*
G36*
G01X13248142Y-46641489D02*
G01X13248142Y-46641489D01*
G01X13253107Y-46556321D01*
G01X13266430Y-46479323D01*
G01X13285754Y-46410955D01*
G01X13308722Y-46351677D01*
G01X13332975Y-46301949D01*
G01X13356157Y-46262231D01*
G01X13375910Y-46232984D01*
G01X13389876Y-46214666D01*
G01X13395698Y-46207738D01*
G01X13395742Y-46207689D01*
G01X13395742Y-46207689D01*
G01X13452248Y-46155515D01*
G01X13513211Y-46115794D01*
G01X13575212Y-46086829D01*
G01X13634828Y-46066921D01*
G01X13688638Y-46054373D01*
G01X13733220Y-46047485D01*
G01X13765154Y-46044560D01*
G01X13781017Y-46043900D01*
G01X13782142Y-46043889D01*
G01X13782142Y-46043889D01*
G01X13864813Y-46050399D01*
G01X13938798Y-46067665D01*
G01X14003550Y-46092290D01*
G01X14058520Y-46120878D01*
G01X14103161Y-46150032D01*
G01X14136927Y-46176355D01*
G01X14159269Y-46196451D01*
G01X14169640Y-46206924D01*
G01X14170342Y-46207689D01*
G01X14170342Y-46207689D01*
G01X14213712Y-46265098D01*
G01X14247583Y-46327212D01*
G01X14273130Y-46391027D01*
G01X14291526Y-46453540D01*
G01X14303947Y-46511746D01*
G01X14311564Y-46562640D01*
G01X14315553Y-46603218D01*
G01X14317088Y-46630475D01*
G01X14317342Y-46641409D01*
G01X14317342Y-46641489D01*
G01X14317342Y-46641489D01*
G01X14312397Y-46726597D01*
G01X14299128Y-46803433D01*
G01X14279883Y-46871565D01*
G01X14257008Y-46930563D01*
G01X14232854Y-46979995D01*
G01X14209766Y-47019430D01*
G01X14190094Y-47048437D01*
G01X14176184Y-47066584D01*
G01X14170386Y-47073441D01*
G01X14170342Y-47073489D01*
G01X14170342Y-47073489D01*
G01X14113932Y-47125091D01*
G01X14052861Y-47164375D01*
G01X13990605Y-47193022D01*
G01X13930643Y-47212711D01*
G01X13876452Y-47225121D01*
G01X13831510Y-47231933D01*
G01X13799292Y-47234826D01*
G01X13783278Y-47235479D01*
G01X13782142Y-47235489D01*
G01X13782142Y-47235489D01*
G01X13700211Y-47229051D01*
G01X13626745Y-47211975D01*
G01X13562328Y-47187620D01*
G01X13507545Y-47159347D01*
G01X13462980Y-47130513D01*
G01X13429219Y-47104479D01*
G01X13406847Y-47084604D01*
G01X13396447Y-47074246D01*
G01X13395742Y-47073489D01*
G01X13395742Y-47073489D01*
G01X13352195Y-47016612D01*
G01X13318186Y-46954913D01*
G01X13292535Y-46891410D01*
G01X13274063Y-46829123D01*
G01X13261592Y-46771069D01*
G01X13253943Y-46720268D01*
G01X13249938Y-46679739D01*
G01X13248397Y-46652500D01*
G01X13248142Y-46641570D01*
G01X13248142Y-46641489D01*
G37*
G36*
G01X14575342Y-46081089D02*
G01X14575342Y-46081089D01*
G01X14642819Y-46063639D01*
G01X14664142Y-46061889D01*
G01X14664142Y-46061889D01*
G01X14733061Y-46083840D01*
G01X14765962Y-46130418D01*
G01X14776168Y-46172713D01*
G01X14776942Y-46184289D01*
G01X14776942Y-46184289D01*
G01X14837148Y-46142721D01*
G01X14895892Y-46110939D01*
G01X14940461Y-46090633D01*
G01X14958142Y-46083489D01*
G01X14958142Y-46083489D01*
G01X14958142Y-46083489D01*
G01X15031669Y-46061273D01*
G01X15095143Y-46049457D01*
G01X15141000Y-46044759D01*
G01X15161675Y-46043892D01*
G01X15162142Y-46043889D01*
G01X15162142Y-46043889D01*
G01X15244699Y-46053585D01*
G01X15310674Y-46078363D01*
G01X15361309Y-46111759D01*
G01X15397841Y-46147310D01*
G01X15421511Y-46178552D01*
G01X15433557Y-46199021D01*
G01X15435742Y-46203489D01*
G01X15435742Y-46203489D01*
G01X15487654Y-46161332D01*
G01X15543901Y-46127284D01*
G01X15591867Y-46103360D01*
G01X15618938Y-46091574D01*
G01X15621142Y-46090689D01*
G01X15621142Y-46090689D01*
G01X15696965Y-46066098D01*
G01X15762915Y-46052108D01*
G01X15813128Y-46045729D01*
G01X15841739Y-46043970D01*
G01X15846142Y-46043889D01*
G01X15846142Y-46043889D01*
G01X15926465Y-46054074D01*
G01X15990180Y-46077627D01*
G01X16035139Y-46104044D01*
G01X16059197Y-46122822D01*
G01X16062742Y-46126089D01*
G01X16062742Y-46126089D01*
G01X16100158Y-46178569D01*
G01X16124279Y-46240638D01*
G01X16138024Y-46302409D01*
G01X16144311Y-46353993D01*
G01X16146059Y-46385500D01*
G01X16146142Y-46390689D01*
G01X16146142Y-46390689D01*
G01X16145287Y-46428818D01*
G01X16143542Y-46501721D01*
G01X16142136Y-46559705D01*
G01X16141942Y-46567689D01*
G01X16141942Y-46567689D01*
G01X16139892Y-46660958D01*
G01X16138649Y-46733952D01*
G01X16138011Y-46786411D01*
G01X16137776Y-46818077D01*
G01X16137742Y-46828689D01*
G01X16137742Y-46828689D01*
G01X16137742Y-46828689D01*
G01X16139981Y-46918536D01*
G01X16145776Y-46997861D01*
G01X16153745Y-47065597D01*
G01X16162504Y-47120677D01*
G01X16170670Y-47162035D01*
G01X16176860Y-47188603D01*
G01X16179692Y-47199316D01*
G01X16179742Y-47199489D01*
G01X16179742Y-47199489D01*
G01X16112228Y-47216431D01*
G01X16083742Y-47218689D01*
G01X16083742Y-47218689D01*
G01X16012230Y-47203744D01*
G01X15991942Y-47190489D01*
G01X15991942Y-47190489D01*
G01X15967483Y-47132856D01*
G01X15963742Y-47093971D01*
G01X15963742Y-47093889D01*
G01X15963742Y-47093889D01*
G01X15964179Y-47044461D01*
G01X15965297Y-46981634D01*
G01X15966804Y-46913721D01*
G01X15968408Y-46849032D01*
G01X15969817Y-46795877D01*
G01X15970740Y-46762567D01*
G01X15970942Y-46755489D01*
G01X15970942Y-46755489D01*
G01X15974025Y-46644825D01*
G01X15976072Y-46564453D01*
G01X15977295Y-46509917D01*
G01X15977906Y-46476758D01*
G01X15978118Y-46460521D01*
G01X15978142Y-46456689D01*
G01X15978142Y-46456689D01*
G01X15970402Y-46371357D01*
G01X15952791Y-46308821D01*
G01X15933716Y-46268642D01*
G01X15921589Y-46250383D01*
G01X15920542Y-46249089D01*
G01X15920542Y-46249089D01*
G01X15862481Y-46204939D01*
G01X15805976Y-46186190D01*
G01X15772020Y-46181957D01*
G01X15769342Y-46181889D01*
G01X15769342Y-46181889D01*
G01X15704398Y-46189763D01*
G01X15640530Y-46209883D01*
G01X15581410Y-46237002D01*
G01X15530705Y-46265870D01*
G01X15492086Y-46291239D01*
G01X15469221Y-46307861D01*
G01X15464542Y-46311489D01*
G01X15464542Y-46311489D01*
G01X15465958Y-46415554D01*
G01X15467064Y-46506887D01*
G01X15467898Y-46585653D01*
G01X15468499Y-46652013D01*
G01X15468905Y-46706131D01*
G01X15469153Y-46748171D01*
G01X15469284Y-46778294D01*
G01X15469334Y-46796663D01*
G01X15469342Y-46803442D01*
G01X15469342Y-46803489D01*
G01X15469342Y-46803489D01*
G01X15470064Y-46892763D01*
G01X15471957Y-46973486D01*
G01X15474610Y-47044408D01*
G01X15477610Y-47104281D01*
G01X15480547Y-47151855D01*
G01X15483009Y-47185879D01*
G01X15484586Y-47205105D01*
G01X15484942Y-47209089D01*
G01X15484942Y-47209089D01*
G01X15419105Y-47215829D01*
G01X15400942Y-47216289D01*
G01X15400942Y-47216289D01*
G01X15326809Y-47194881D01*
G01X15296600Y-47152965D01*
G01X15290580Y-47124001D01*
G01X15290542Y-47122689D01*
G01X15290542Y-47122689D01*
G01X15292396Y-47068178D01*
G01X15294142Y-47023689D01*
G01X15294142Y-47023689D01*
G01X15296240Y-46960754D01*
G01X15297954Y-46892750D01*
G01X15299217Y-46831912D01*
G01X15299963Y-46790476D01*
G01X15300142Y-46779489D01*
G01X15300142Y-46779489D01*
G01X15301119Y-46704914D01*
G01X15301787Y-46632764D01*
G01X15302205Y-46567493D01*
G01X15302430Y-46513554D01*
G01X15302523Y-46475400D01*
G01X15302542Y-46457484D01*
G01X15302542Y-46456689D01*
G01X15302542Y-46456689D01*
G01X15292540Y-46362846D01*
G01X15266330Y-46293245D01*
G01X15229607Y-46244264D01*
G01X15188065Y-46212280D01*
G01X15147400Y-46193671D01*
G01X15113305Y-46184815D01*
G01X15091476Y-46182090D01*
G01X15086542Y-46181889D01*
G01X15086542Y-46181889D01*
G01X15022524Y-46190127D01*
G01X14959307Y-46211179D01*
G01X14900611Y-46239553D01*
G01X14850152Y-46269758D01*
G01X14811648Y-46296302D01*
G01X14788818Y-46313693D01*
G01X14784142Y-46317489D01*
G01X14784142Y-46317489D01*
G01X14785558Y-46421352D01*
G01X14786664Y-46512144D01*
G01X14787498Y-46590124D01*
G01X14788099Y-46655550D01*
G01X14788505Y-46708683D01*
G01X14788753Y-46749780D01*
G01X14788884Y-46779100D01*
G01X14788934Y-46796902D01*
G01X14788942Y-46803444D01*
G01X14788942Y-46803489D01*
G01X14788942Y-46803489D01*
G01X14789609Y-46892763D01*
G01X14791356Y-46973486D01*
G01X14793804Y-47044408D01*
G01X14796574Y-47104281D01*
G01X14799285Y-47151855D01*
G01X14801558Y-47185879D01*
G01X14803013Y-47205105D01*
G01X14803342Y-47209089D01*
G01X14803342Y-47209089D01*
G01X14737478Y-47215862D01*
G01X14720542Y-47216289D01*
G01X14720542Y-47216289D01*
G01X14646409Y-47194881D01*
G01X14616200Y-47152965D01*
G01X14610180Y-47124001D01*
G01X14610142Y-47122689D01*
G01X14610142Y-47122689D01*
G01X14611290Y-47083961D01*
G01X14613679Y-47013091D01*
G01X14615730Y-46953861D01*
G01X14616142Y-46942089D01*
G01X14616142Y-46942089D01*
G01X14618457Y-46865826D01*
G01X14620084Y-46793195D01*
G01X14621144Y-46727587D01*
G01X14621758Y-46672392D01*
G01X14622048Y-46630999D01*
G01X14622136Y-46606798D01*
G01X14622142Y-46601889D01*
G01X14622142Y-46601889D01*
G01X14620832Y-46489329D01*
G01X14617275Y-46392897D01*
G01X14612033Y-46311585D01*
G01X14605668Y-46244385D01*
G01X14598742Y-46190289D01*
G01X14591816Y-46148289D01*
G01X14585451Y-46117377D01*
G01X14580209Y-46096545D01*
G01X14576652Y-46084785D01*
G01X14575342Y-46081089D01*
G01X14575342Y-46081089D01*
G37*
G36*
G01X16990942Y-47039889D02*
G01X16990942Y-47039889D01*
G01X17017622Y-46983521D01*
G01X17068720Y-46949566D01*
G01X17100826Y-46936845D01*
G01X17101342Y-46936689D01*
G01X17101342Y-46936689D01*
G01X17138786Y-46997666D01*
G01X17185107Y-47037648D01*
G01X17215811Y-47056051D01*
G01X17218342Y-47057289D01*
G01X17218342Y-47057289D01*
G01X17286526Y-47081224D01*
G01X17349367Y-47093514D01*
G01X17395445Y-47098043D01*
G01X17413342Y-47098689D01*
G01X17413342Y-47098689D01*
G01X17413342Y-47098689D01*
G01X17492038Y-47089737D01*
G01X17548504Y-47071098D01*
G01X17579422Y-47055100D01*
G01X17584342Y-47051889D01*
G01X17584342Y-47051889D01*
G01X17628257Y-46997958D01*
G01X17646153Y-46941085D01*
G01X17649720Y-46908084D01*
G01X17649742Y-46906689D01*
G01X17649742Y-46906689D01*
G01X17629508Y-46839541D01*
G01X17595306Y-46801815D01*
G01X17584342Y-46793889D01*
G01X17584342Y-46793889D01*
G01X17521286Y-46763336D01*
G01X17462864Y-46743216D01*
G01X17428611Y-46733917D01*
G01X17425942Y-46733289D01*
G01X17425942Y-46733289D01*
G01X17354936Y-46716071D01*
G01X17293621Y-46699666D01*
G01X17251930Y-46687807D01*
G01X17239342Y-46684089D01*
G01X17239342Y-46684089D01*
G01X17172707Y-46654140D01*
G01X17121432Y-46617351D01*
G01X17089442Y-46587329D01*
G01X17080342Y-46577289D01*
G01X17080342Y-46577289D01*
G01X17044799Y-46517159D01*
G01X17025240Y-46454025D01*
G01X17016890Y-46401073D01*
G01X17014975Y-46371485D01*
G01X17014942Y-46369089D01*
G01X17014942Y-46369089D01*
G01X17026916Y-46293553D01*
G01X17055892Y-46230823D01*
G01X17091448Y-46182530D01*
G01X17123166Y-46150301D01*
G01X17140624Y-46135768D01*
G01X17141542Y-46135089D01*
G01X17141542Y-46135089D01*
G01X17208023Y-46096036D01*
G01X17274548Y-46070109D01*
G01X17335441Y-46054619D01*
G01X17385024Y-46046878D01*
G01X17417619Y-46044197D01*
G01X17427742Y-46043889D01*
G01X17427742Y-46043889D01*
G01X17502027Y-46050283D01*
G01X17568269Y-46065068D01*
G01X17619645Y-46081651D01*
G01X17649331Y-46093439D01*
G01X17653942Y-46095489D01*
G01X17653942Y-46095489D01*
G01X17721761Y-46143371D01*
G01X17754138Y-46193127D01*
G01X17764181Y-46229310D01*
G01X17764942Y-46238289D01*
G01X17764942Y-46238289D01*
G01X17739692Y-46295367D01*
G01X17690252Y-46328414D01*
G01X17656089Y-46341077D01*
G01X17654542Y-46341489D01*
G01X17654542Y-46341489D01*
G01X17616934Y-46283793D01*
G01X17572033Y-46244536D01*
G01X17544720Y-46226936D01*
G01X17543542Y-46226289D01*
G01X17543542Y-46226289D01*
G01X17473825Y-46198462D01*
G01X17413478Y-46185672D01*
G01X17375541Y-46182071D01*
G01X17368942Y-46181889D01*
G01X17368942Y-46181889D01*
G01X17294611Y-46193509D01*
G01X17243457Y-46215260D01*
G01X17223760Y-46227476D01*
G01X17223742Y-46227489D01*
G01X17223742Y-46227489D01*
G01X17179349Y-46283895D01*
G01X17164194Y-46336773D01*
G01X17162542Y-46355889D01*
G01X17162542Y-46355889D01*
G01X17182776Y-46423781D01*
G01X17216978Y-46462762D01*
G01X17227942Y-46471089D01*
G01X17227942Y-46471089D01*
G01X17290998Y-46503479D01*
G01X17349420Y-46524787D01*
G01X17383673Y-46534626D01*
G01X17386342Y-46535289D01*
G01X17386342Y-46535289D01*
G01X17457348Y-46553221D01*
G01X17518663Y-46569980D01*
G01X17560354Y-46581959D01*
G01X17572942Y-46585689D01*
G01X17572942Y-46585689D01*
G01X17641858Y-46616154D01*
G01X17694047Y-46652463D01*
G01X17725114Y-46680516D01*
G01X17731942Y-46687689D01*
G01X17731942Y-46687689D01*
G01X17769751Y-46748918D01*
G01X17789167Y-46811664D01*
G01X17796320Y-46860574D01*
G01X17797342Y-46880289D01*
G01X17797342Y-46880289D01*
G01X17797342Y-46880289D01*
G01X17787702Y-46961763D01*
G01X17763711Y-47028563D01*
G01X17732761Y-47080477D01*
G01X17702247Y-47117293D01*
G01X17679560Y-47138798D01*
G01X17671942Y-47144889D01*
G01X17671942Y-47144889D01*
G01X17609012Y-47181790D01*
G01X17544212Y-47207002D01*
G01X17482955Y-47222750D01*
G01X17430653Y-47231262D01*
G01X17392716Y-47234765D01*
G01X17374557Y-47235484D01*
G01X17373742Y-47235489D01*
G01X17373742Y-47235489D01*
G01X17292449Y-47230155D01*
G01X17221841Y-47217246D01*
G01X17165326Y-47201406D01*
G01X17126311Y-47187276D01*
G01X17108205Y-47179498D01*
G01X17107342Y-47179089D01*
G01X17107342Y-47179089D01*
G01X17036224Y-47129781D01*
G01X17002272Y-47081822D01*
G01X16991740Y-47048108D01*
G01X16990942Y-47039889D01*
G37*
G36*
G01X18027742Y-45797889D02*
G01X18027742Y-45797889D01*
G01X18046657Y-45732719D01*
G01X18066696Y-45706135D01*
G01X18066742Y-45706089D01*
G01X18066742Y-45706089D01*
G01X18126667Y-45673014D01*
G01X18157342Y-45668289D01*
G01X18157342Y-45668289D01*
G01X18157342Y-45668289D01*
G01X18221379Y-45688888D01*
G01X18243142Y-45706089D01*
G01X18243142Y-45706089D01*
G01X18275167Y-45766164D01*
G01X18279742Y-45797889D01*
G01X18279742Y-45797889D01*
G01X18279742Y-45797889D01*
G01X18261411Y-45864408D01*
G01X18240924Y-45892506D01*
G01X18240742Y-45892689D01*
G01X18240742Y-45892689D01*
G01X18180992Y-45926572D01*
G01X18152542Y-45931089D01*
G01X18152542Y-45931089D01*
G01X18087251Y-45911692D01*
G01X18064342Y-45894489D01*
G01X18064342Y-45894489D01*
G01X18032888Y-45834835D01*
G01X18027744Y-45798172D01*
G01X18027742Y-45797889D01*
G37*
G36*
G01X18567742Y-45392289D02*
G01X18567742Y-45392289D01*
G01X18633376Y-45385623D01*
G01X18654142Y-45385089D01*
G01X18654142Y-45385089D01*
G01X18729886Y-45406497D01*
G01X18760752Y-45448414D01*
G01X18766903Y-45477378D01*
G01X18766942Y-45478689D01*
G01X18766942Y-45478689D01*
G01X18765726Y-45527238D01*
G01X18763788Y-45594896D01*
G01X18763342Y-45610089D01*
G01X18763342Y-45610089D01*
G01X18761505Y-45673447D01*
G01X18759569Y-45742021D01*
G01X18757710Y-45808955D01*
G01X18756106Y-45867391D01*
G01X18754932Y-45910473D01*
G01X18754367Y-45931345D01*
G01X18754342Y-45932289D01*
G01X18754342Y-45932289D01*
G01X18752498Y-46009950D01*
G01X18751130Y-46084878D01*
G01X18750168Y-46154465D01*
G01X18749539Y-46216100D01*
G01X18749174Y-46267173D01*
G01X18748999Y-46305074D01*
G01X18748946Y-46327193D01*
G01X18748942Y-46331889D01*
G01X18748942Y-46714689D01*
G01X18748942Y-46714689D01*
G01X18750516Y-46816316D01*
G01X18754741Y-46905822D01*
G01X18760868Y-46983285D01*
G01X18768150Y-47048781D01*
G01X18775840Y-47102387D01*
G01X18783191Y-47144179D01*
G01X18789454Y-47174235D01*
G01X18793882Y-47192630D01*
G01X18795728Y-47199442D01*
G01X18795742Y-47199489D01*
G01X18795742Y-47199489D01*
G01X18729794Y-47216696D01*
G01X18703342Y-47218689D01*
G01X18703342Y-47218689D01*
G01X18630292Y-47203989D01*
G01X18608542Y-47189289D01*
G01X18608542Y-47189289D01*
G01X18608542Y-47189289D01*
G01X18585644Y-47130615D01*
G01X18582142Y-47091571D01*
G01X18582142Y-47091489D01*
G01X18582142Y-47091489D01*
G01X18582307Y-47052566D01*
G01X18582722Y-46993040D01*
G01X18583270Y-46924471D01*
G01X18583833Y-46858419D01*
G01X18584292Y-46806446D01*
G01X18584531Y-46780112D01*
G01X18584542Y-46778889D01*
G01X18584542Y-46778889D01*
G01X18585362Y-46683757D01*
G01X18585969Y-46601926D01*
G01X18586397Y-46533370D01*
G01X18586677Y-46478068D01*
G01X18586839Y-46435995D01*
G01X18586916Y-46407126D01*
G01X18586940Y-46391440D01*
G01X18586942Y-46388289D01*
G01X18586942Y-46102689D01*
G01X18586942Y-46102689D01*
G01X18586593Y-45972040D01*
G01X18585625Y-45857647D01*
G01X18584155Y-45758534D01*
G01X18582302Y-45673725D01*
G01X18580184Y-45602241D01*
G01X18577918Y-45543108D01*
G01X18575622Y-45495347D01*
G01X18573415Y-45457981D01*
G01X18571415Y-45430034D01*
G01X18569739Y-45410529D01*
G01X18568505Y-45398489D01*
G01X18567832Y-45392938D01*
G01X18567742Y-45392289D01*
G37*
G36*
G01X19090942Y-45392289D02*
G01X19090942Y-45392289D01*
G01X19156576Y-45385623D01*
G01X19177342Y-45385089D01*
G01X19177342Y-45385089D01*
G01X19253086Y-45406497D01*
G01X19283952Y-45448414D01*
G01X19290103Y-45477378D01*
G01X19290142Y-45478689D01*
G01X19290142Y-45478689D01*
G01X19288611Y-45530578D01*
G01X19286643Y-45588590D01*
G01X19286542Y-45591489D01*
G01X19286542Y-45591489D01*
G01X19284344Y-45656018D01*
G01X19282053Y-45725405D01*
G01X19279965Y-45789822D01*
G01X19278376Y-45839442D01*
G01X19277582Y-45864437D01*
G01X19277542Y-45865689D01*
G01X19277542Y-45865689D01*
G01X19275458Y-45942099D01*
G01X19273994Y-46015102D01*
G01X19273040Y-46081212D01*
G01X19272488Y-46136942D01*
G01X19272226Y-46178805D01*
G01X19272147Y-46203314D01*
G01X19272142Y-46208289D01*
G01X19272142Y-46208289D01*
G01X19335626Y-46155923D01*
G01X19399197Y-46116057D01*
G01X19460454Y-46086986D01*
G01X19516995Y-46067005D01*
G01X19566420Y-46054411D01*
G01X19606328Y-46047498D01*
G01X19634316Y-46044563D01*
G01X19647983Y-46043900D01*
G01X19648942Y-46043889D01*
G01X19648942Y-46043889D01*
G01X19731612Y-46052175D01*
G01X19797481Y-46072224D01*
G01X19846252Y-46096827D01*
G01X19877630Y-46118774D01*
G01X19891317Y-46130854D01*
G01X19891942Y-46131489D01*
G01X19891942Y-46131489D01*
G01X19935764Y-46193279D01*
G01X19960696Y-46255912D01*
G01X19972064Y-46308732D01*
G01X19975198Y-46341083D01*
G01X19975342Y-46346289D01*
G01X19975342Y-46346289D01*
G01X19967490Y-46422925D01*
G01X19948216Y-46489235D01*
G01X19923946Y-46542827D01*
G01X19901103Y-46581307D01*
G01X19886112Y-46602282D01*
G01X19883542Y-46605489D01*
G01X19883542Y-46605489D01*
G01X19828193Y-46656020D01*
G01X19766874Y-46691382D01*
G01X19707963Y-46714138D01*
G01X19659836Y-46726849D01*
G01X19630871Y-46732076D01*
G01X19626142Y-46732689D01*
G01X19626142Y-46732689D01*
G01X19683121Y-46824535D01*
G01X19728864Y-46894402D01*
G01X19763931Y-46944827D01*
G01X19788883Y-46978346D01*
G01X19804280Y-46997496D01*
G01X19810681Y-47004812D01*
G01X19810942Y-47005089D01*
G01X19810942Y-47005089D01*
G01X19875114Y-47055943D01*
G01X19928478Y-47078422D01*
G01X19959620Y-47084115D01*
G01X19963342Y-47084289D01*
G01X19963342Y-47084289D01*
G01X20023547Y-47074828D01*
G01X20026942Y-47073489D01*
G01X20026942Y-47073489D01*
G01X20048571Y-47136342D01*
G01X20049742Y-47145489D01*
G01X20049742Y-47145489D01*
G01X20018559Y-47200138D01*
G01X19998142Y-47212689D01*
G01X19998142Y-47212689D01*
G01X19929592Y-47232639D01*
G01X19899742Y-47235489D01*
G01X19899742Y-47235489D01*
G01X19899742Y-47235489D01*
G01X19831492Y-47221802D01*
G01X19774942Y-47191689D01*
G01X19736392Y-47161577D01*
G01X19722142Y-47147889D01*
G01X19722142Y-47147889D01*
G01X19722142Y-47147889D01*
G01X19677744Y-47096269D01*
G01X19660342Y-47074089D01*
G01X19660342Y-47074089D01*
G01X19620848Y-47018507D01*
G01X19599478Y-46986408D01*
G01X19599142Y-46985889D01*
G01X19599142Y-46985889D01*
G01X19560365Y-46924323D01*
G01X19547542Y-46903089D01*
G01X19547542Y-46903089D01*
G01X19514751Y-46847580D01*
G01X19491817Y-46808830D01*
G01X19491142Y-46807689D01*
G01X19491142Y-46807689D01*
G01X19452230Y-46741276D01*
G01X19442542Y-46724289D01*
G01X19442542Y-46724289D01*
G01X19383652Y-46691526D01*
G01X19377742Y-46672689D01*
G01X19377742Y-46672689D01*
G01X19389927Y-46616423D01*
G01X19390942Y-46613889D01*
G01X19390942Y-46613889D01*
G01X19469086Y-46627483D01*
G01X19510366Y-46631630D01*
G01X19515742Y-46631889D01*
G01X19515742Y-46631889D01*
G01X19596137Y-46622597D01*
G01X19657818Y-46601107D01*
G01X19700020Y-46577004D01*
G01X19721975Y-46559870D01*
G01X19725142Y-46556889D01*
G01X19725142Y-46556889D01*
G01X19769036Y-46495785D01*
G01X19790780Y-46438033D01*
G01X19798156Y-46396480D01*
G01X19798942Y-46383489D01*
G01X19798942Y-46383489D01*
G01X19786099Y-46309770D01*
G01X19762059Y-46259761D01*
G01X19748557Y-46240707D01*
G01X19748542Y-46240689D01*
G01X19748542Y-46240689D01*
G01X19691950Y-46200378D01*
G01X19636242Y-46184633D01*
G01X19607371Y-46181893D01*
G01X19606942Y-46181889D01*
G01X19606942Y-46181889D01*
G01X19538008Y-46191531D01*
G01X19477463Y-46211604D01*
G01X19439057Y-46228832D01*
G01X19432342Y-46232289D01*
G01X19432342Y-46232289D01*
G01X19368076Y-46273239D01*
G01X19317367Y-46314189D01*
G01X19284095Y-46345689D01*
G01X19272142Y-46358289D01*
G01X19272142Y-46358289D01*
G01X19272142Y-46714689D01*
G01X19272142Y-46714689D01*
G01X19273716Y-46816316D01*
G01X19277941Y-46905822D01*
G01X19284068Y-46983285D01*
G01X19291350Y-47048781D01*
G01X19299040Y-47102387D01*
G01X19306391Y-47144179D01*
G01X19312654Y-47174235D01*
G01X19317082Y-47192630D01*
G01X19318928Y-47199442D01*
G01X19318942Y-47199489D01*
G01X19318942Y-47199489D01*
G01X19252994Y-47216696D01*
G01X19226542Y-47218689D01*
G01X19226542Y-47218689D01*
G01X19153492Y-47203989D01*
G01X19131742Y-47189289D01*
G01X19131742Y-47189289D01*
G01X19131742Y-47189289D01*
G01X19108844Y-47130615D01*
G01X19105342Y-47091571D01*
G01X19105342Y-47091489D01*
G01X19105342Y-47091489D01*
G01X19105507Y-47052566D01*
G01X19105922Y-46993040D01*
G01X19106470Y-46924471D01*
G01X19107033Y-46858419D01*
G01X19107492Y-46806446D01*
G01X19107731Y-46780112D01*
G01X19107742Y-46778889D01*
G01X19107742Y-46778889D01*
G01X19108562Y-46683757D01*
G01X19109169Y-46601926D01*
G01X19109597Y-46533370D01*
G01X19109877Y-46478068D01*
G01X19110039Y-46435995D01*
G01X19110116Y-46407126D01*
G01X19110140Y-46391440D01*
G01X19110142Y-46388289D01*
G01X19110142Y-46102689D01*
G01X19110142Y-46102689D01*
G01X19109793Y-45972040D01*
G01X19108825Y-45857647D01*
G01X19107355Y-45758534D01*
G01X19105502Y-45673725D01*
G01X19103384Y-45602241D01*
G01X19101118Y-45543108D01*
G01X19098822Y-45495347D01*
G01X19096615Y-45457981D01*
G01X19094615Y-45430034D01*
G01X19092939Y-45410529D01*
G01X19091705Y-45398489D01*
G01X19091032Y-45392938D01*
G01X19090942Y-45392289D01*
G37*
G36*
G01X20212942Y-47039889D02*
G01X20212942Y-47039889D01*
G01X20239622Y-46983521D01*
G01X20290720Y-46949566D01*
G01X20322826Y-46936845D01*
G01X20323342Y-46936689D01*
G01X20323342Y-46936689D01*
G01X20360786Y-46997666D01*
G01X20407107Y-47037648D01*
G01X20437811Y-47056051D01*
G01X20440342Y-47057289D01*
G01X20440342Y-47057289D01*
G01X20508526Y-47081224D01*
G01X20571367Y-47093514D01*
G01X20617445Y-47098043D01*
G01X20635342Y-47098689D01*
G01X20635342Y-47098689D01*
G01X20635342Y-47098689D01*
G01X20714038Y-47089737D01*
G01X20770504Y-47071098D01*
G01X20801422Y-47055100D01*
G01X20806342Y-47051889D01*
G01X20806342Y-47051889D01*
G01X20850257Y-46997958D01*
G01X20868153Y-46941085D01*
G01X20871720Y-46908084D01*
G01X20871742Y-46906689D01*
G01X20871742Y-46906689D01*
G01X20851508Y-46839541D01*
G01X20817306Y-46801815D01*
G01X20806342Y-46793889D01*
G01X20806342Y-46793889D01*
G01X20743286Y-46763336D01*
G01X20684864Y-46743216D01*
G01X20650611Y-46733917D01*
G01X20647942Y-46733289D01*
G01X20647942Y-46733289D01*
G01X20576936Y-46716071D01*
G01X20515621Y-46699666D01*
G01X20473930Y-46687807D01*
G01X20461342Y-46684089D01*
G01X20461342Y-46684089D01*
G01X20394707Y-46654140D01*
G01X20343432Y-46617351D01*
G01X20311442Y-46587329D01*
G01X20302342Y-46577289D01*
G01X20302342Y-46577289D01*
G01X20266799Y-46517159D01*
G01X20247240Y-46454025D01*
G01X20238890Y-46401073D01*
G01X20236975Y-46371485D01*
G01X20236942Y-46369089D01*
G01X20236942Y-46369089D01*
G01X20248916Y-46293553D01*
G01X20277892Y-46230823D01*
G01X20313448Y-46182530D01*
G01X20345166Y-46150301D01*
G01X20362624Y-46135768D01*
G01X20363542Y-46135089D01*
G01X20363542Y-46135089D01*
G01X20430023Y-46096036D01*
G01X20496548Y-46070109D01*
G01X20557441Y-46054619D01*
G01X20607024Y-46046878D01*
G01X20639619Y-46044197D01*
G01X20649742Y-46043889D01*
G01X20649742Y-46043889D01*
G01X20724027Y-46050283D01*
G01X20790269Y-46065068D01*
G01X20841645Y-46081651D01*
G01X20871331Y-46093439D01*
G01X20875942Y-46095489D01*
G01X20875942Y-46095489D01*
G01X20943761Y-46143371D01*
G01X20976138Y-46193127D01*
G01X20986181Y-46229310D01*
G01X20986942Y-46238289D01*
G01X20986942Y-46238289D01*
G01X20961692Y-46295367D01*
G01X20912252Y-46328414D01*
G01X20878089Y-46341077D01*
G01X20876542Y-46341489D01*
G01X20876542Y-46341489D01*
G01X20838934Y-46283793D01*
G01X20794033Y-46244536D01*
G01X20766720Y-46226936D01*
G01X20765542Y-46226289D01*
G01X20765542Y-46226289D01*
G01X20695825Y-46198462D01*
G01X20635478Y-46185672D01*
G01X20597541Y-46182071D01*
G01X20590942Y-46181889D01*
G01X20590942Y-46181889D01*
G01X20516611Y-46193509D01*
G01X20465457Y-46215260D01*
G01X20445760Y-46227476D01*
G01X20445742Y-46227489D01*
G01X20445742Y-46227489D01*
G01X20401349Y-46283895D01*
G01X20386194Y-46336773D01*
G01X20384542Y-46355889D01*
G01X20384542Y-46355889D01*
G01X20404776Y-46423781D01*
G01X20438978Y-46462762D01*
G01X20449942Y-46471089D01*
G01X20449942Y-46471089D01*
G01X20512998Y-46503479D01*
G01X20571420Y-46524787D01*
G01X20605673Y-46534626D01*
G01X20608342Y-46535289D01*
G01X20608342Y-46535289D01*
G01X20679348Y-46553221D01*
G01X20740663Y-46569980D01*
G01X20782354Y-46581959D01*
G01X20794942Y-46585689D01*
G01X20794942Y-46585689D01*
G01X20863858Y-46616154D01*
G01X20916047Y-46652463D01*
G01X20947114Y-46680516D01*
G01X20953942Y-46687689D01*
G01X20953942Y-46687689D01*
G01X20991751Y-46748918D01*
G01X21011167Y-46811664D01*
G01X21018320Y-46860574D01*
G01X21019342Y-46880289D01*
G01X21019342Y-46880289D01*
G01X21019342Y-46880289D01*
G01X21009702Y-46961763D01*
G01X20985711Y-47028563D01*
G01X20954761Y-47080477D01*
G01X20924247Y-47117293D01*
G01X20901560Y-47138798D01*
G01X20893942Y-47144889D01*
G01X20893942Y-47144889D01*
G01X20831012Y-47181790D01*
G01X20766212Y-47207002D01*
G01X20704955Y-47222750D01*
G01X20652653Y-47231262D01*
G01X20614716Y-47234765D01*
G01X20596557Y-47235484D01*
G01X20595742Y-47235489D01*
G01X20595742Y-47235489D01*
G01X20514449Y-47230155D01*
G01X20443841Y-47217246D01*
G01X20387326Y-47201406D01*
G01X20348311Y-47187276D01*
G01X20330205Y-47179498D01*
G01X20329342Y-47179089D01*
G01X20329342Y-47179089D01*
G01X20258224Y-47129781D01*
G01X20224272Y-47081822D01*
G01X20213740Y-47048108D01*
G01X20212942Y-47039889D01*
G37*
G36*
G01X21229342Y-46653489D02*
G01X21229342Y-46653489D01*
G01X21233550Y-46573623D01*
G01X21243880Y-46503279D01*
G01X21256888Y-46445565D01*
G01X21269130Y-46403587D01*
G01X21277164Y-46380455D01*
G01X21278542Y-46376889D01*
G01X21278542Y-46376889D01*
G01X21314430Y-46304266D01*
G01X21352347Y-46247913D01*
G01X21385085Y-46208943D01*
G01X21405438Y-46188466D01*
G01X21408742Y-46185489D01*
G01X21408742Y-46185489D01*
G01X21470008Y-46139627D01*
G01X21525817Y-46106589D01*
G01X21566439Y-46086602D01*
G01X21582142Y-46079889D01*
G01X21582142Y-46079889D01*
G01X21582142Y-46079889D01*
G01X21653193Y-46058477D01*
G01X21715202Y-46047871D01*
G01X21757663Y-46044273D01*
G01X21770542Y-46043889D01*
G01X21770542Y-46043889D01*
G01X21846713Y-46050306D01*
G01X21914200Y-46065379D01*
G01X21967335Y-46082840D01*
G01X22000451Y-46096420D01*
G01X22008742Y-46100289D01*
G01X22008742Y-46100289D01*
G01X22074301Y-46149021D01*
G01X22107967Y-46201239D01*
G01X22120370Y-46242883D01*
G01X22122142Y-46259889D01*
G01X22122142Y-46259889D01*
G01X22122142Y-46259889D01*
G01X22097964Y-46320326D01*
G01X22048608Y-46352509D01*
G01X22008843Y-46364516D01*
G01X22003342Y-46365489D01*
G01X22003342Y-46365489D01*
G01X21971691Y-46298825D01*
G01X21931726Y-46253929D01*
G01X21903290Y-46231679D01*
G01X21899542Y-46229289D01*
G01X21899542Y-46229289D01*
G01X21830231Y-46198854D01*
G01X21770689Y-46185401D01*
G01X21735229Y-46181994D01*
G01X21730942Y-46181889D01*
G01X21730942Y-46181889D01*
G01X21657371Y-46193409D01*
G01X21595362Y-46221286D01*
G01X21546988Y-46255495D01*
G01X21514323Y-46286010D01*
G01X21499442Y-46302806D01*
G01X21498742Y-46303689D01*
G01X21498742Y-46303689D01*
G01X21462393Y-46362572D01*
G01X21436853Y-46425962D01*
G01X21420215Y-46488404D01*
G01X21410571Y-46544443D01*
G01X21406014Y-46588624D01*
G01X21404636Y-46615491D01*
G01X21404542Y-46621089D01*
G01X21404542Y-46621089D01*
G01X21409852Y-46716793D01*
G01X21423595Y-46797422D01*
G01X21442492Y-46863214D01*
G01X21463263Y-46914406D01*
G01X21482628Y-46951235D01*
G01X21497309Y-46973937D01*
G01X21504024Y-46982750D01*
G01X21504142Y-46982889D01*
G01X21504142Y-46982889D01*
G01X21562272Y-47034841D01*
G01X21624083Y-47068333D01*
G01X21682059Y-47087418D01*
G01X21728684Y-47096147D01*
G01X21756441Y-47098574D01*
G01X21760942Y-47098689D01*
G01X21760942Y-47098689D01*
G01X21831544Y-47090586D01*
G01X21887029Y-47075418D01*
G01X21910319Y-47066899D01*
G01X21910342Y-47066889D01*
G01X21910342Y-47066889D01*
G01X21973324Y-47026853D01*
G01X22008615Y-46986991D01*
G01X22018942Y-46970289D01*
G01X22018942Y-46970289D01*
G01X22089981Y-47015581D01*
G01X22113744Y-47054919D01*
G01X22116142Y-47068689D01*
G01X22116142Y-47068689D01*
G01X22093429Y-47129754D01*
G01X22047064Y-47170612D01*
G01X22009710Y-47190737D01*
G01X22004542Y-47192889D01*
G01X22004542Y-47192889D01*
G01X21935480Y-47213678D01*
G01X21867627Y-47226288D01*
G01X21809105Y-47232763D01*
G01X21768036Y-47235149D01*
G01X21752542Y-47235489D01*
G01X21752542Y-47235489D01*
G01X21752542Y-47235489D01*
G01X21669374Y-47228738D01*
G01X21594641Y-47211046D01*
G01X21529355Y-47186258D01*
G01X21474529Y-47158218D01*
G01X21431174Y-47130769D01*
G01X21400304Y-47107755D01*
G01X21382931Y-47093020D01*
G01X21379342Y-47089689D01*
G01X21379342Y-47089689D01*
G01X21335087Y-47036905D01*
G01X21300525Y-46977097D01*
G01X21274456Y-46913739D01*
G01X21255684Y-46850305D01*
G01X21243011Y-46790268D01*
G01X21235238Y-46737103D01*
G01X21231167Y-46694283D01*
G01X21229601Y-46665283D01*
G01X21229342Y-46653576D01*
G01X21229342Y-46653489D01*
G37*
G36*
G01X22364542Y-46069089D02*
G01X22364542Y-46069089D01*
G01X22430379Y-46062350D01*
G01X22448542Y-46061889D01*
G01X22448542Y-46061889D01*
G01X22520938Y-46084219D01*
G01X22549215Y-46126986D01*
G01X22554135Y-46153858D01*
G01X22554142Y-46154289D01*
G01X22554142Y-46154289D01*
G01X22552942Y-46187889D01*
G01X22552942Y-46187889D01*
G01X22551742Y-46240512D01*
G01X22551742Y-46240689D01*
G01X22551742Y-46240689D01*
G01X22596544Y-46183631D01*
G01X22642175Y-46138520D01*
G01X22675030Y-46110740D01*
G01X22683142Y-46104489D01*
G01X22683142Y-46104489D01*
G01X22752285Y-46065579D01*
G01X22809018Y-46048379D01*
G01X22841838Y-46044023D01*
G01X22845742Y-46043889D01*
G01X22845742Y-46043889D01*
G01X22914792Y-46058334D01*
G01X22934542Y-46069689D01*
G01X22934542Y-46069689D01*
G01X22965301Y-46124845D01*
G01X22966942Y-46139889D01*
G01X22966942Y-46139889D01*
G01X22948912Y-46200384D01*
G01X22921950Y-46244576D01*
G01X22917742Y-46250289D01*
G01X22917742Y-46250289D01*
G01X22854118Y-46214112D01*
G01X22807546Y-46203988D01*
G01X22798942Y-46203489D01*
G01X22798942Y-46203489D01*
G01X22731701Y-46217972D01*
G01X22680458Y-46244440D01*
G01X22661542Y-46257489D01*
G01X22661542Y-46257489D01*
G01X22609343Y-46308321D01*
G01X22570828Y-46359243D01*
G01X22549235Y-46393976D01*
G01X22545742Y-46400289D01*
G01X22545742Y-46400289D01*
G01X22544714Y-46453787D01*
G01X22544032Y-46521288D01*
G01X22543624Y-46591826D01*
G01X22543421Y-46654437D01*
G01X22543350Y-46698155D01*
G01X22543342Y-46712289D01*
G01X22543342Y-46712289D01*
G01X22544916Y-46815251D01*
G01X22549141Y-46905647D01*
G01X22555268Y-46983630D01*
G01X22562550Y-47049353D01*
G01X22570240Y-47102970D01*
G01X22577591Y-47144634D01*
G01X22583854Y-47174499D01*
G01X22588282Y-47192717D01*
G01X22590128Y-47199443D01*
G01X22590142Y-47199489D01*
G01X22590142Y-47199489D01*
G01X22523540Y-47216696D01*
G01X22496542Y-47218689D01*
G01X22496542Y-47218689D01*
G01X22423203Y-47203266D01*
G01X22401172Y-47186927D01*
G01X22401142Y-47186889D01*
G01X22401142Y-47186889D01*
G01X22380635Y-47127721D01*
G01X22376567Y-47080472D01*
G01X22376542Y-47078289D01*
G01X22376542Y-47078289D01*
G01X22376944Y-47028885D01*
G01X22377814Y-46961345D01*
G01X22378645Y-46904017D01*
G01X22378942Y-46884489D01*
G01X22378942Y-46884489D01*
G01X22380159Y-46796486D01*
G01X22380874Y-46727455D01*
G01X22381220Y-46678432D01*
G01X22381332Y-46650449D01*
G01X22381342Y-46643889D01*
G01X22381342Y-46643889D01*
G01X22380958Y-46552147D01*
G01X22379905Y-46467059D01*
G01X22378329Y-46389040D01*
G01X22376378Y-46318506D01*
G01X22374198Y-46255871D01*
G01X22371936Y-46201549D01*
G01X22369740Y-46155956D01*
G01X22367756Y-46119505D01*
G01X22366131Y-46092612D01*
G01X22365012Y-46075691D01*
G01X22364547Y-46069156D01*
G01X22364542Y-46069089D01*
G37*
G36*
G01X23101342Y-46646289D02*
G01X23101342Y-46646289D01*
G01X23106852Y-46555365D01*
G01X23121637Y-46474370D01*
G01X23143082Y-46403478D01*
G01X23168571Y-46342861D01*
G01X23195486Y-46292691D01*
G01X23221212Y-46253141D01*
G01X23243133Y-46224384D01*
G01X23258632Y-46206591D01*
G01X23265093Y-46199936D01*
G01X23265142Y-46199889D01*
G01X23265142Y-46199889D01*
G01X23326092Y-46150199D01*
G01X23389087Y-46112370D01*
G01X23451247Y-46084784D01*
G01X23509690Y-46065824D01*
G01X23561537Y-46053873D01*
G01X23603908Y-46047314D01*
G01X23633922Y-46044528D01*
G01X23648700Y-46043899D01*
G01X23649742Y-46043889D01*
G01X23649742Y-46043889D01*
G01X23731433Y-46051362D01*
G01X23800651Y-46069958D01*
G01X23856155Y-46093947D01*
G01X23896709Y-46117600D01*
G01X23921075Y-46135185D01*
G01X23928142Y-46141089D01*
G01X23928142Y-46141089D01*
G01X23980260Y-46202126D01*
G01X24011873Y-46263336D01*
G01X24028107Y-46316827D01*
G01X24034088Y-46354709D01*
G01X24034942Y-46369089D01*
G01X24034942Y-46369089D01*
G01X24034942Y-46369089D01*
G01X24027120Y-46448099D01*
G01X24011804Y-46502850D01*
G01X24001221Y-46527765D01*
G01X24000742Y-46528689D01*
G01X24000742Y-46528689D01*
G01X23958015Y-46587710D01*
G01X23921197Y-46621636D01*
G01X23911342Y-46628889D01*
G01X23911342Y-46628889D01*
G01X23852525Y-46657212D01*
G01X23792024Y-46675977D01*
G01X23754720Y-46684698D01*
G01X23751742Y-46685289D01*
G01X23751742Y-46685289D01*
G01X23675636Y-46697486D01*
G01X23609992Y-46705014D01*
G01X23563923Y-46708830D01*
G01X23546542Y-46709889D01*
G01X23546542Y-46709889D01*
G01X23546542Y-46709889D01*
G01X23483762Y-46712138D01*
G01X23416589Y-46713545D01*
G01X23354407Y-46714308D01*
G01X23306598Y-46714623D01*
G01X23282546Y-46714689D01*
G01X23281342Y-46714689D01*
G01X23281342Y-46714689D01*
G01X23296252Y-46798206D01*
G01X23318355Y-46868213D01*
G01X23343088Y-46923793D01*
G01X23365888Y-46964024D01*
G01X23382192Y-46987988D01*
G01X23387542Y-46994889D01*
G01X23387542Y-46994889D01*
G01X23442948Y-47043526D01*
G01X23503878Y-47073951D01*
G01X23561173Y-47090437D01*
G01X23605670Y-47097254D01*
G01X23628209Y-47098676D01*
G01X23629342Y-47098689D01*
G01X23629342Y-47098689D01*
G01X23716066Y-47088819D01*
G01X23783743Y-47064254D01*
G01X23833716Y-47032564D01*
G01X23867329Y-47001319D01*
G01X23885928Y-46978090D01*
G01X23890942Y-46970289D01*
G01X23890942Y-46970289D01*
G01X23960731Y-47015562D01*
G01X23985208Y-47056822D01*
G01X23988142Y-47073489D01*
G01X23988142Y-47073489D01*
G01X23964036Y-47131172D01*
G01X23915825Y-47170776D01*
G01X23879667Y-47189773D01*
G01X23876542Y-47191089D01*
G01X23876542Y-47191089D01*
G01X23807729Y-47212757D01*
G01X23740472Y-47225899D01*
G01X23682660Y-47232648D01*
G01X23642187Y-47235134D01*
G01X23626942Y-47235489D01*
G01X23626942Y-47235489D01*
G01X23626942Y-47235489D01*
G01X23541044Y-47228738D01*
G01X23464548Y-47211046D01*
G01X23398274Y-47186258D01*
G01X23343047Y-47158218D01*
G01X23299689Y-47130769D01*
G01X23269022Y-47107755D01*
G01X23251869Y-47093020D01*
G01X23248342Y-47089689D01*
G01X23248342Y-47089689D01*
G01X23204972Y-47036663D01*
G01X23171101Y-46976205D01*
G01X23145554Y-46911904D01*
G01X23127158Y-46847350D01*
G01X23114737Y-46786130D01*
G01X23107120Y-46731834D01*
G01X23103131Y-46688051D01*
G01X23101596Y-46658369D01*
G01X23101342Y-46646378D01*
G01X23101342Y-46646289D01*
G37*
G36*
G01X24255742Y-46646289D02*
G01X24255742Y-46646289D01*
G01X24261252Y-46555365D01*
G01X24276037Y-46474370D01*
G01X24297482Y-46403478D01*
G01X24322971Y-46342861D01*
G01X24349886Y-46292691D01*
G01X24375612Y-46253141D01*
G01X24397533Y-46224384D01*
G01X24413032Y-46206591D01*
G01X24419493Y-46199936D01*
G01X24419542Y-46199889D01*
G01X24419542Y-46199889D01*
G01X24480492Y-46150199D01*
G01X24543487Y-46112370D01*
G01X24605647Y-46084784D01*
G01X24664090Y-46065824D01*
G01X24715937Y-46053873D01*
G01X24758308Y-46047314D01*
G01X24788322Y-46044528D01*
G01X24803100Y-46043899D01*
G01X24804142Y-46043889D01*
G01X24804142Y-46043889D01*
G01X24885833Y-46051362D01*
G01X24955051Y-46069958D01*
G01X25010555Y-46093947D01*
G01X25051109Y-46117600D01*
G01X25075475Y-46135185D01*
G01X25082542Y-46141089D01*
G01X25082542Y-46141089D01*
G01X25134660Y-46202126D01*
G01X25166273Y-46263336D01*
G01X25182507Y-46316827D01*
G01X25188488Y-46354709D01*
G01X25189342Y-46369089D01*
G01X25189342Y-46369089D01*
G01X25189342Y-46369089D01*
G01X25181520Y-46448099D01*
G01X25166204Y-46502850D01*
G01X25155621Y-46527765D01*
G01X25155142Y-46528689D01*
G01X25155142Y-46528689D01*
G01X25112415Y-46587710D01*
G01X25075597Y-46621636D01*
G01X25065742Y-46628889D01*
G01X25065742Y-46628889D01*
G01X25006925Y-46657212D01*
G01X24946424Y-46675977D01*
G01X24909120Y-46684698D01*
G01X24906142Y-46685289D01*
G01X24906142Y-46685289D01*
G01X24830036Y-46697486D01*
G01X24764392Y-46705014D01*
G01X24718323Y-46708830D01*
G01X24700942Y-46709889D01*
G01X24700942Y-46709889D01*
G01X24700942Y-46709889D01*
G01X24638162Y-46712138D01*
G01X24570989Y-46713545D01*
G01X24508807Y-46714308D01*
G01X24460998Y-46714623D01*
G01X24436946Y-46714689D01*
G01X24435742Y-46714689D01*
G01X24435742Y-46714689D01*
G01X24450652Y-46798206D01*
G01X24472755Y-46868213D01*
G01X24497488Y-46923793D01*
G01X24520288Y-46964024D01*
G01X24536592Y-46987988D01*
G01X24541942Y-46994889D01*
G01X24541942Y-46994889D01*
G01X24597348Y-47043526D01*
G01X24658278Y-47073951D01*
G01X24715573Y-47090437D01*
G01X24760070Y-47097254D01*
G01X24782609Y-47098676D01*
G01X24783742Y-47098689D01*
G01X24783742Y-47098689D01*
G01X24870466Y-47088819D01*
G01X24938143Y-47064254D01*
G01X24988116Y-47032564D01*
G01X25021729Y-47001319D01*
G01X25040328Y-46978090D01*
G01X25045342Y-46970289D01*
G01X25045342Y-46970289D01*
G01X25115131Y-47015562D01*
G01X25139608Y-47056822D01*
G01X25142542Y-47073489D01*
G01X25142542Y-47073489D01*
G01X25118436Y-47131172D01*
G01X25070225Y-47170776D01*
G01X25034067Y-47189773D01*
G01X25030942Y-47191089D01*
G01X25030942Y-47191089D01*
G01X24962129Y-47212757D01*
G01X24894872Y-47225899D01*
G01X24837060Y-47232648D01*
G01X24796587Y-47235134D01*
G01X24781342Y-47235489D01*
G01X24781342Y-47235489D01*
G01X24781342Y-47235489D01*
G01X24695444Y-47228738D01*
G01X24618948Y-47211046D01*
G01X24552674Y-47186258D01*
G01X24497447Y-47158218D01*
G01X24454089Y-47130769D01*
G01X24423422Y-47107755D01*
G01X24406269Y-47093020D01*
G01X24402742Y-47089689D01*
G01X24402742Y-47089689D01*
G01X24359372Y-47036663D01*
G01X24325501Y-46976205D01*
G01X24299954Y-46911904D01*
G01X24281558Y-46847350D01*
G01X24269137Y-46786130D01*
G01X24261520Y-46731834D01*
G01X24257531Y-46688051D01*
G01X24255996Y-46658369D01*
G01X24255742Y-46646378D01*
G01X24255742Y-46646289D01*
G37*
G36*
G01X25447342Y-46081089D02*
G01X25447342Y-46081089D01*
G01X25514819Y-46063639D01*
G01X25536142Y-46061889D01*
G01X25536142Y-46061889D01*
G01X25605061Y-46083840D01*
G01X25637962Y-46130418D01*
G01X25648168Y-46172713D01*
G01X25648942Y-46184289D01*
G01X25648942Y-46184289D01*
G01X25706818Y-46146551D01*
G01X25766277Y-46116079D01*
G01X25814183Y-46095162D01*
G01X25837396Y-46086089D01*
G01X25837942Y-46085889D01*
G01X25837942Y-46085889D01*
G01X25912468Y-46063821D01*
G01X25978717Y-46051265D01*
G01X26029982Y-46045540D01*
G01X26059554Y-46043962D01*
G01X26064142Y-46043889D01*
G01X26064142Y-46043889D01*
G01X26144547Y-46052438D01*
G01X26210292Y-46072824D01*
G01X26259536Y-46097155D01*
G01X26290433Y-46117541D01*
G01X26301142Y-46126089D01*
G01X26301142Y-46126089D01*
G01X26301142Y-46126089D01*
G01X26342326Y-46178569D01*
G01X26368877Y-46240638D01*
G01X26384007Y-46302409D01*
G01X26390927Y-46353993D01*
G01X26392850Y-46385500D01*
G01X26392942Y-46390689D01*
G01X26392942Y-46390689D01*
G01X26392209Y-46428818D01*
G01X26390714Y-46501721D01*
G01X26389509Y-46559705D01*
G01X26389342Y-46567689D01*
G01X26389342Y-46567689D01*
G01X26387585Y-46660958D01*
G01X26386520Y-46733952D01*
G01X26385972Y-46786411D01*
G01X26385771Y-46818077D01*
G01X26385742Y-46828689D01*
G01X26385742Y-46828689D01*
G01X26385742Y-46828689D01*
G01X26387981Y-46918536D01*
G01X26393776Y-46997861D01*
G01X26401745Y-47065597D01*
G01X26410504Y-47120677D01*
G01X26418670Y-47162035D01*
G01X26424860Y-47188603D01*
G01X26427692Y-47199316D01*
G01X26427742Y-47199489D01*
G01X26427742Y-47199489D01*
G01X26360228Y-47216431D01*
G01X26331742Y-47218689D01*
G01X26331742Y-47218689D01*
G01X26260230Y-47203744D01*
G01X26239942Y-47190489D01*
G01X26239942Y-47190489D01*
G01X26215483Y-47132856D01*
G01X26211742Y-47093971D01*
G01X26211742Y-47093889D01*
G01X26211742Y-47093889D01*
G01X26212179Y-47044461D01*
G01X26213297Y-46981634D01*
G01X26214804Y-46913721D01*
G01X26216408Y-46849032D01*
G01X26217817Y-46795877D01*
G01X26218740Y-46762567D01*
G01X26218942Y-46755489D01*
G01X26218942Y-46755489D01*
G01X26222025Y-46644825D01*
G01X26224072Y-46564453D01*
G01X26225295Y-46509917D01*
G01X26225906Y-46476758D01*
G01X26226118Y-46460521D01*
G01X26226142Y-46456689D01*
G01X26226142Y-46456689D01*
G01X26217032Y-46372500D01*
G01X26196301Y-46310315D01*
G01X26173849Y-46270045D01*
G01X26159574Y-46251603D01*
G01X26158342Y-46250289D01*
G01X26158342Y-46250289D01*
G01X26097980Y-46208498D01*
G01X26038019Y-46188547D01*
G01X25995395Y-46182359D01*
G01X25984942Y-46181889D01*
G01X25984942Y-46181889D01*
G01X25915600Y-46189119D01*
G01X25849410Y-46207829D01*
G01X25788961Y-46233556D01*
G01X25736841Y-46261835D01*
G01X25695638Y-46288200D01*
G01X25667940Y-46308186D01*
G01X25656335Y-46317329D01*
G01X25656142Y-46317489D01*
G01X25656142Y-46317489D01*
G01X25657558Y-46421352D01*
G01X25658664Y-46512144D01*
G01X25659498Y-46590124D01*
G01X25660099Y-46655550D01*
G01X25660505Y-46708683D01*
G01X25660753Y-46749780D01*
G01X25660884Y-46779100D01*
G01X25660934Y-46796902D01*
G01X25660942Y-46803444D01*
G01X25660942Y-46803489D01*
G01X25660942Y-46803489D01*
G01X25661609Y-46892763D01*
G01X25663356Y-46973486D01*
G01X25665804Y-47044408D01*
G01X25668574Y-47104281D01*
G01X25671285Y-47151855D01*
G01X25673558Y-47185879D01*
G01X25675013Y-47205105D01*
G01X25675342Y-47209089D01*
G01X25675342Y-47209089D01*
G01X25609478Y-47215862D01*
G01X25592542Y-47216289D01*
G01X25592542Y-47216289D01*
G01X25518409Y-47194881D01*
G01X25488200Y-47152965D01*
G01X25482180Y-47124001D01*
G01X25482142Y-47122689D01*
G01X25482142Y-47122689D01*
G01X25483290Y-47083961D01*
G01X25485679Y-47013091D01*
G01X25487730Y-46953861D01*
G01X25488142Y-46942089D01*
G01X25488142Y-46942089D01*
G01X25490457Y-46865826D01*
G01X25492084Y-46793195D01*
G01X25493144Y-46727587D01*
G01X25493758Y-46672392D01*
G01X25494048Y-46630999D01*
G01X25494136Y-46606798D01*
G01X25494142Y-46601889D01*
G01X25494142Y-46601889D01*
G01X25492832Y-46489329D01*
G01X25489275Y-46392897D01*
G01X25484033Y-46311585D01*
G01X25477668Y-46244385D01*
G01X25470742Y-46190289D01*
G01X25463816Y-46148289D01*
G01X25457451Y-46117377D01*
G01X25452209Y-46096545D01*
G01X25448652Y-46084785D01*
G01X25447342Y-46081089D01*
G01X25447342Y-46081089D01*
G37*
G36*
G01X18058942Y-46069089D02*
G01X18058942Y-46069089D01*
G01X18124779Y-46062350D01*
G01X18142942Y-46061889D01*
G01X18142942Y-46061889D01*
G01X18220298Y-46083023D01*
G01X18251821Y-46124402D01*
G01X18258102Y-46152995D01*
G01X18258142Y-46154289D01*
G01X18258142Y-46154289D01*
G01X18255742Y-46210089D01*
G01X18253342Y-46255089D01*
G01X18253342Y-46255089D01*
G01X18253342Y-46255089D01*
G01X18249952Y-46322112D01*
G01X18246961Y-46389409D01*
G01X18244766Y-46442945D01*
G01X18243765Y-46468687D01*
G01X18243742Y-46469289D01*
G01X18243742Y-46469289D01*
G01X18241309Y-46547186D01*
G01X18239879Y-46616048D01*
G01X18239185Y-46670174D01*
G01X18238962Y-46703862D01*
G01X18238942Y-46712289D01*
G01X18238942Y-46712289D01*
G01X18240516Y-46815251D01*
G01X18244741Y-46905647D01*
G01X18250868Y-46983630D01*
G01X18258150Y-47049353D01*
G01X18265840Y-47102970D01*
G01X18273191Y-47144634D01*
G01X18279454Y-47174499D01*
G01X18283882Y-47192717D01*
G01X18285728Y-47199443D01*
G01X18285742Y-47199489D01*
G01X18285742Y-47199489D01*
G01X18219140Y-47216696D01*
G01X18192142Y-47218689D01*
G01X18192142Y-47218689D01*
G01X18118512Y-47203266D01*
G01X18096172Y-47186927D01*
G01X18096142Y-47186889D01*
G01X18096142Y-47186889D01*
G01X18075135Y-47127721D01*
G01X18070967Y-47080472D01*
G01X18070942Y-47078289D01*
G01X18070942Y-47078289D01*
G01X18071445Y-47028885D01*
G01X18072532Y-46961345D01*
G01X18073570Y-46904017D01*
G01X18073942Y-46884489D01*
G01X18073942Y-46884489D01*
G01X18075463Y-46796486D01*
G01X18076357Y-46727455D01*
G01X18076790Y-46678432D01*
G01X18076930Y-46650449D01*
G01X18076942Y-46643889D01*
G01X18076942Y-46643889D01*
G01X18076531Y-46552147D01*
G01X18075402Y-46467059D01*
G01X18073714Y-46389040D01*
G01X18071623Y-46318506D01*
G01X18069287Y-46255871D01*
G01X18066864Y-46201549D01*
G01X18064511Y-46155956D01*
G01X18062385Y-46119505D01*
G01X18060644Y-46092612D01*
G01X18059446Y-46075691D01*
G01X18058947Y-46069156D01*
G01X18058942Y-46069089D01*
G37*
%LPC*%
G36*
G01X49403742Y-18565623D02*
G01X49403742Y-18565623D01*
G01X49304166Y-18554679D01*
G01X49220574Y-18533271D01*
G01X49151670Y-18504135D01*
G01X49096158Y-18470007D01*
G01X49052742Y-18433623D01*
G01X49020126Y-18397719D01*
G01X48997014Y-18365031D01*
G01X48982110Y-18338295D01*
G01X48974118Y-18320247D01*
G01X48971742Y-18313623D01*
G01X48971742Y-18313623D01*
G01X48971742Y-18313623D01*
G01X48957644Y-18241025D01*
G01X48977336Y-18183053D01*
G01X49014355Y-18140034D01*
G01X49052241Y-18112299D01*
G01X49074532Y-18100177D01*
G01X49075742Y-18099623D01*
G01X49075742Y-18099623D01*
G01X49157829Y-18073162D01*
G01X49230844Y-18065134D01*
G01X49291957Y-18069349D01*
G01X49338337Y-18079614D01*
G01X49367156Y-18089741D01*
G01X49375742Y-18093623D01*
G01X49375742Y-18093623D01*
G01X49427683Y-18138905D01*
G01X49460674Y-18193175D01*
G01X49477669Y-18237029D01*
G01X49481742Y-18251623D01*
G01X49481742Y-18251623D01*
G01X49492264Y-18329804D01*
G01X49490926Y-18395655D01*
G01X49484528Y-18442373D01*
G01X49479871Y-18463158D01*
G01X49479742Y-18463623D01*
G01X49479742Y-18463623D01*
G01X49442889Y-18539560D01*
G01X49411096Y-18563687D01*
G01X49403742Y-18565623D01*
G37*
G36*
G01X45655742Y-18177623D02*
G01X45655742Y-18177623D01*
G01X45654664Y-18283655D01*
G01X45651609Y-18382893D01*
G01X45646846Y-18475367D01*
G01X45640646Y-18561110D01*
G01X45633278Y-18640151D01*
G01X45625011Y-18712522D01*
G01X45616115Y-18778254D01*
G01X45606860Y-18837378D01*
G01X45597515Y-18889925D01*
G01X45588350Y-18935927D01*
G01X45579634Y-18975414D01*
G01X45571637Y-19008417D01*
G01X45564628Y-19034969D01*
G01X45558877Y-19055099D01*
G01X45554654Y-19068839D01*
G01X45552228Y-19076220D01*
G01X45551742Y-19077623D01*
G01X45551742Y-19077623D01*
G01X45475387Y-19068462D01*
G01X45402955Y-19052860D01*
G01X45335757Y-19032798D01*
G01X45275101Y-19010256D01*
G01X45222297Y-18987214D01*
G01X45178656Y-18965653D01*
G01X45145487Y-18947554D01*
G01X45124099Y-18934897D01*
G01X45115802Y-18929662D01*
G01X45115742Y-18929623D01*
G01X45115742Y-18929623D01*
G01X45047813Y-18875284D01*
G01X44998128Y-18817583D01*
G01X44963839Y-18760052D01*
G01X44942100Y-18706224D01*
G01X44930063Y-18659632D01*
G01X44924880Y-18623809D01*
G01X44923705Y-18602287D01*
G01X44923742Y-18597623D01*
G01X44923742Y-18597623D01*
G01X44937155Y-18527432D01*
G01X44966250Y-18465195D01*
G01X45001150Y-18414534D01*
G01X45031978Y-18379069D01*
G01X45048857Y-18362422D01*
G01X45049742Y-18361623D01*
G01X45049742Y-18361623D01*
G01X45110958Y-18314342D01*
G01X45173981Y-18275982D01*
G01X45233550Y-18246248D01*
G01X45284408Y-18224845D01*
G01X45321294Y-18211479D01*
G01X45338949Y-18205854D01*
G01X45339742Y-18205623D01*
G01X45339742Y-18205623D01*
G01X45418322Y-18187445D01*
G01X45490684Y-18177549D01*
G01X45553682Y-18173772D01*
G01X45604172Y-18173952D01*
G01X45639006Y-18175927D01*
G01X45655040Y-18177532D01*
G01X45655742Y-18177623D01*
G37*
G36*
G01X44019742Y-18565623D02*
G01X44019742Y-18565623D01*
G01X43920166Y-18554679D01*
G01X43836574Y-18533271D01*
G01X43767670Y-18504135D01*
G01X43712158Y-18470007D01*
G01X43668742Y-18433623D01*
G01X43636126Y-18397719D01*
G01X43613014Y-18365031D01*
G01X43598110Y-18338295D01*
G01X43590118Y-18320247D01*
G01X43587742Y-18313623D01*
G01X43587742Y-18313623D01*
G01X43587742Y-18313623D01*
G01X43573644Y-18241025D01*
G01X43593336Y-18183053D01*
G01X43630355Y-18140034D01*
G01X43668241Y-18112299D01*
G01X43690532Y-18100177D01*
G01X43691742Y-18099623D01*
G01X43691742Y-18099623D01*
G01X43773829Y-18073162D01*
G01X43846844Y-18065134D01*
G01X43907957Y-18069349D01*
G01X43954337Y-18079614D01*
G01X43983156Y-18089741D01*
G01X43991742Y-18093623D01*
G01X43991742Y-18093623D01*
G01X44043683Y-18138905D01*
G01X44076674Y-18193175D01*
G01X44093669Y-18237029D01*
G01X44097742Y-18251623D01*
G01X44097742Y-18251623D01*
G01X44108264Y-18329804D01*
G01X44106926Y-18395655D01*
G01X44100528Y-18442373D01*
G01X44095871Y-18463158D01*
G01X44095742Y-18463623D01*
G01X44095742Y-18463623D01*
G01X44058889Y-18539560D01*
G01X44027096Y-18563687D01*
G01X44019742Y-18565623D01*
G37*
G36*
G01X41123742Y-18569623D02*
G01X41123742Y-18569623D01*
G01X41041231Y-18574652D01*
G01X40980989Y-18556092D01*
G01X40942432Y-18529711D01*
G01X40924975Y-18511279D01*
G01X40923742Y-18509623D01*
G01X40923742Y-18509623D01*
G01X40894710Y-18446598D01*
G01X40883660Y-18380706D01*
G01X40883702Y-18322836D01*
G01X40887946Y-18283879D01*
G01X40889742Y-18273623D01*
G01X40889742Y-18273623D01*
G01X40910583Y-18203043D01*
G01X40939009Y-18139912D01*
G01X40969772Y-18086824D01*
G01X40997626Y-18046374D01*
G01X41017323Y-18021156D01*
G01X41023742Y-18013623D01*
G01X41023742Y-18013623D01*
G01X41069993Y-18006533D01*
G01X41123925Y-18039719D01*
G01X41165225Y-18078224D01*
G01X41175742Y-18089623D01*
G01X41175742Y-18089623D01*
G01X41231636Y-18162140D01*
G01X41268658Y-18230203D01*
G01X41290613Y-18290975D01*
G01X41301310Y-18341623D01*
G01X41304554Y-18379310D01*
G01X41304154Y-18401203D01*
G01X41303742Y-18405623D01*
G01X41303742Y-18405623D01*
G01X41278878Y-18471831D01*
G01X41233470Y-18518647D01*
G01X41182494Y-18548759D01*
G01X41140926Y-18564855D01*
G01X41123742Y-18569623D01*
G01X41123742Y-18569623D01*
G37*
G36*
G01X34043742Y-18569623D02*
G01X34043742Y-18569623D01*
G01X33961231Y-18574652D01*
G01X33900989Y-18556092D01*
G01X33862432Y-18529711D01*
G01X33844975Y-18511279D01*
G01X33843742Y-18509623D01*
G01X33843742Y-18509623D01*
G01X33814710Y-18446598D01*
G01X33803660Y-18380706D01*
G01X33803702Y-18322836D01*
G01X33807946Y-18283879D01*
G01X33809742Y-18273623D01*
G01X33809742Y-18273623D01*
G01X33830583Y-18203043D01*
G01X33859009Y-18139912D01*
G01X33889772Y-18086824D01*
G01X33917626Y-18046374D01*
G01X33937323Y-18021156D01*
G01X33943742Y-18013623D01*
G01X33943742Y-18013623D01*
G01X33989993Y-18006533D01*
G01X34043925Y-18039719D01*
G01X34085225Y-18078224D01*
G01X34095742Y-18089623D01*
G01X34095742Y-18089623D01*
G01X34151636Y-18162140D01*
G01X34188658Y-18230203D01*
G01X34210613Y-18290975D01*
G01X34221310Y-18341623D01*
G01X34224554Y-18379310D01*
G01X34224154Y-18401203D01*
G01X34223742Y-18405623D01*
G01X34223742Y-18405623D01*
G01X34198878Y-18471831D01*
G01X34153470Y-18518647D01*
G01X34102494Y-18548759D01*
G01X34060926Y-18564855D01*
G01X34043742Y-18569623D01*
G01X34043742Y-18569623D01*
G37*
G36*
G01X75268742Y-14475956D02*
G01X75268742Y-14475956D01*
G01X75320851Y-14508010D01*
G01X75346609Y-14563168D01*
G01X75353650Y-14628122D01*
G01X75349609Y-14689562D01*
G01X75342120Y-14734179D01*
G01X75338742Y-14748956D01*
G01X75338742Y-14748956D01*
G01X75321272Y-14818768D01*
G01X75317742Y-14831206D01*
G01X75317742Y-14831206D01*
G01X75292038Y-14879448D01*
G01X75291492Y-14880206D01*
G01X75291492Y-14880206D01*
G01X75244364Y-14911299D01*
G01X75242492Y-14911706D01*
G01X75242492Y-14911706D01*
G01X75179734Y-14912008D01*
G01X75160242Y-14909956D01*
G01X75160242Y-14909956D01*
G01X75116002Y-14880265D01*
G01X75094090Y-14822547D01*
G01X75086843Y-14762095D01*
G01X75086594Y-14724206D01*
G01X75086742Y-14720956D01*
G01X75086742Y-14699956D01*
G01X75086742Y-14699956D01*
G01X75101317Y-14621425D01*
G01X75121694Y-14563806D01*
G01X75138366Y-14530405D01*
G01X75142742Y-14523206D01*
G01X75142742Y-14523206D01*
G01X75198427Y-14479616D01*
G01X75250125Y-14473263D01*
G01X75268742Y-14475956D01*
G37*
G36*
G01X9211342Y-46970289D02*
G01X9211342Y-46970289D01*
G01X9277942Y-47019446D01*
G01X9344322Y-47054119D01*
G01X9406378Y-47076837D01*
G01X9460001Y-47090126D01*
G01X9501086Y-47096514D01*
G01X9525525Y-47098529D01*
G01X9530542Y-47098689D01*
G01X9530542Y-47098689D01*
G01X9610046Y-47086578D01*
G01X9673655Y-47056848D01*
G01X9721451Y-47019412D01*
G01X9753520Y-46984177D01*
G01X9769946Y-46961054D01*
G01X9772342Y-46957089D01*
G01X9772342Y-46957089D01*
G01X9803135Y-46890640D01*
G01X9824771Y-46822068D01*
G01X9838865Y-46756380D01*
G01X9847035Y-46698581D01*
G01X9850895Y-46653677D01*
G01X9852062Y-46626674D01*
G01X9852142Y-46621089D01*
G01X9852142Y-46621089D01*
G01X9846784Y-46529254D01*
G01X9833091Y-46452437D01*
G01X9814635Y-46390588D01*
G01X9794988Y-46343659D01*
G01X9777723Y-46311602D01*
G01X9766412Y-46294368D01*
G01X9763942Y-46291089D01*
G01X9763942Y-46291089D01*
G01X9707048Y-46237800D01*
G01X9647907Y-46205477D01*
G01X9595073Y-46188878D01*
G01X9557100Y-46182763D01*
G01X9542542Y-46181889D01*
G01X9542542Y-46181889D01*
G01X9538942Y-46181889D01*
G01X9538942Y-46181889D01*
G01X9462760Y-46189763D01*
G01X9392483Y-46209883D01*
G01X9330614Y-46237002D01*
G01X9279656Y-46265870D01*
G01X9242111Y-46291239D01*
G01X9220482Y-46307861D01*
G01X9216142Y-46311489D01*
G01X9216142Y-46311489D01*
G01X9216432Y-46362941D01*
G01X9216987Y-46430126D01*
G01X9217336Y-46468690D01*
G01X9217342Y-46469289D01*
G01X9217342Y-46469289D01*
G01X9218036Y-46555549D01*
G01X9218392Y-46620714D01*
G01X9218523Y-46661918D01*
G01X9218542Y-46676289D01*
G01X9218542Y-46676289D01*
G01X9218542Y-46676289D01*
G01X9217988Y-46768034D01*
G01X9216611Y-46842578D01*
G01X9214834Y-46899994D01*
G01X9213082Y-46940351D01*
G01X9211779Y-46963720D01*
G01X9211342Y-46970289D01*
G37*
G36*
G01X10402942Y-46606689D02*
G01X10402942Y-46606689D01*
G01X10408028Y-46691039D01*
G01X10421192Y-46765917D01*
G01X10439292Y-46830178D01*
G01X10459187Y-46882674D01*
G01X10477736Y-46922261D01*
G01X10491797Y-46947792D01*
G01X10498229Y-46958121D01*
G01X10498342Y-46958289D01*
G01X10498342Y-46958289D01*
G01X10552293Y-47018411D01*
G01X10612015Y-47058325D01*
G01X10670274Y-47082171D01*
G01X10719836Y-47094089D01*
G01X10753468Y-47098216D01*
G01X10764142Y-47098689D01*
G01X10764142Y-47098689D01*
G01X10845003Y-47089834D01*
G01X10912154Y-47067794D01*
G01X10964993Y-47039362D01*
G01X11002919Y-47011329D01*
G01X11025331Y-46990488D01*
G01X11031742Y-46983489D01*
G01X11031742Y-46983489D01*
G01X11070842Y-46923396D01*
G01X11097557Y-46858112D01*
G01X11114244Y-46794244D01*
G01X11123263Y-46738398D01*
G01X11126974Y-46697179D01*
G01X11127736Y-46677194D01*
G01X11127742Y-46676289D01*
G01X11127742Y-46676289D01*
G01X11122496Y-46591875D01*
G01X11108918Y-46516832D01*
G01X11090249Y-46452344D01*
G01X11069728Y-46399597D01*
G01X11050596Y-46359777D01*
G01X11036093Y-46334069D01*
G01X11029458Y-46323659D01*
G01X11029342Y-46323489D01*
G01X11029342Y-46323489D01*
G01X10974383Y-46262854D01*
G01X10914497Y-46222599D01*
G01X10856617Y-46198548D01*
G01X10807676Y-46186529D01*
G01X10774607Y-46182367D01*
G01X10764142Y-46181889D01*
G01X10764142Y-46181889D01*
G01X10683373Y-46190838D01*
G01X10616452Y-46213107D01*
G01X10563909Y-46241835D01*
G01X10526275Y-46270160D01*
G01X10504080Y-46291218D01*
G01X10497742Y-46298289D01*
G01X10497742Y-46298289D01*
G01X10459130Y-46358871D01*
G01X10432750Y-46424489D01*
G01X10416272Y-46488566D01*
G01X10407365Y-46544525D01*
G01X10403700Y-46585790D01*
G01X10402948Y-46605785D01*
G01X10402942Y-46606689D01*
G37*
G36*
G01X13420942Y-46606689D02*
G01X13420942Y-46606689D01*
G01X13426028Y-46691039D01*
G01X13439192Y-46765917D01*
G01X13457292Y-46830178D01*
G01X13477187Y-46882674D01*
G01X13495736Y-46922261D01*
G01X13509797Y-46947792D01*
G01X13516229Y-46958121D01*
G01X13516342Y-46958289D01*
G01X13516342Y-46958289D01*
G01X13570293Y-47018411D01*
G01X13630015Y-47058325D01*
G01X13688274Y-47082171D01*
G01X13737836Y-47094089D01*
G01X13771468Y-47098216D01*
G01X13782142Y-47098689D01*
G01X13782142Y-47098689D01*
G01X13863003Y-47089834D01*
G01X13930154Y-47067794D01*
G01X13982993Y-47039362D01*
G01X14020919Y-47011329D01*
G01X14043331Y-46990488D01*
G01X14049742Y-46983489D01*
G01X14049742Y-46983489D01*
G01X14088842Y-46923396D01*
G01X14115557Y-46858112D01*
G01X14132244Y-46794244D01*
G01X14141263Y-46738398D01*
G01X14144974Y-46697179D01*
G01X14145736Y-46677194D01*
G01X14145742Y-46676289D01*
G01X14145742Y-46676289D01*
G01X14140496Y-46591875D01*
G01X14126918Y-46516832D01*
G01X14108249Y-46452344D01*
G01X14087728Y-46399597D01*
G01X14068596Y-46359777D01*
G01X14054093Y-46334069D01*
G01X14047458Y-46323659D01*
G01X14047342Y-46323489D01*
G01X14047342Y-46323489D01*
G01X13992383Y-46262854D01*
G01X13932497Y-46222599D01*
G01X13874617Y-46198548D01*
G01X13825676Y-46186529D01*
G01X13792607Y-46182367D01*
G01X13782142Y-46181889D01*
G01X13782142Y-46181889D01*
G01X13701373Y-46190838D01*
G01X13634452Y-46213107D01*
G01X13581909Y-46241835D01*
G01X13544275Y-46270160D01*
G01X13522080Y-46291218D01*
G01X13515742Y-46298289D01*
G01X13515742Y-46298289D01*
G01X13477130Y-46358871D01*
G01X13450750Y-46424489D01*
G01X13434272Y-46488566D01*
G01X13425365Y-46544525D01*
G01X13421700Y-46585790D01*
G01X13420948Y-46605785D01*
G01X13420942Y-46606689D01*
G37*
G36*
G01X23278942Y-46592289D02*
G01X23278942Y-46592289D01*
G01X23362208Y-46591801D01*
G01X23421278Y-46590804D01*
G01X23451937Y-46590001D01*
G01X23455342Y-46589889D01*
G01X23455342Y-46589889D01*
G01X23525187Y-46585000D01*
G01X23584282Y-46578363D01*
G01X23610116Y-46574893D01*
G01X23610142Y-46574889D01*
G01X23610142Y-46574889D01*
G01X23688431Y-46559033D01*
G01X23734434Y-46544613D01*
G01X23745742Y-46540089D01*
G01X23745742Y-46540089D01*
G01X23803726Y-46502355D01*
G01X23829964Y-46476923D01*
G01X23830342Y-46476489D01*
G01X23830342Y-46476489D01*
G01X23860168Y-46414673D01*
G01X23865724Y-46375023D01*
G01X23865742Y-46373889D01*
G01X23865742Y-46373889D01*
G01X23849229Y-46303832D01*
G01X23818321Y-46255650D01*
G01X23800961Y-46237107D01*
G01X23800942Y-46237089D01*
G01X23800942Y-46237089D01*
G01X23739797Y-46200105D01*
G01X23681521Y-46183757D01*
G01X23644730Y-46179616D01*
G01X23640142Y-46179489D01*
G01X23640142Y-46179489D01*
G01X23561108Y-46189023D01*
G01X23493950Y-46212094D01*
G01X23441187Y-46240404D01*
G01X23405336Y-46265658D01*
G01X23388917Y-46279559D01*
G01X23388142Y-46280289D01*
G01X23388142Y-46280289D01*
G01X23347565Y-46332016D01*
G01X23318514Y-46392134D01*
G01X23299070Y-46454132D01*
G01X23287313Y-46511496D01*
G01X23281323Y-46557714D01*
G01X23279181Y-46586275D01*
G01X23278942Y-46592289D01*
G37*
G36*
G01X24433342Y-46592289D02*
G01X24433342Y-46592289D01*
G01X24516608Y-46591801D01*
G01X24575678Y-46590804D01*
G01X24606337Y-46590001D01*
G01X24609742Y-46589889D01*
G01X24609742Y-46589889D01*
G01X24679587Y-46585000D01*
G01X24738682Y-46578363D01*
G01X24764516Y-46574893D01*
G01X24764542Y-46574889D01*
G01X24764542Y-46574889D01*
G01X24842831Y-46559033D01*
G01X24888834Y-46544613D01*
G01X24900142Y-46540089D01*
G01X24900142Y-46540089D01*
G01X24958126Y-46502355D01*
G01X24984364Y-46476923D01*
G01X24984742Y-46476489D01*
G01X24984742Y-46476489D01*
G01X25014568Y-46414673D01*
G01X25020124Y-46375023D01*
G01X25020142Y-46373889D01*
G01X25020142Y-46373889D01*
G01X25003629Y-46303832D01*
G01X24972721Y-46255650D01*
G01X24955361Y-46237107D01*
G01X24955342Y-46237089D01*
G01X24955342Y-46237089D01*
G01X24894197Y-46200105D01*
G01X24835921Y-46183757D01*
G01X24799130Y-46179616D01*
G01X24794542Y-46179489D01*
G01X24794542Y-46179489D01*
G01X24715508Y-46189023D01*
G01X24648350Y-46212094D01*
G01X24595587Y-46240404D01*
G01X24559736Y-46265658D01*
G01X24543317Y-46279559D01*
G01X24542542Y-46280289D01*
G01X24542542Y-46280289D01*
G01X24501965Y-46332016D01*
G01X24472914Y-46392134D01*
G01X24453470Y-46454132D01*
G01X24441713Y-46511496D01*
G01X24435723Y-46557714D01*
G01X24433581Y-46586275D01*
G01X24433342Y-46592289D01*
G37*
G04 end of program*
M02*
