M48
METRIC,TZ
G90
M71
T1C1
T2C3
T4C1.1
T3C0.7
M95
T1
X17.336742Y-6.393289
X25.956742Y-6.393289
X22.545330Y-9.806289
X22.545330Y-14.306289
X16.045330Y-14.306289
X16.045330Y-9.806289
X12.784724Y-5.706289
X12.784724Y-10.786289
X12.784724Y-8.246289
X12.784724Y-15.866289
X12.784724Y-13.326289
X12.784724Y-18.406289
X77.129964Y-9.616289
X77.129964Y-14.496289
X25.291487Y-10.056289
X25.291487Y-14.056289
X71.868107Y-9.910131
X71.868107Y-5.910131
X71.868646Y-14.766654
X71.868646Y-18.766654
X17.336742Y-17.719289
X25.956742Y-17.719289
X65.199758Y-17.056289
X69.199758Y-17.056289
X65.149534Y-7.056289
X69.149534Y-7.056289
X65.191742Y-12.056289
X69.191742Y-12.056289
X82.496198Y-10.239994
X82.496198Y-14.239994
T2
X76.471742Y-21.056289
X21.271742Y-21.056289
X76.471742Y-3.056289
X21.271742Y-3.056289
T4
X51.896088Y-20.946289
X49.356088Y-20.946289
X56.976088Y-20.946289
X54.436088Y-20.946289
X62.056088Y-20.946289
X59.486088Y-20.946289
X64.596088Y-20.946289
X26.496088Y-20.946289
X31.576088Y-20.946289
X29.036088Y-20.946289
X36.656088Y-20.946289
X34.116088Y-20.946289
X41.736088Y-20.946289
X39.196088Y-20.946289
X46.816088Y-20.946289
X44.276088Y-20.946289
X51.896088Y-3.166289
X49.356088Y-3.166289
X56.976088Y-3.166289
X54.436088Y-3.166289
X62.056088Y-3.166289
X59.486088Y-3.166289
X64.596088Y-3.166289
X26.496088Y-3.166289
X31.576088Y-3.166289
X29.036088Y-3.166289
X36.656088Y-3.166289
X34.116088Y-3.166289
X41.736088Y-3.166289
X39.196088Y-3.166289
X46.816088Y-3.166289
X44.276088Y-3.166289
T3
X34.116088Y-8.246289
X54.436088Y-8.246289
X56.976088Y-15.866289
X59.516088Y-15.866289
X34.116088Y-15.866289
X51.896088Y-8.246289
X44.276088Y-8.246289
X46.816088Y-8.246289
X36.656088Y-8.246289
X39.196088Y-15.866289
X41.736088Y-8.246289
X54.436088Y-15.866289
X29.036088Y-8.246289
X59.516088Y-8.246289
X56.976088Y-8.246289
X44.276088Y-15.866289
X31.576088Y-15.866289
X46.816088Y-15.866289
X29.036088Y-15.866289
X39.196088Y-8.246289
X49.356088Y-8.246289
X36.656088Y-15.866289
X62.056088Y-8.246289
X41.736088Y-15.866289
X62.056088Y-15.866289
X51.896088Y-15.866289
X31.576088Y-8.246289
X49.356088Y-15.866289
M30
